<?xml version="1.0" encoding="UTF-8" standalone="no"?>
<!DOCTYPE svg PUBLIC "-//W3C//DTD SVG 1.1//EN"
 "http://www.w3.org/Graphics/SVG/1.1/DTD/svg11.dtd">
<!-- Generated by graphviz version 2.42.3 (20191010.1750)
 -->
<!-- Title: flow Pages: 1 -->
<svg width="361pt" height="152pt"
 viewBox="0.00 0.00 360.87 152.00" xmlns="http://www.w3.org/2000/svg" xmlns:xlink="http://www.w3.org/1999/xlink">
<g id="graph0" class="graph" transform="scale(1 1) rotate(0) translate(12.43 126)">
<title>flow</title>
<polygon fill="white" stroke="transparent" points="-12.43,26 -12.43,-126 348.43,-126 348.43,26 -12.43,26"/>
<text text-anchor="start" x="-0.43" y="15.2" font-family="Times,serif" font-size="14.00">Flow, node_id=443349, workdir=../../../../../tmp/hello_bands</text>
<g id="clust1" class="cluster">
<title>clusterw0</title>
<path fill="#e0eeee" stroke="black" d="M101.24,0.36C101.24,0.36 235.24,0.36 235.24,0.36 241.24,0.36 247.24,-5.64 247.24,-11.64 247.24,-11.64 247.24,-109.64 247.24,-109.64 247.24,-115.64 241.24,-121.64 235.24,-121.64 235.24,-121.64 101.24,-121.64 101.24,-121.64 95.24,-121.64 89.24,-115.64 89.24,-109.64 89.24,-109.64 89.24,-11.64 89.24,-11.64 89.24,-5.64 95.24,0.36 101.24,0.36"/>
<text text-anchor="middle" x="168.24" y="-106.44" font-family="Times,serif" font-size="14.00">BandStructureWork (w0)</text>
</g>
<!-- w0_t0 -->
<g id="node1" class="node">
<title>w0_t0</title>
<ellipse fill="#ff0000" stroke="#ff0000" cx="198.48" cy="-73.28" rx="27.89" ry="18"/>
<text text-anchor="middle" x="198.48" y="-74.88" font-family="Times,serif" font-size="8.00">w0_t0</text>
<text text-anchor="middle" x="198.48" y="-66.88" font-family="Times,serif" font-size="8.00">ScfTask</text>
</g>
<!-- w0_t1 -->
<g id="node2" class="node">
<title>w0_t1</title>
<ellipse fill="#c85064" stroke="#c85064" cx="141.48" cy="-25.28" rx="30.85" ry="18"/>
<text text-anchor="middle" x="141.48" y="-26.88" font-family="Times,serif" font-size="8.00">w0_t1</text>
<text text-anchor="middle" x="141.48" y="-18.88" font-family="Times,serif" font-size="8.00">NscfTask</text>
</g>
<!-- w0_t0&#45;&gt;w0_t1 -->
<g id="edge1" class="edge">
<title>w0_t0&#45;&gt;w0_t1</title>
<path fill="none" stroke="#ff0000" d="M181.37,-58.88C176.92,-55.13 172.02,-51 167.23,-46.97"/>
<polygon fill="#ff0000" stroke="#ff0000" points="169.26,-44.1 159.36,-40.34 164.75,-49.46 169.26,-44.1"/>
<text text-anchor="middle" x="188.69" y="-41.72" font-family="Times,serif" font-size="14.00">DEN</text>
</g>
</g>
</svg>
