<?xml version="1.0" encoding="UTF-8" standalone="no"?>
<!DOCTYPE svg PUBLIC "-//W3C//DTD SVG 1.1//EN"
 "http://www.w3.org/Graphics/SVG/1.1/DTD/svg11.dtd">
<!-- Generated by graphviz version 2.42.3 (20191010.1750)
 -->
<!-- Title: directory Pages: 1 -->
<svg width="587pt" height="528pt"
 viewBox="0.00 0.00 587.00 528.00" xmlns="http://www.w3.org/2000/svg" xmlns:xlink="http://www.w3.org/1999/xlink">
<g id="graph0" class="graph" transform="scale(1 1) rotate(0) translate(4 502)">
<title>directory</title>
<polygon fill="white" stroke="transparent" points="-4,26 -4,-502 583,-502 583,26 -4,26"/>
<text text-anchor="middle" x="289.5" y="15.2" font-family="Times,serif" font-size="14.00">/tmp/hello_bands/w0</text>
<g id="clust1" class="cluster">
<title>cluster_/tmp/hello_bands/w0</title>
<path fill="#e0eeee" stroke="black" d="M279.55,-295.81C279.55,-295.81 290.21,-295.81 290.21,-295.81 295.55,-295.81 300.88,-301.14 300.88,-306.48 300.88,-306.48 300.88,-323.14 300.88,-323.14 300.88,-328.48 295.55,-333.81 290.21,-333.81 290.21,-333.81 279.55,-333.81 279.55,-333.81 274.21,-333.81 268.88,-328.48 268.88,-323.14 268.88,-323.14 268.88,-306.48 268.88,-306.48 268.88,-301.14 274.21,-295.81 279.55,-295.81"/>
<text text-anchor="middle" x="284.88" y="-318.61" font-family="Times,serif" font-size="14.00">w0</text>
</g>
<g id="clust2" class="cluster">
<title>cluster_/tmp/hello_bands/w0/tmpdata</title>
<path fill="#e0eeee" stroke="black" d="M265.97,-393.47C265.97,-393.47 301.97,-393.47 301.97,-393.47 307.97,-393.47 313.97,-399.47 313.97,-405.47 313.97,-405.47 313.97,-419.47 313.97,-419.47 313.97,-425.47 307.97,-431.47 301.97,-431.47 301.97,-431.47 265.97,-431.47 265.97,-431.47 259.97,-431.47 253.97,-425.47 253.97,-419.47 253.97,-419.47 253.97,-405.47 253.97,-405.47 253.97,-399.47 259.97,-393.47 265.97,-393.47"/>
<text text-anchor="middle" x="283.97" y="-416.27" font-family="Times,serif" font-size="14.00">tmpdata</text>
</g>
<g id="clust3" class="cluster">
<title>cluster_/tmp/hello_bands/w0/indata</title>
<path fill="#e0eeee" stroke="black" d="M301.72,-213.53C301.72,-213.53 327.72,-213.53 327.72,-213.53 333.72,-213.53 339.72,-219.53 339.72,-225.53 339.72,-225.53 339.72,-239.53 339.72,-239.53 339.72,-245.53 333.72,-251.53 327.72,-251.53 327.72,-251.53 301.72,-251.53 301.72,-251.53 295.72,-251.53 289.72,-245.53 289.72,-239.53 289.72,-239.53 289.72,-225.53 289.72,-225.53 289.72,-219.53 295.72,-213.53 301.72,-213.53"/>
<text text-anchor="middle" x="314.72" y="-236.33" font-family="Times,serif" font-size="14.00">indata</text>
</g>
<g id="clust4" class="cluster">
<title>cluster_/tmp/hello_bands/w0/outdata</title>
<path fill="#e0eeee" stroke="black" d="M191.51,-347.47C191.51,-347.47 223.51,-347.47 223.51,-347.47 229.51,-347.47 235.51,-353.47 235.51,-359.47 235.51,-359.47 235.51,-373.47 235.51,-373.47 235.51,-379.47 229.51,-385.47 223.51,-385.47 223.51,-385.47 191.51,-385.47 191.51,-385.47 185.51,-385.47 179.51,-379.47 179.51,-373.47 179.51,-373.47 179.51,-359.47 179.51,-359.47 179.51,-353.47 185.51,-347.47 191.51,-347.47"/>
<text text-anchor="middle" x="207.51" y="-370.27" font-family="Times,serif" font-size="14.00">outdata</text>
</g>
<g id="clust5" class="cluster">
<title>cluster_/tmp/hello_bands/w0/t1</title>
<path fill="#e0eeee" stroke="black" d="M141.38,-83.27C141.38,-83.27 267.38,-83.27 267.38,-83.27 273.38,-83.27 279.38,-89.27 279.38,-95.27 279.38,-95.27 279.38,-221.27 279.38,-221.27 279.38,-227.27 273.38,-233.27 267.38,-233.27 267.38,-233.27 141.38,-233.27 141.38,-233.27 135.38,-233.27 129.38,-227.27 129.38,-221.27 129.38,-221.27 129.38,-95.27 129.38,-95.27 129.38,-89.27 135.38,-83.27 141.38,-83.27"/>
<text text-anchor="middle" x="204.38" y="-218.07" font-family="Times,serif" font-size="14.00">t1</text>
</g>
<g id="clust9" class="cluster">
<title>cluster_/tmp/hello_bands/w0/t0</title>
<path fill="#e0eeee" stroke="black" d="M335.04,-266.25C335.04,-266.25 461.04,-266.25 461.04,-266.25 467.04,-266.25 473.04,-272.25 473.04,-278.25 473.04,-278.25 473.04,-404.25 473.04,-404.25 473.04,-410.25 467.04,-416.25 461.04,-416.25 461.04,-416.25 335.04,-416.25 335.04,-416.25 329.04,-416.25 323.04,-410.25 323.04,-404.25 323.04,-404.25 323.04,-278.25 323.04,-278.25 323.04,-272.25 329.04,-266.25 335.04,-266.25"/>
<text text-anchor="middle" x="398.04" y="-401.05" font-family="Times,serif" font-size="14.00">t0</text>
</g>
<g id="clust6" class="cluster">
<title>cluster_/tmp/hello_bands/w0/t1/tmpdata</title>
<path fill="#e0eeee" stroke="black" d="M136.27,-27.62C136.27,-27.62 172.27,-27.62 172.27,-27.62 178.27,-27.62 184.27,-33.62 184.27,-39.62 184.27,-39.62 184.27,-53.62 184.27,-53.62 184.27,-59.62 178.27,-65.62 172.27,-65.62 172.27,-65.62 136.27,-65.62 136.27,-65.62 130.27,-65.62 124.27,-59.62 124.27,-53.62 124.27,-53.62 124.27,-39.62 124.27,-39.62 124.27,-33.62 130.27,-27.62 136.27,-27.62"/>
<text text-anchor="middle" x="154.27" y="-50.42" font-family="Times,serif" font-size="14.00">tmpdata</text>
</g>
<g id="clust7" class="cluster">
<title>cluster_/tmp/hello_bands/w0/t1/indata</title>
<path fill="#e0eeee" stroke="black" d="M298.02,0.39C298.02,0.39 324.02,0.39 324.02,0.39 330.02,0.39 336.02,-5.61 336.02,-11.61 336.02,-11.61 336.02,-25.61 336.02,-25.61 336.02,-31.61 330.02,-37.61 324.02,-37.61 324.02,-37.61 298.02,-37.61 298.02,-37.61 292.02,-37.61 286.02,-31.61 286.02,-25.61 286.02,-25.61 286.02,-11.61 286.02,-11.61 286.02,-5.61 292.02,0.39 298.02,0.39"/>
<text text-anchor="middle" x="311.02" y="-22.41" font-family="Times,serif" font-size="14.00">indata</text>
</g>
<g id="clust8" class="cluster">
<title>cluster_/tmp/hello_bands/w0/t1/outdata</title>
<path fill="#e0eeee" stroke="black" d="M11.86,-157.29C11.86,-157.29 43.86,-157.29 43.86,-157.29 49.86,-157.29 55.86,-163.29 55.86,-169.29 55.86,-169.29 55.86,-183.29 55.86,-183.29 55.86,-189.29 49.86,-195.29 43.86,-195.29 43.86,-195.29 11.86,-195.29 11.86,-195.29 5.86,-195.29 -0.14,-189.29 -0.14,-183.29 -0.14,-183.29 -0.14,-169.29 -0.14,-169.29 -0.14,-163.29 5.86,-157.29 11.86,-157.29"/>
<text text-anchor="middle" x="27.86" y="-180.09" font-family="Times,serif" font-size="14.00">outdata</text>
</g>
<g id="clust10" class="cluster">
<title>cluster_/tmp/hello_bands/w0/t0/tmpdata</title>
<path fill="#e0eeee" stroke="black" d="M531.19,-231.26C531.19,-231.26 567.19,-231.26 567.19,-231.26 573.19,-231.26 579.19,-237.26 579.19,-243.26 579.19,-243.26 579.19,-257.26 579.19,-257.26 579.19,-263.26 573.19,-269.26 567.19,-269.26 567.19,-269.26 531.19,-269.26 531.19,-269.26 525.19,-269.26 519.19,-263.26 519.19,-257.26 519.19,-257.26 519.19,-243.26 519.19,-243.26 519.19,-237.26 525.19,-231.26 531.19,-231.26"/>
<text text-anchor="middle" x="549.19" y="-254.06" font-family="Times,serif" font-size="14.00">tmpdata</text>
</g>
<g id="clust11" class="cluster">
<title>cluster_/tmp/hello_bands/w0/t0/indata</title>
<path fill="#e0eeee" stroke="black" d="M484.01,-459.67C484.01,-459.67 510.01,-459.67 510.01,-459.67 516.01,-459.67 522.01,-465.67 522.01,-471.67 522.01,-471.67 522.01,-485.67 522.01,-485.67 522.01,-491.67 516.01,-497.67 510.01,-497.67 510.01,-497.67 484.01,-497.67 484.01,-497.67 478.01,-497.67 472.01,-491.67 472.01,-485.67 472.01,-485.67 472.01,-471.67 472.01,-471.67 472.01,-465.67 478.01,-459.67 484.01,-459.67"/>
<text text-anchor="middle" x="497.01" y="-482.47" font-family="Times,serif" font-size="14.00">indata</text>
</g>
<g id="clust12" class="cluster">
<title>cluster_/tmp/hello_bands/w0/t0/outdata</title>
<path fill="#e0eeee" stroke="black" d="M207.27,-280.53C207.27,-280.53 239.27,-280.53 239.27,-280.53 245.27,-280.53 251.27,-286.53 251.27,-292.53 251.27,-292.53 251.27,-306.53 251.27,-306.53 251.27,-312.53 245.27,-318.53 239.27,-318.53 239.27,-318.53 207.27,-318.53 207.27,-318.53 201.27,-318.53 195.27,-312.53 195.27,-306.53 195.27,-306.53 195.27,-292.53 195.27,-292.53 195.27,-286.53 201.27,-280.53 207.27,-280.53"/>
<text text-anchor="middle" x="223.27" y="-303.33" font-family="Times,serif" font-size="14.00">outdata</text>
</g>
<!-- /tmp/hello_bands/w0/t1/abipy_meta.json -->
<g id="node7" class="node">
<title>/tmp/hello_bands/w0/t1/abipy_meta.json</title>
<polygon fill="#b2dfee" stroke="#b2dfee" points="137.29,-111.91 137.29,-147.91 205.94,-147.91 205.94,-111.91 137.29,-111.91"/>
<text text-anchor="middle" x="171.61" y="-127.51" font-family="Times,serif" font-size="8.00">abipy_meta.json</text>
</g>
<!-- /tmp/hello_bands/w0/t1/run.abi -->
<g id="node8" class="node">
<title>/tmp/hello_bands/w0/t1/run.abi</title>
<polygon fill="#b2dfee" stroke="#b2dfee" points="207.61,-161.91 207.61,-197.91 261.61,-197.91 261.61,-161.91 207.61,-161.91"/>
<text text-anchor="middle" x="234.33" y="-177.51" font-family="Times,serif" font-size="8.00">run.abi</text>
</g>
<!-- /tmp/hello_bands/w0/t1/job.sh -->
<g id="node9" class="node">
<title>/tmp/hello_bands/w0/t1/job.sh</title>
<polygon fill="#b2dfee" stroke="#b2dfee" points="142.61,-166.91 142.61,-202.91 196.61,-202.91 196.61,-166.91 142.61,-166.91"/>
<text text-anchor="middle" x="169.28" y="-182.51" font-family="Times,serif" font-size="8.00">job.sh</text>
</g>
<!-- /tmp/hello_bands/w0/t1/run.files -->
<g id="node10" class="node">
<title>/tmp/hello_bands/w0/t1/run.files</title>
<polygon fill="#b2dfee" stroke="#b2dfee" points="217.61,-91.91 217.61,-127.91 271.61,-127.91 271.61,-91.91 217.61,-91.91"/>
<text text-anchor="middle" x="244.61" y="-107.51" font-family="Times,serif" font-size="8.00">run.files</text>
</g>
<!-- /tmp/hello_bands/w0/t0/abipy_meta.json -->
<g id="node14" class="node">
<title>/tmp/hello_bands/w0/t0/abipy_meta.json</title>
<polygon fill="#b2dfee" stroke="#b2dfee" points="330.95,-294.89 330.95,-330.89 399.6,-330.89 399.6,-294.89 330.95,-294.89"/>
<text text-anchor="middle" x="365.27" y="-310.49" font-family="Times,serif" font-size="8.00">abipy_meta.json</text>
</g>
<!-- /tmp/hello_bands/w0/t0/run.abi -->
<g id="node15" class="node">
<title>/tmp/hello_bands/w0/t0/run.abi</title>
<polygon fill="#b2dfee" stroke="#b2dfee" points="401.27,-344.89 401.27,-380.89 455.27,-380.89 455.27,-344.89 401.27,-344.89"/>
<text text-anchor="middle" x="427.99" y="-360.49" font-family="Times,serif" font-size="8.00">run.abi</text>
</g>
<!-- /tmp/hello_bands/w0/t0/job.sh -->
<g id="node16" class="node">
<title>/tmp/hello_bands/w0/t0/job.sh</title>
<polygon fill="#b2dfee" stroke="#b2dfee" points="336.27,-349.89 336.27,-385.89 390.27,-385.89 390.27,-349.89 336.27,-349.89"/>
<text text-anchor="middle" x="362.94" y="-365.49" font-family="Times,serif" font-size="8.00">job.sh</text>
</g>
<!-- /tmp/hello_bands/w0/t0/run.files -->
<g id="node17" class="node">
<title>/tmp/hello_bands/w0/t0/run.files</title>
<polygon fill="#b2dfee" stroke="#b2dfee" points="411.27,-274.89 411.27,-310.89 465.27,-310.89 465.27,-274.89 411.27,-274.89"/>
<text text-anchor="middle" x="438.27" y="-290.49" font-family="Times,serif" font-size="8.00">run.files</text>
</g>
<!-- __0:cluster_/tmp/hello_bands/w0 -->
<!-- __1:cluster_/tmp/hello_bands/w0/tmpdata -->
<!-- __0:cluster_/tmp/hello_bands/w0&#45;&gt;__1:cluster_/tmp/hello_bands/w0/tmpdata -->
<g id="edge12" class="edge">
<title>__0:cluster_/tmp/hello_bands/w0&#45;&gt;__1:cluster_/tmp/hello_bands/w0/tmpdata</title>
<path fill="none" stroke="black" d="M284.7,-334.1C284.57,-348.01 284.39,-367.05 284.25,-382.87"/>
<polygon fill="black" stroke="black" points="280.74,-383.18 284.15,-393.21 287.74,-383.25 280.74,-383.18"/>
</g>
<!-- __2:cluster_/tmp/hello_bands/w0 -->
<!-- __3:cluster_/tmp/hello_bands/w0/indata -->
<!-- __2:cluster_/tmp/hello_bands/w0&#45;&gt;__3:cluster_/tmp/hello_bands/w0/indata -->
<g id="edge13" class="edge">
<title>__2:cluster_/tmp/hello_bands/w0&#45;&gt;__3:cluster_/tmp/hello_bands/w0/indata</title>
<path fill="none" stroke="black" d="M291.8,-295.73C295.5,-285.52 300.14,-272.74 304.27,-261.35"/>
<polygon fill="black" stroke="black" points="307.61,-262.39 307.73,-251.8 301.03,-260 307.61,-262.39"/>
</g>
<!-- __4:cluster_/tmp/hello_bands/w0 -->
<!-- __5:cluster_/tmp/hello_bands/w0/outdata -->
<!-- __4:cluster_/tmp/hello_bands/w0&#45;&gt;__5:cluster_/tmp/hello_bands/w0/outdata -->
<g id="edge14" class="edge">
<title>__4:cluster_/tmp/hello_bands/w0&#45;&gt;__5:cluster_/tmp/hello_bands/w0/outdata</title>
<path fill="none" stroke="black" d="M268.85,-325.51C261.68,-330.3 252.91,-336.16 244.26,-341.93"/>
<polygon fill="black" stroke="black" points="242.1,-339.17 235.72,-347.64 245.98,-344.99 242.1,-339.17"/>
</g>
<!-- __6:cluster_/tmp/hello_bands/w0 -->
<!-- __7:cluster_/tmp/hello_bands/w0/t1 -->
<!-- __6:cluster_/tmp/hello_bands/w0&#45;&gt;__7:cluster_/tmp/hello_bands/w0/t1 -->
<g id="edge15" class="edge">
<title>__6:cluster_/tmp/hello_bands/w0&#45;&gt;__7:cluster_/tmp/hello_bands/w0/t1</title>
<path fill="none" stroke="black" d="M275.01,-295.61C267.95,-281.89 257.91,-262.37 247.61,-242.34"/>
<polygon fill="black" stroke="black" points="250.72,-240.72 243.03,-233.43 244.49,-243.92 250.72,-240.72"/>
</g>
<!-- __8:cluster_/tmp/hello_bands/w0 -->
<!-- __9:cluster_/tmp/hello_bands/w0/t0 -->
<!-- __8:cluster_/tmp/hello_bands/w0&#45;&gt;__9:cluster_/tmp/hello_bands/w0/t0 -->
<g id="edge16" class="edge">
<title>__8:cluster_/tmp/hello_bands/w0&#45;&gt;__9:cluster_/tmp/hello_bands/w0/t0</title>
<path fill="none" stroke="black" d="M301.09,-318.6C304.63,-319.42 308.6,-320.35 312.86,-321.35"/>
<polygon fill="black" stroke="black" points="312.08,-324.76 322.61,-323.63 313.67,-317.94 312.08,-324.76"/>
</g>
<!-- __10:cluster_/tmp/hello_bands/w0/t1 -->
<!-- __11:cluster_/tmp/hello_bands/w0/t1/tmpdata -->
<!-- __10:cluster_/tmp/hello_bands/w0/t1&#45;&gt;__11:cluster_/tmp/hello_bands/w0/t1/tmpdata -->
<g id="edge17" class="edge">
<title>__10:cluster_/tmp/hello_bands/w0/t1&#45;&gt;__11:cluster_/tmp/hello_bands/w0/t1/tmpdata</title>
<path fill="none" stroke="black" d="M170.68,-83.17C169.44,-80.41 168.23,-77.72 167.07,-75.14"/>
<polygon fill="black" stroke="black" points="170.14,-73.44 162.85,-65.75 163.75,-76.3 170.14,-73.44"/>
</g>
<!-- __12:cluster_/tmp/hello_bands/w0/t1 -->
<!-- __13:cluster_/tmp/hello_bands/w0/t1/indata -->
<!-- __12:cluster_/tmp/hello_bands/w0/t1&#45;&gt;__13:cluster_/tmp/hello_bands/w0/t1/indata -->
<g id="edge18" class="edge">
<title>__12:cluster_/tmp/hello_bands/w0/t1&#45;&gt;__13:cluster_/tmp/hello_bands/w0/t1/indata</title>
<path fill="none" stroke="black" d="M261.76,-83.12C271.95,-69.78 281.94,-56.69 290.24,-45.83"/>
<polygon fill="black" stroke="black" points="293.21,-47.71 296.49,-37.64 287.64,-43.46 293.21,-47.71"/>
</g>
<!-- __14:cluster_/tmp/hello_bands/w0/t1 -->
<!-- __15:cluster_/tmp/hello_bands/w0/t1/outdata -->
<!-- __14:cluster_/tmp/hello_bands/w0/t1&#45;&gt;__15:cluster_/tmp/hello_bands/w0/t1/outdata -->
<g id="edge19" class="edge">
<title>__14:cluster_/tmp/hello_bands/w0/t1&#45;&gt;__15:cluster_/tmp/hello_bands/w0/t1/outdata</title>
<path fill="none" stroke="black" d="M129.26,-165.93C107.51,-168.15 84.67,-170.49 66.19,-172.37"/>
<polygon fill="black" stroke="black" points="65.72,-168.9 56.13,-173.4 66.43,-175.87 65.72,-168.9"/>
</g>
<!-- __16:cluster_/tmp/hello_bands/w0/t0 -->
<!-- __17:cluster_/tmp/hello_bands/w0/t0/tmpdata -->
<!-- __16:cluster_/tmp/hello_bands/w0/t0&#45;&gt;__17:cluster_/tmp/hello_bands/w0/t0/tmpdata -->
<g id="edge20" class="edge">
<title>__16:cluster_/tmp/hello_bands/w0/t0&#45;&gt;__17:cluster_/tmp/hello_bands/w0/t0/tmpdata</title>
<path fill="none" stroke="black" d="M473.17,-296.02C486.03,-288.28 498.91,-280.52 510.31,-273.66"/>
<polygon fill="black" stroke="black" points="512.36,-276.51 519.12,-268.36 508.74,-270.52 512.36,-276.51"/>
</g>
<!-- __18:cluster_/tmp/hello_bands/w0/t0 -->
<!-- __19:cluster_/tmp/hello_bands/w0/t0/indata -->
<!-- __18:cluster_/tmp/hello_bands/w0/t0&#45;&gt;__19:cluster_/tmp/hello_bands/w0/t0/indata -->
<g id="edge21" class="edge">
<title>__18:cluster_/tmp/hello_bands/w0/t0&#45;&gt;__19:cluster_/tmp/hello_bands/w0/t0/indata</title>
<path fill="none" stroke="black" d="M452.16,-416.39C461.18,-428.92 470,-441.17 477.39,-451.44"/>
<polygon fill="black" stroke="black" points="474.56,-453.49 483.25,-459.56 480.24,-449.4 474.56,-453.49"/>
</g>
<!-- __20:cluster_/tmp/hello_bands/w0/t0 -->
<!-- __21:cluster_/tmp/hello_bands/w0/t0/outdata -->
<!-- __20:cluster_/tmp/hello_bands/w0/t0&#45;&gt;__21:cluster_/tmp/hello_bands/w0/t0/outdata -->
<g id="edge22" class="edge">
<title>__20:cluster_/tmp/hello_bands/w0/t0&#45;&gt;__21:cluster_/tmp/hello_bands/w0/t0/outdata</title>
<path fill="none" stroke="black" d="M322.91,-323.32C301.62,-318.23 279.34,-312.91 261.26,-308.6"/>
<polygon fill="black" stroke="black" points="261.95,-305.16 251.41,-306.25 260.33,-311.97 261.95,-305.16"/>
</g>
</g>
</svg>
