<?xml version="1.0" encoding="UTF-8" standalone="no"?>
<!DOCTYPE svg PUBLIC "-//W3C//DTD SVG 1.1//EN"
 "http://www.w3.org/Graphics/SVG/1.1/DTD/svg11.dtd">
<!-- Generated by graphviz version 2.42.3 (20191010.1750)
 -->
<!-- Title: directory Pages: 1 -->
<svg width="1183pt" height="856pt"
 viewBox="0.00 0.00 1183.00 856.00" xmlns="http://www.w3.org/2000/svg" xmlns:xlink="http://www.w3.org/1999/xlink">
<g id="graph0" class="graph" transform="scale(1 1) rotate(0) translate(4 830)">
<title>directory</title>
<polygon fill="white" stroke="transparent" points="-4,26 -4,-830 1179,-830 1179,26 -4,26"/>
<text text-anchor="middle" x="587.5" y="15.2" font-family="Times,serif" font-size="14.00">/tmp/hello_bands/w0</text>
<g id="clust1" class="cluster">
<title>cluster_/tmp/hello_bands/w0</title>
<path fill="#e0eeee" stroke="black" d="M249.76,-613.93C249.76,-613.93 260.43,-613.93 260.43,-613.93 265.76,-613.93 271.1,-619.26 271.1,-624.59 271.1,-624.59 271.1,-641.26 271.1,-641.26 271.1,-646.59 265.76,-651.93 260.43,-651.93 260.43,-651.93 249.76,-651.93 249.76,-651.93 244.43,-651.93 239.1,-646.59 239.1,-641.26 239.1,-641.26 239.1,-624.59 239.1,-624.59 239.1,-619.26 244.43,-613.93 249.76,-613.93"/>
<text text-anchor="middle" x="255.1" y="-636.73" font-family="Times,serif" font-size="14.00">w0</text>
</g>
<g id="clust2" class="cluster">
<title>cluster_/tmp/hello_bands/w0/tmpdata</title>
<path fill="#e0eeee" stroke="black" d="M280.67,-710.49C280.67,-710.49 316.67,-710.49 316.67,-710.49 322.67,-710.49 328.67,-716.49 328.67,-722.49 328.67,-722.49 328.67,-736.49 328.67,-736.49 328.67,-742.49 322.67,-748.49 316.67,-748.49 316.67,-748.49 280.67,-748.49 280.67,-748.49 274.67,-748.49 268.67,-742.49 268.67,-736.49 268.67,-736.49 268.67,-722.49 268.67,-722.49 268.67,-716.49 274.67,-710.49 280.67,-710.49"/>
<text text-anchor="middle" x="298.67" y="-733.29" font-family="Times,serif" font-size="14.00">tmpdata</text>
</g>
<g id="clust3" class="cluster">
<title>cluster_/tmp/hello_bands/w0/indata</title>
<path fill="#e0eeee" stroke="black" d="M141.31,-621.63C141.31,-621.63 167.31,-621.63 167.31,-621.63 173.31,-621.63 179.31,-627.63 179.31,-633.63 179.31,-633.63 179.31,-647.63 179.31,-647.63 179.31,-653.63 173.31,-659.63 167.31,-659.63 167.31,-659.63 141.31,-659.63 141.31,-659.63 135.31,-659.63 129.31,-653.63 129.31,-647.63 129.31,-647.63 129.31,-633.63 129.31,-633.63 129.31,-627.63 135.31,-621.63 141.31,-621.63"/>
<text text-anchor="middle" x="154.31" y="-644.43" font-family="Times,serif" font-size="14.00">indata</text>
</g>
<g id="clust4" class="cluster">
<title>cluster_/tmp/hello_bands/w0/outdata</title>
<path fill="#e0eeee" stroke="black" d="M186.58,-704.83C186.58,-704.83 218.58,-704.83 218.58,-704.83 224.58,-704.83 230.58,-710.83 230.58,-716.83 230.58,-716.83 230.58,-730.83 230.58,-730.83 230.58,-736.83 224.58,-742.83 218.58,-742.83 218.58,-742.83 186.58,-742.83 186.58,-742.83 180.58,-742.83 174.58,-736.83 174.58,-730.83 174.58,-730.83 174.58,-716.83 174.58,-716.83 174.58,-710.83 180.58,-704.83 186.58,-704.83"/>
<text text-anchor="middle" x="202.58" y="-727.63" font-family="Times,serif" font-size="14.00">outdata</text>
</g>
<g id="clust5" class="cluster">
<title>cluster_/tmp/hello_bands/w0/t1</title>
<path fill="#e0eeee" stroke="black" d="M243.43,-238.77C243.43,-238.77 439.43,-238.77 439.43,-238.77 445.43,-238.77 451.43,-244.77 451.43,-250.77 451.43,-250.77 451.43,-476.77 451.43,-476.77 451.43,-482.77 445.43,-488.77 439.43,-488.77 439.43,-488.77 243.43,-488.77 243.43,-488.77 237.43,-488.77 231.43,-482.77 231.43,-476.77 231.43,-476.77 231.43,-250.77 231.43,-250.77 231.43,-244.77 237.43,-238.77 243.43,-238.77"/>
<text text-anchor="middle" x="341.43" y="-473.57" font-family="Times,serif" font-size="14.00">t1</text>
</g>
<g id="clust9" class="cluster">
<title>cluster_/tmp/hello_bands/w0/t0</title>
<path fill="#e0eeee" stroke="black" d="M395.23,-503.67C395.23,-503.67 591.23,-503.67 591.23,-503.67 597.23,-503.67 603.23,-509.67 603.23,-515.67 603.23,-515.67 603.23,-741.67 603.23,-741.67 603.23,-747.67 597.23,-753.67 591.23,-753.67 591.23,-753.67 395.23,-753.67 395.23,-753.67 389.23,-753.67 383.23,-747.67 383.23,-741.67 383.23,-741.67 383.23,-515.67 383.23,-515.67 383.23,-509.67 389.23,-503.67 395.23,-503.67"/>
<text text-anchor="middle" x="493.23" y="-738.47" font-family="Times,serif" font-size="14.00">t0</text>
</g>
<g id="clust6" class="cluster">
<title>cluster_/tmp/hello_bands/w0/t1/tmpdata</title>
<path fill="#e0eeee" stroke="black" d="M171.17,-135.23C171.17,-135.23 207.17,-135.23 207.17,-135.23 213.17,-135.23 219.17,-141.23 219.17,-147.23 219.17,-147.23 219.17,-161.23 219.17,-161.23 219.17,-167.23 213.17,-173.23 207.17,-173.23 207.17,-173.23 171.17,-173.23 171.17,-173.23 165.17,-173.23 159.17,-167.23 159.17,-161.23 159.17,-161.23 159.17,-147.23 159.17,-147.23 159.17,-141.23 165.17,-135.23 171.17,-135.23"/>
<text text-anchor="middle" x="189.17" y="-158.03" font-family="Times,serif" font-size="14.00">tmpdata</text>
</g>
<g id="clust7" class="cluster">
<title>cluster_/tmp/hello_bands/w0/t1/indata</title>
<path fill="#e0eeee" stroke="black" d="M610.02,-362.64C610.02,-362.64 656.02,-362.64 656.02,-362.64 662.02,-362.64 668.02,-368.64 668.02,-374.64 668.02,-374.64 668.02,-425.64 668.02,-425.64 668.02,-431.64 662.02,-437.64 656.02,-437.64 656.02,-437.64 610.02,-437.64 610.02,-437.64 604.02,-437.64 598.02,-431.64 598.02,-425.64 598.02,-425.64 598.02,-374.64 598.02,-374.64 598.02,-368.64 604.02,-362.64 610.02,-362.64"/>
<text text-anchor="middle" x="633.02" y="-422.44" font-family="Times,serif" font-size="14.00">indata</text>
</g>
<g id="clust8" class="cluster">
<title>cluster_/tmp/hello_bands/w0/t1/outdata</title>
<path fill="#e0eeee" stroke="black" d="M302.68,0.15C302.68,0.15 498.68,0.15 498.68,0.15 504.68,0.15 510.68,-5.85 510.68,-11.85 510.68,-11.85 510.68,-217.85 510.68,-217.85 510.68,-223.85 504.68,-229.85 498.68,-229.85 498.68,-229.85 302.68,-229.85 302.68,-229.85 296.68,-229.85 290.68,-223.85 290.68,-217.85 290.68,-217.85 290.68,-11.85 290.68,-11.85 290.68,-5.85 296.68,0.15 302.68,0.15"/>
<text text-anchor="middle" x="400.68" y="-214.65" font-family="Times,serif" font-size="14.00">outdata</text>
</g>
<g id="clust10" class="cluster">
<title>cluster_/tmp/hello_bands/w0/t0/tmpdata</title>
<path fill="#e0eeee" stroke="black" d="M532.6,-357.24C532.6,-357.24 568.6,-357.24 568.6,-357.24 574.6,-357.24 580.6,-363.24 580.6,-369.24 580.6,-369.24 580.6,-383.24 580.6,-383.24 580.6,-389.24 574.6,-395.24 568.6,-395.24 568.6,-395.24 532.6,-395.24 532.6,-395.24 526.6,-395.24 520.6,-389.24 520.6,-383.24 520.6,-383.24 520.6,-369.24 520.6,-369.24 520.6,-363.24 526.6,-357.24 532.6,-357.24"/>
<text text-anchor="middle" x="550.6" y="-380.04" font-family="Times,serif" font-size="14.00">tmpdata</text>
</g>
<g id="clust11" class="cluster">
<title>cluster_/tmp/hello_bands/w0/t0/indata</title>
<path fill="#e0eeee" stroke="black" d="M659.63,-788.05C659.63,-788.05 685.63,-788.05 685.63,-788.05 691.63,-788.05 697.63,-794.05 697.63,-800.05 697.63,-800.05 697.63,-814.05 697.63,-814.05 697.63,-820.05 691.63,-826.05 685.63,-826.05 685.63,-826.05 659.63,-826.05 659.63,-826.05 653.63,-826.05 647.63,-820.05 647.63,-814.05 647.63,-814.05 647.63,-800.05 647.63,-800.05 647.63,-794.05 653.63,-788.05 659.63,-788.05"/>
<text text-anchor="middle" x="672.63" y="-810.85" font-family="Times,serif" font-size="14.00">indata</text>
</g>
<g id="clust12" class="cluster">
<title>cluster_/tmp/hello_bands/w0/t0/outdata</title>
<path fill="#e0eeee" stroke="black" d="M11.65,-379.26C11.65,-379.26 207.65,-379.26 207.65,-379.26 213.65,-379.26 219.65,-385.26 219.65,-391.26 219.65,-391.26 219.65,-597.26 219.65,-597.26 219.65,-603.26 213.65,-609.26 207.65,-609.26 207.65,-609.26 11.65,-609.26 11.65,-609.26 5.65,-609.26 -0.35,-603.26 -0.35,-597.26 -0.35,-597.26 -0.35,-391.26 -0.35,-391.26 -0.35,-385.26 5.65,-379.26 11.65,-379.26"/>
<text text-anchor="middle" x="109.65" y="-594.06" font-family="Times,serif" font-size="14.00">outdata</text>
</g>
<!-- /tmp/hello_bands/w0/t1/run.log -->
<g id="node7" class="node">
<title>/tmp/hello_bands/w0/t1/run.log</title>
<polygon fill="#b2dfee" stroke="#b2dfee" points="259.67,-422.41 259.67,-458.41 313.67,-458.41 313.67,-422.41 259.67,-422.41"/>
<text text-anchor="middle" x="286.61" y="-438.01" font-family="Times,serif" font-size="8.00">run.log</text>
</g>
<!-- /tmp/hello_bands/w0/t1/abipy_meta.json -->
<g id="node8" class="node">
<title>/tmp/hello_bands/w0/t1/abipy_meta.json</title>
<polygon fill="#b2dfee" stroke="#b2dfee" points="269.34,-317.41 269.34,-353.41 337.99,-353.41 337.99,-317.41 269.34,-317.41"/>
<text text-anchor="middle" x="303.67" y="-333.01" font-family="Times,serif" font-size="8.00">abipy_meta.json</text>
</g>
<!-- /tmp/hello_bands/w0/t1/run.abo -->
<g id="node9" class="node">
<title>/tmp/hello_bands/w0/t1/run.abo</title>
<polygon fill="#b2dfee" stroke="#b2dfee" points="309.67,-247.41 309.67,-283.41 363.67,-283.41 363.67,-247.41 309.67,-247.41"/>
<text text-anchor="middle" x="336.27" y="-263.01" font-family="Times,serif" font-size="8.00">run.abo</text>
</g>
<!-- /tmp/hello_bands/w0/t1/run.abi -->
<g id="node10" class="node">
<title>/tmp/hello_bands/w0/t1/run.abi</title>
<polygon fill="#b2dfee" stroke="#b2dfee" points="274.67,-372.41 274.67,-408.41 328.67,-408.41 328.67,-372.41 274.67,-372.41"/>
<text text-anchor="middle" x="301.39" y="-388.01" font-family="Times,serif" font-size="8.00">run.abi</text>
</g>
<!-- /tmp/hello_bands/w0/t1/__startlock__ -->
<g id="node11" class="node">
<title>/tmp/hello_bands/w0/t1/__startlock__</title>
<polygon fill="#b2dfee" stroke="#b2dfee" points="339.89,-367.41 339.89,-403.41 399.44,-403.41 399.44,-367.41 339.89,-367.41"/>
<text text-anchor="middle" x="369.67" y="-383.01" font-family="Times,serif" font-size="8.00">__startlock__</text>
</g>
<!-- /tmp/hello_bands/w0/t1/run.err -->
<g id="node12" class="node">
<title>/tmp/hello_bands/w0/t1/run.err</title>
<polygon fill="#b2dfee" stroke="#b2dfee" points="239.67,-267.41 239.67,-303.41 293.67,-303.41 293.67,-267.41 239.67,-267.41"/>
<text text-anchor="middle" x="266.44" y="-283.01" font-family="Times,serif" font-size="8.00">run.err</text>
</g>
<!-- /tmp/hello_bands/w0/t1/job.sh -->
<g id="node13" class="node">
<title>/tmp/hello_bands/w0/t1/job.sh</title>
<polygon fill="#b2dfee" stroke="#b2dfee" points="389.67,-417.41 389.67,-453.41 443.67,-453.41 443.67,-417.41 389.67,-417.41"/>
<text text-anchor="middle" x="416.33" y="-433.01" font-family="Times,serif" font-size="8.00">job.sh</text>
</g>
<!-- /tmp/hello_bands/w0/t1/autoparal.json -->
<g id="node14" class="node">
<title>/tmp/hello_bands/w0/t1/autoparal.json</title>
<polygon fill="#b2dfee" stroke="#b2dfee" points="349.12,-297.41 349.12,-333.41 410.22,-333.41 410.22,-297.41 349.12,-297.41"/>
<text text-anchor="middle" x="379.67" y="-313.01" font-family="Times,serif" font-size="8.00">autoparal.json</text>
</g>
<!-- /tmp/hello_bands/w0/t1/run.files -->
<g id="node15" class="node">
<title>/tmp/hello_bands/w0/t1/run.files</title>
<polygon fill="#b2dfee" stroke="#b2dfee" points="324.67,-422.41 324.67,-458.41 378.67,-458.41 378.67,-422.41 324.67,-422.41"/>
<text text-anchor="middle" x="351.67" y="-438.01" font-family="Times,serif" font-size="8.00">run.files</text>
</g>
<!-- /tmp/hello_bands/w0/t1/indata/in_DEN -->
<g id="node19" class="node">
<title>/tmp/hello_bands/w0/t1/indata/in_DEN</title>
<polygon fill="#b2dfee" stroke="#b2dfee" points="606.39,-370.88 606.39,-406.88 660.39,-406.88 660.39,-370.88 606.39,-370.88"/>
<text text-anchor="middle" x="633.22" y="-386.48" font-family="Times,serif" font-size="8.00">in_DEN</text>
</g>
<!-- ../../../../../../private/tmp/hello_bands/w0/t0/outdata/out_DEN -->
<g id="node20" class="node">
<title>../../../../../../private/tmp/hello_bands/w0/t0/outdata/out_DEN</title>
<ellipse fill="#b2dfee" stroke="#b2dfee" cx="950.01" cy="-313.35" rx="224.56" ry="18"/>
<text text-anchor="middle" x="950.01" y="-309.15" font-family="Times,serif" font-size="14.00">../../../../../../private/tmp/hello_bands/w0/t0/outdata/out_DEN</text>
</g>
<!-- /tmp/hello_bands/w0/t1/indata/in_DEN&#45;&gt;../../../../../../private/tmp/hello_bands/w0/t0/outdata/out_DEN -->
<g id="edge9" class="edge">
<title>/tmp/hello_bands/w0/t1/indata/in_DEN&#45;&gt;../../../../../../private/tmp/hello_bands/w0/t0/outdata/out_DEN</title>
<path fill="none" stroke="black" d="M660.66,-382.37C706.34,-371.48 800.04,-349.13 868.48,-332.8"/>
<polygon fill="black" stroke="black" points="869.47,-336.16 878.38,-330.44 867.84,-329.35 869.47,-336.16"/>
</g>
<!-- /tmp/hello_bands/w0/t1/outdata/out_EIG.nc -->
<g id="node21" class="node">
<title>/tmp/hello_bands/w0/t1/outdata/out_EIG.nc</title>
<polygon fill="#b2dfee" stroke="#b2dfee" points="413.92,-33.49 413.92,-69.49 467.92,-69.49 467.92,-33.49 413.92,-33.49"/>
<text text-anchor="middle" x="440.47" y="-49.09" font-family="Times,serif" font-size="8.00">out_EIG.nc</text>
</g>
<!-- /tmp/hello_bands/w0/t1/outdata/out_WFK -->
<g id="node22" class="node">
<title>/tmp/hello_bands/w0/t1/outdata/out_WFK</title>
<polygon fill="#b2dfee" stroke="#b2dfee" points="398.92,-108.49 398.92,-144.49 452.92,-144.49 452.92,-108.49 398.92,-108.49"/>
<text text-anchor="middle" x="425.92" y="-124.09" font-family="Times,serif" font-size="8.00">out_WFK</text>
</g>
<!-- /tmp/hello_bands/w0/t1/outdata/out_EBANDS.agr -->
<g id="node23" class="node">
<title>/tmp/hello_bands/w0/t1/outdata/out_EBANDS.agr</title>
<polygon fill="#b2dfee" stroke="#b2dfee" points="328.7,-58.49 328.7,-94.49 403.14,-94.49 403.14,-58.49 328.7,-58.49"/>
<text text-anchor="middle" x="365.92" y="-74.09" font-family="Times,serif" font-size="8.00">out_EBANDS.agr</text>
</g>
<!-- /tmp/hello_bands/w0/t1/outdata/out_GSR.nc -->
<g id="node24" class="node">
<title>/tmp/hello_bands/w0/t1/outdata/out_GSR.nc</title>
<polygon fill="#b2dfee" stroke="#b2dfee" points="298.25,-8.49 298.25,-44.49 353.59,-44.49 353.59,-8.49 298.25,-8.49"/>
<text text-anchor="middle" x="325.92" y="-24.09" font-family="Times,serif" font-size="8.00">out_GSR.nc</text>
</g>
<!-- /tmp/hello_bands/w0/t1/outdata/out_EIG -->
<g id="node25" class="node">
<title>/tmp/hello_bands/w0/t1/outdata/out_EIG</title>
<polygon fill="#b2dfee" stroke="#b2dfee" points="448.92,-158.49 448.92,-194.49 502.92,-194.49 502.92,-158.49 448.92,-158.49"/>
<text text-anchor="middle" x="475.69" y="-174.09" font-family="Times,serif" font-size="8.00">out_EIG</text>
</g>
<!-- /tmp/hello_bands/w0/t1/outdata/out_DEN -->
<g id="node26" class="node">
<title>/tmp/hello_bands/w0/t1/outdata/out_DEN</title>
<polygon fill="#b2dfee" stroke="#b2dfee" points="383.92,-163.49 383.92,-199.49 437.92,-199.49 437.92,-163.49 383.92,-163.49"/>
<text text-anchor="middle" x="410.75" y="-179.09" font-family="Times,serif" font-size="8.00">out_DEN</text>
</g>
<!-- /tmp/hello_bands/w0/t1/outdata/out_OUT.nc -->
<g id="node27" class="node">
<title>/tmp/hello_bands/w0/t1/outdata/out_OUT.nc</title>
<polygon fill="#b2dfee" stroke="#b2dfee" points="334.11,-113.49 334.11,-149.49 389.73,-149.49 389.73,-113.49 334.11,-113.49"/>
<text text-anchor="middle" x="361.92" y="-129.09" font-family="Times,serif" font-size="8.00">out_OUT.nc</text>
</g>
<!-- /tmp/hello_bands/w0/t0/run.log -->
<g id="node28" class="node">
<title>/tmp/hello_bands/w0/t0/run.log</title>
<polygon fill="#b2dfee" stroke="#b2dfee" points="411.47,-687.31 411.47,-723.31 465.47,-723.31 465.47,-687.31 411.47,-687.31"/>
<text text-anchor="middle" x="438.41" y="-702.91" font-family="Times,serif" font-size="8.00">run.log</text>
</g>
<!-- /tmp/hello_bands/w0/t0/abipy_meta.json -->
<g id="node29" class="node">
<title>/tmp/hello_bands/w0/t0/abipy_meta.json</title>
<polygon fill="#b2dfee" stroke="#b2dfee" points="421.14,-582.31 421.14,-618.31 489.79,-618.31 489.79,-582.31 421.14,-582.31"/>
<text text-anchor="middle" x="455.47" y="-597.91" font-family="Times,serif" font-size="8.00">abipy_meta.json</text>
</g>
<!-- /tmp/hello_bands/w0/t0/run.abo -->
<g id="node30" class="node">
<title>/tmp/hello_bands/w0/t0/run.abo</title>
<polygon fill="#b2dfee" stroke="#b2dfee" points="461.47,-512.31 461.47,-548.31 515.47,-548.31 515.47,-512.31 461.47,-512.31"/>
<text text-anchor="middle" x="488.07" y="-527.91" font-family="Times,serif" font-size="8.00">run.abo</text>
</g>
<!-- /tmp/hello_bands/w0/t0/run.abi -->
<g id="node31" class="node">
<title>/tmp/hello_bands/w0/t0/run.abi</title>
<polygon fill="#b2dfee" stroke="#b2dfee" points="426.47,-637.31 426.47,-673.31 480.47,-673.31 480.47,-637.31 426.47,-637.31"/>
<text text-anchor="middle" x="453.19" y="-652.91" font-family="Times,serif" font-size="8.00">run.abi</text>
</g>
<!-- /tmp/hello_bands/w0/t0/__startlock__ -->
<g id="node32" class="node">
<title>/tmp/hello_bands/w0/t0/__startlock__</title>
<polygon fill="#b2dfee" stroke="#b2dfee" points="491.69,-632.31 491.69,-668.31 551.24,-668.31 551.24,-632.31 491.69,-632.31"/>
<text text-anchor="middle" x="521.47" y="-647.91" font-family="Times,serif" font-size="8.00">__startlock__</text>
</g>
<!-- /tmp/hello_bands/w0/t0/run.err -->
<g id="node33" class="node">
<title>/tmp/hello_bands/w0/t0/run.err</title>
<polygon fill="#b2dfee" stroke="#b2dfee" points="391.47,-532.31 391.47,-568.31 445.47,-568.31 445.47,-532.31 391.47,-532.31"/>
<text text-anchor="middle" x="418.24" y="-547.91" font-family="Times,serif" font-size="8.00">run.err</text>
</g>
<!-- /tmp/hello_bands/w0/t0/job.sh -->
<g id="node34" class="node">
<title>/tmp/hello_bands/w0/t0/job.sh</title>
<polygon fill="#b2dfee" stroke="#b2dfee" points="541.47,-682.31 541.47,-718.31 595.47,-718.31 595.47,-682.31 541.47,-682.31"/>
<text text-anchor="middle" x="568.13" y="-697.91" font-family="Times,serif" font-size="8.00">job.sh</text>
</g>
<!-- /tmp/hello_bands/w0/t0/autoparal.json -->
<g id="node35" class="node">
<title>/tmp/hello_bands/w0/t0/autoparal.json</title>
<polygon fill="#b2dfee" stroke="#b2dfee" points="500.92,-562.31 500.92,-598.31 562.02,-598.31 562.02,-562.31 500.92,-562.31"/>
<text text-anchor="middle" x="531.47" y="-577.91" font-family="Times,serif" font-size="8.00">autoparal.json</text>
</g>
<!-- /tmp/hello_bands/w0/t0/run.files -->
<g id="node36" class="node">
<title>/tmp/hello_bands/w0/t0/run.files</title>
<polygon fill="#b2dfee" stroke="#b2dfee" points="476.47,-687.31 476.47,-723.31 530.47,-723.31 530.47,-687.31 476.47,-687.31"/>
<text text-anchor="middle" x="503.47" y="-702.91" font-family="Times,serif" font-size="8.00">run.files</text>
</g>
<!-- /tmp/hello_bands/w0/t0/outdata/out_EIG.nc -->
<g id="node40" class="node">
<title>/tmp/hello_bands/w0/t0/outdata/out_EIG.nc</title>
<polygon fill="#b2dfee" stroke="#b2dfee" points="107.89,-487.9 107.89,-523.9 161.89,-523.9 161.89,-487.9 107.89,-487.9"/>
<text text-anchor="middle" x="134.44" y="-503.5" font-family="Times,serif" font-size="8.00">out_EIG.nc</text>
</g>
<!-- /tmp/hello_bands/w0/t0/outdata/out_WFK -->
<g id="node41" class="node">
<title>/tmp/hello_bands/w0/t0/outdata/out_WFK</title>
<polygon fill="#b2dfee" stroke="#b2dfee" points="42.89,-492.9 42.89,-528.9 96.89,-528.9 96.89,-492.9 42.89,-492.9"/>
<text text-anchor="middle" x="69.89" y="-508.5" font-family="Times,serif" font-size="8.00">out_WFK</text>
</g>
<!-- /tmp/hello_bands/w0/t0/outdata/out_EBANDS.agr -->
<g id="node42" class="node">
<title>/tmp/hello_bands/w0/t0/outdata/out_EBANDS.agr</title>
<polygon fill="#b2dfee" stroke="#b2dfee" points="37.67,-437.9 37.67,-473.9 112.11,-473.9 112.11,-437.9 37.67,-437.9"/>
<text text-anchor="middle" x="74.89" y="-453.5" font-family="Times,serif" font-size="8.00">out_EBANDS.agr</text>
</g>
<!-- /tmp/hello_bands/w0/t0/outdata/out_DDB -->
<g id="node43" class="node">
<title>/tmp/hello_bands/w0/t0/outdata/out_DDB</title>
<polygon fill="#b2dfee" stroke="#b2dfee" points="122.89,-412.9 122.89,-448.9 176.89,-448.9 176.89,-412.9 122.89,-412.9"/>
<text text-anchor="middle" x="149.44" y="-428.5" font-family="Times,serif" font-size="8.00">out_DDB</text>
</g>
<!-- /tmp/hello_bands/w0/t0/outdata/out_GSR.nc -->
<g id="node44" class="node">
<title>/tmp/hello_bands/w0/t0/outdata/out_GSR.nc</title>
<polygon fill="#b2dfee" stroke="#b2dfee" points="7.22,-387.9 7.22,-423.9 62.56,-423.9 62.56,-387.9 7.22,-387.9"/>
<text text-anchor="middle" x="34.89" y="-403.5" font-family="Times,serif" font-size="8.00">out_GSR.nc</text>
</g>
<!-- /tmp/hello_bands/w0/t0/outdata/out_EIG -->
<g id="node45" class="node">
<title>/tmp/hello_bands/w0/t0/outdata/out_EIG</title>
<polygon fill="#b2dfee" stroke="#b2dfee" points="157.89,-537.9 157.89,-573.9 211.89,-573.9 211.89,-537.9 157.89,-537.9"/>
<text text-anchor="middle" x="184.66" y="-553.5" font-family="Times,serif" font-size="8.00">out_EIG</text>
</g>
<!-- /tmp/hello_bands/w0/t0/outdata/out_DEN -->
<g id="node46" class="node">
<title>/tmp/hello_bands/w0/t0/outdata/out_DEN</title>
<polygon fill="#b2dfee" stroke="#b2dfee" points="92.89,-542.9 92.89,-578.9 146.89,-578.9 146.89,-542.9 92.89,-542.9"/>
<text text-anchor="middle" x="119.72" y="-558.5" font-family="Times,serif" font-size="8.00">out_DEN</text>
</g>
<!-- /tmp/hello_bands/w0/t0/outdata/out_OUT.nc -->
<g id="node47" class="node">
<title>/tmp/hello_bands/w0/t0/outdata/out_OUT.nc</title>
<polygon fill="#b2dfee" stroke="#b2dfee" points="28.07,-542.9 28.07,-578.9 83.7,-578.9 83.7,-542.9 28.07,-542.9"/>
<text text-anchor="middle" x="55.89" y="-558.5" font-family="Times,serif" font-size="8.00">out_OUT.nc</text>
</g>
<!-- __0:cluster_/tmp/hello_bands/w0 -->
<!-- __1:cluster_/tmp/hello_bands/w0/tmpdata -->
<!-- __0:cluster_/tmp/hello_bands/w0&#45;&gt;__1:cluster_/tmp/hello_bands/w0/tmpdata -->
<g id="edge13" class="edge">
<title>__0:cluster_/tmp/hello_bands/w0&#45;&gt;__1:cluster_/tmp/hello_bands/w0/tmpdata</title>
<path fill="none" stroke="black" d="M263.71,-652C270.03,-666.02 278.73,-685.3 285.87,-701.12"/>
<polygon fill="black" stroke="black" points="282.77,-702.77 290.08,-710.45 289.15,-699.89 282.77,-702.77"/>
</g>
<!-- __2:cluster_/tmp/hello_bands/w0 -->
<!-- __3:cluster_/tmp/hello_bands/w0/indata -->
<!-- __2:cluster_/tmp/hello_bands/w0&#45;&gt;__3:cluster_/tmp/hello_bands/w0/indata -->
<g id="edge14" class="edge">
<title>__2:cluster_/tmp/hello_bands/w0&#45;&gt;__3:cluster_/tmp/hello_bands/w0/indata</title>
<path fill="none" stroke="black" d="M238.9,-634.16C225.63,-635.18 206.37,-636.65 189.57,-637.93"/>
<polygon fill="black" stroke="black" points="189.22,-634.45 179.51,-638.7 189.75,-641.43 189.22,-634.45"/>
</g>
<!-- __4:cluster_/tmp/hello_bands/w0 -->
<!-- __5:cluster_/tmp/hello_bands/w0/outdata -->
<!-- __4:cluster_/tmp/hello_bands/w0&#45;&gt;__5:cluster_/tmp/hello_bands/w0/outdata -->
<g id="edge15" class="edge">
<title>__4:cluster_/tmp/hello_bands/w0&#45;&gt;__5:cluster_/tmp/hello_bands/w0/outdata</title>
<path fill="none" stroke="black" d="M243.96,-652.2C236.65,-664.86 226.97,-681.62 218.8,-695.74"/>
<polygon fill="black" stroke="black" points="215.67,-694.17 213.7,-704.58 221.73,-697.67 215.67,-694.17"/>
</g>
<!-- __6:cluster_/tmp/hello_bands/w0 -->
<!-- __7:cluster_/tmp/hello_bands/w0/t1 -->
<!-- __6:cluster_/tmp/hello_bands/w0&#45;&gt;__7:cluster_/tmp/hello_bands/w0/t1 -->
<g id="edge16" class="edge">
<title>__6:cluster_/tmp/hello_bands/w0&#45;&gt;__7:cluster_/tmp/hello_bands/w0/t1</title>
<path fill="none" stroke="black" d="M261.31,-613.57C269.25,-588.81 283.71,-543.72 298.19,-498.59"/>
<polygon fill="black" stroke="black" points="301.55,-499.56 301.27,-488.96 294.89,-497.42 301.55,-499.56"/>
</g>
<!-- __8:cluster_/tmp/hello_bands/w0 -->
<!-- __9:cluster_/tmp/hello_bands/w0/t0 -->
<!-- __8:cluster_/tmp/hello_bands/w0&#45;&gt;__9:cluster_/tmp/hello_bands/w0/t0 -->
<g id="edge17" class="edge">
<title>__8:cluster_/tmp/hello_bands/w0&#45;&gt;__9:cluster_/tmp/hello_bands/w0/t0</title>
<path fill="none" stroke="black" d="M271.47,-632.63C293.02,-632.25 332.89,-631.54 372.95,-630.82"/>
<polygon fill="black" stroke="black" points="373.19,-634.32 383.13,-630.64 373.07,-627.32 373.19,-634.32"/>
</g>
<!-- __10:cluster_/tmp/hello_bands/w0/t1 -->
<!-- __11:cluster_/tmp/hello_bands/w0/t1/tmpdata -->
<!-- __10:cluster_/tmp/hello_bands/w0/t1&#45;&gt;__11:cluster_/tmp/hello_bands/w0/t1/tmpdata -->
<g id="edge18" class="edge">
<title>__10:cluster_/tmp/hello_bands/w0/t1&#45;&gt;__11:cluster_/tmp/hello_bands/w0/t1/tmpdata</title>
<path fill="none" stroke="black" d="M250.44,-238.55C234.94,-217.22 220.29,-197.06 209.21,-181.81"/>
<polygon fill="black" stroke="black" points="211.83,-179.46 203.12,-173.42 206.16,-183.57 211.83,-179.46"/>
</g>
<!-- __12:cluster_/tmp/hello_bands/w0/t1 -->
<!-- __13:cluster_/tmp/hello_bands/w0/t1/indata -->
<!-- __12:cluster_/tmp/hello_bands/w0/t1&#45;&gt;__13:cluster_/tmp/hello_bands/w0/t1/indata -->
<g id="edge19" class="edge">
<title>__12:cluster_/tmp/hello_bands/w0/t1&#45;&gt;__13:cluster_/tmp/hello_bands/w0/t1/indata</title>
<path fill="none" stroke="black" d="M451.67,-377.52C498.78,-383.39 551.18,-389.93 587.48,-394.46"/>
<polygon fill="black" stroke="black" points="587.39,-397.97 597.75,-395.74 588.26,-391.03 587.39,-397.97"/>
</g>
<!-- __14:cluster_/tmp/hello_bands/w0/t1 -->
<!-- __15:cluster_/tmp/hello_bands/w0/t1/outdata -->
<!-- __14:cluster_/tmp/hello_bands/w0/t1&#45;&gt;__15:cluster_/tmp/hello_bands/w0/t1/outdata -->
<g id="edge20" class="edge">
<title>__14:cluster_/tmp/hello_bands/w0/t1&#45;&gt;__15:cluster_/tmp/hello_bands/w0/t1/outdata</title>
<path fill="none" stroke="black" d="M371.23,-238.58C371.25,-238.49 371.27,-238.4 371.29,-238.31"/>
<polygon fill="black" stroke="black" points="374.39,-240.41 373.3,-229.87 367.58,-238.79 374.39,-240.41"/>
</g>
<!-- __16:cluster_/tmp/hello_bands/w0/t0 -->
<!-- __17:cluster_/tmp/hello_bands/w0/t0/tmpdata -->
<!-- __16:cluster_/tmp/hello_bands/w0/t0&#45;&gt;__17:cluster_/tmp/hello_bands/w0/t0/tmpdata -->
<g id="edge21" class="edge">
<title>__16:cluster_/tmp/hello_bands/w0/t0&#45;&gt;__17:cluster_/tmp/hello_bands/w0/t0/tmpdata</title>
<path fill="none" stroke="black" d="M521.66,-503.57C530.01,-466.85 538.38,-430.01 543.96,-405.47"/>
<polygon fill="black" stroke="black" points="547.44,-405.95 546.24,-395.42 540.61,-404.4 547.44,-405.95"/>
</g>
<!-- __18:cluster_/tmp/hello_bands/w0/t0 -->
<!-- __19:cluster_/tmp/hello_bands/w0/t0/indata -->
<!-- __18:cluster_/tmp/hello_bands/w0/t0&#45;&gt;__19:cluster_/tmp/hello_bands/w0/t0/indata -->
<g id="edge22" class="edge">
<title>__18:cluster_/tmp/hello_bands/w0/t0&#45;&gt;__19:cluster_/tmp/hello_bands/w0/t0/indata</title>
<path fill="none" stroke="black" d="M603.27,-738.09C619.09,-753.82 634.03,-768.67 645.96,-780.53"/>
<polygon fill="black" stroke="black" points="643.78,-783.31 653.34,-787.87 648.72,-778.34 643.78,-783.31"/>
</g>
<!-- __20:cluster_/tmp/hello_bands/w0/t0 -->
<!-- __21:cluster_/tmp/hello_bands/w0/t0/outdata -->
<!-- __20:cluster_/tmp/hello_bands/w0/t0&#45;&gt;__21:cluster_/tmp/hello_bands/w0/t0/outdata -->
<g id="edge23" class="edge">
<title>__20:cluster_/tmp/hello_bands/w0/t0&#45;&gt;__21:cluster_/tmp/hello_bands/w0/t0/outdata</title>
<path fill="none" stroke="black" d="M383.05,-590.07C335.01,-573.23 278.57,-553.45 229.49,-536.25"/>
<polygon fill="black" stroke="black" points="230.37,-532.85 219.77,-532.85 228.05,-539.46 230.37,-532.85"/>
</g>
</g>
</svg>
