<?xml version="1.0" encoding="UTF-8" standalone="no"?>
<!DOCTYPE svg PUBLIC "-//W3C//DTD SVG 1.1//EN"
 "http://www.w3.org/Graphics/SVG/1.1/DTD/svg11.dtd">
<!-- Generated by graphviz version 2.42.3 (20191010.1750)
 -->
<!-- Title: flow Pages: 1 -->
<svg width="273pt" height="104pt"
 viewBox="0.00 0.00 272.99 104.00" xmlns="http://www.w3.org/2000/svg" xmlns:xlink="http://www.w3.org/1999/xlink">
<g id="graph0" class="graph" transform="scale(1 1) rotate(0) translate(12.49 78)">
<title>flow</title>
<polygon fill="white" stroke="transparent" points="-12.49,26 -12.49,-78 260.49,-78 260.49,26 -12.49,26"/>
<text text-anchor="start" x="-0.49" y="15.2" font-family="Times,serif" font-size="14.00">Flow, node_id=443353, workdir=hello_flow</text>
<g id="clust1" class="cluster">
<title>clusterw0</title>
<path fill="#e0eeee" stroke="black" d="M98.24,0.36C98.24,0.36 150.24,0.36 150.24,0.36 156.24,0.36 162.24,-5.64 162.24,-11.64 162.24,-11.64 162.24,-61.64 162.24,-61.64 162.24,-67.64 156.24,-73.64 150.24,-73.64 150.24,-73.64 98.24,-73.64 98.24,-73.64 92.24,-73.64 86.24,-67.64 86.24,-61.64 86.24,-61.64 86.24,-11.64 86.24,-11.64 86.24,-5.64 92.24,0.36 98.24,0.36"/>
<text text-anchor="middle" x="124.24" y="-58.44" font-family="Times,serif" font-size="14.00">Work (w0)</text>
</g>
<!-- w0_t0 -->
<g id="node1" class="node">
<title>w0_t0</title>
<ellipse fill="#ff0000" stroke="#ff0000" cx="124.48" cy="-25.28" rx="27.89" ry="18"/>
<text text-anchor="middle" x="124.48" y="-26.88" font-family="Times,serif" font-size="8.00">w0_t0</text>
<text text-anchor="middle" x="124.48" y="-18.88" font-family="Times,serif" font-size="8.00">ScfTask</text>
</g>
</g>
</svg>
