<?xml version="1.0" encoding="UTF-8" standalone="no"?>
<!DOCTYPE svg PUBLIC "-//W3C//DTD SVG 1.1//EN"
 "http://www.w3.org/Graphics/SVG/1.1/DTD/svg11.dtd">
<!-- Generated by graphviz version 2.42.3 (20191010.1750)
 -->
<!-- Title: flow Pages: 1 -->
<svg width="351pt" height="170pt"
 viewBox="0.00 0.00 351.46 170.00" xmlns="http://www.w3.org/2000/svg" xmlns:xlink="http://www.w3.org/1999/xlink">
<g id="graph0" class="graph" transform="scale(1 1) rotate(0) translate(4 166)">
<title>flow</title>
<polygon fill="white" stroke="transparent" points="-4,4 -4,-166 347.46,-166 347.46,4 -4,4"/>
<text text-anchor="start" x="47.24" y="-6.8" font-family="Times,serif" font-size="14.00">Flow, node_id=442182, workdir=hello_flow</text>
<g id="clust1" class="cluster">
<title>clusterw0</title>
<path fill="#e0eeee" stroke="black" d="M20,-30C20,-30 323.46,-30 323.46,-30 329.46,-30 335.46,-36 335.46,-42 335.46,-42 335.46,-142 335.46,-142 335.46,-148 329.46,-154 323.46,-154 323.46,-154 20,-154 20,-154 14,-154 8,-148 8,-142 8,-142 8,-42 8,-42 8,-36 14,-30 20,-30"/>
<text text-anchor="middle" x="171.73" y="-138.8" font-family="Times,serif" font-size="14.00">Work (w0)</text>
</g>
<!-- w0_t0 -->
<g id="node1" class="node">
<title>w0_t0</title>
<ellipse fill="#ff0000" stroke="#ff0000" cx="43.94" cy="-89" rx="27.89" ry="18"/>
<text text-anchor="middle" x="43.94" y="-90.6" font-family="Times,serif" font-size="8.00">w0_t0</text>
<text text-anchor="middle" x="43.94" y="-82.6" font-family="Times,serif" font-size="8.00">ScfTask</text>
</g>
<!-- w0_t1 -->
<g id="node2" class="node">
<title>w0_t1</title>
<ellipse fill="#c85064" stroke="#c85064" cx="167.58" cy="-56" rx="30.85" ry="18"/>
<text text-anchor="middle" x="167.58" y="-57.6" font-family="Times,serif" font-size="8.00">w0_t1</text>
<text text-anchor="middle" x="167.58" y="-49.6" font-family="Times,serif" font-size="8.00">NscfTask</text>
</g>
<!-- w0_t0&#45;&gt;w0_t1 -->
<g id="edge1" class="edge">
<title>w0_t0&#45;&gt;w0_t1</title>
<path fill="none" stroke="#ff0000" d="M69.85,-82.24C87.02,-77.59 110.13,-71.32 129.46,-66.07"/>
<polygon fill="#ff0000" stroke="#ff0000" points="130.43,-69.43 139.17,-63.44 128.6,-62.68 130.43,-69.43"/>
<text text-anchor="middle" x="104.27" y="-78.8" font-family="Times,serif" font-size="14.00">DEN</text>
</g>
<!-- w0_t2 -->
<g id="node3" class="node">
<title>w0_t2</title>
<ellipse fill="#c85064" stroke="#c85064" cx="296.54" cy="-73" rx="30.85" ry="18"/>
<text text-anchor="middle" x="296.54" y="-74.6" font-family="Times,serif" font-size="8.00">w0_t2</text>
<text text-anchor="middle" x="296.54" y="-66.6" font-family="Times,serif" font-size="8.00">NscfTask</text>
</g>
<!-- w0_t0&#45;&gt;w0_t2 -->
<g id="edge2" class="edge">
<title>w0_t0&#45;&gt;w0_t2</title>
<path fill="none" stroke="#ff0000" d="M71.52,-92.45C77.55,-93.09 83.93,-93.67 89.89,-94 160.02,-97.89 178.18,-94.6 247.62,-84 251.05,-83.48 254.61,-82.84 258.16,-82.14"/>
<polygon fill="#ff0000" stroke="#ff0000" points="258.99,-85.54 268.05,-80.04 257.54,-78.69 258.99,-85.54"/>
<text text-anchor="middle" x="167.58" y="-97.8" font-family="Times,serif" font-size="14.00">DEN</text>
</g>
<!-- w0_t1&#45;&gt;w0_t2 -->
<g id="edge3" class="edge">
<title>w0_t1&#45;&gt;w0_t2</title>
<path fill="none" stroke="#c85064" d="M198.03,-59.94C215.33,-62.26 237.43,-65.22 256.21,-67.73"/>
<polygon fill="#c85064" stroke="#c85064" points="255.88,-71.22 266.25,-69.08 256.81,-64.28 255.88,-71.22"/>
<text text-anchor="middle" x="232.06" y="-68.8" font-family="Times,serif" font-size="14.00">WFK</text>
</g>
</g>
</svg>
