<?xml version="1.0" encoding="UTF-8" standalone="no"?>
<!DOCTYPE svg PUBLIC "-//W3C//DTD SVG 1.1//EN"
 "http://www.w3.org/Graphics/SVG/1.1/DTD/svg11.dtd">
<!-- Generated by graphviz version 2.42.3 (20191010.1750)
 -->
<!-- Title: flow Pages: 1 -->
<svg width="506pt" height="281pt"
 viewBox="0.00 0.00 506.00 281.00" xmlns="http://www.w3.org/2000/svg" xmlns:xlink="http://www.w3.org/1999/xlink">
<g id="graph0" class="graph" transform="scale(1 1) rotate(0) translate(4 255)">
<title>flow</title>
<polygon fill="white" stroke="transparent" points="-4,26 -4,-255 502,-255 502,26 -4,26"/>
<text text-anchor="start" x="135" y="15.2" font-family="Times,serif" font-size="14.00">Flow, node_id=442197, workdir=phflow</text>
<g id="clust1" class="cluster">
<title>clusterw0</title>
<path fill="#e0eeee" stroke="black" d="M12.48,-151.02C12.48,-151.02 145.48,-151.02 145.48,-151.02 151.48,-151.02 157.48,-157.02 157.48,-163.02 157.48,-163.02 157.48,-239.02 157.48,-239.02 157.48,-245.02 151.48,-251.02 145.48,-251.02 145.48,-251.02 12.48,-251.02 12.48,-251.02 6.48,-251.02 0.48,-245.02 0.48,-239.02 0.48,-239.02 0.48,-163.02 0.48,-163.02 0.48,-157.02 6.48,-151.02 12.48,-151.02"/>
<text text-anchor="middle" x="78.98" y="-235.82" font-family="Times,serif" font-size="14.00">BandStructureWork (w0)</text>
</g>
<g id="clust2" class="cluster">
<title>clusterw1</title>
<path fill="#e0eeee" stroke="black" d="M287.84,-50.17C287.84,-50.17 485.84,-50.17 485.84,-50.17 491.84,-50.17 497.84,-56.17 497.84,-62.17 497.84,-62.17 497.84,-208.17 497.84,-208.17 497.84,-214.17 491.84,-220.17 485.84,-220.17 485.84,-220.17 287.84,-220.17 287.84,-220.17 281.84,-220.17 275.84,-214.17 275.84,-208.17 275.84,-208.17 275.84,-62.17 275.84,-62.17 275.84,-56.17 281.84,-50.17 287.84,-50.17"/>
<text text-anchor="middle" x="386.84" y="-204.97" font-family="Times,serif" font-size="14.00">PhononWork (w1)</text>
</g>
<g id="clust3" class="cluster">
<title>clusterw2</title>
<path fill="#e0eeee" stroke="black" d="M110.83,0.33C110.83,0.33 238.83,0.33 238.83,0.33 244.83,0.33 250.83,-5.67 250.83,-11.67 250.83,-11.67 250.83,-107.67 250.83,-107.67 250.83,-113.67 244.83,-119.67 238.83,-119.67 238.83,-119.67 110.83,-119.67 110.83,-119.67 104.83,-119.67 98.83,-113.67 98.83,-107.67 98.83,-107.67 98.83,-11.67 98.83,-11.67 98.83,-5.67 104.83,0.33 110.83,0.33"/>
<text text-anchor="middle" x="174.83" y="-104.47" font-family="Times,serif" font-size="14.00">Work (w2)</text>
</g>
<!-- w0_t0 -->
<g id="node1" class="node">
<title>w0_t0</title>
<ellipse fill="#ff0000" stroke="#ff0000" cx="42.8" cy="-203.14" rx="27.89" ry="18"/>
<text text-anchor="middle" x="42.8" y="-204.74" font-family="Times,serif" font-size="8.00">w0_t0</text>
<text text-anchor="middle" x="42.8" y="-196.74" font-family="Times,serif" font-size="8.00">ScfTask</text>
</g>
<!-- w0_t1 -->
<g id="node2" class="node">
<title>w0_t1</title>
<ellipse fill="#c85064" stroke="#c85064" cx="112.75" cy="-177.07" rx="30.85" ry="18"/>
<text text-anchor="middle" x="112.75" y="-178.67" font-family="Times,serif" font-size="8.00">w0_t1</text>
<text text-anchor="middle" x="112.75" y="-170.67" font-family="Times,serif" font-size="8.00">NscfTask</text>
</g>
<!-- w0_t0&#45;&gt;w0_t1 -->
<g id="edge1" class="edge">
<title>w0_t0&#45;&gt;w0_t1</title>
<path fill="none" stroke="#ff0000" d="M67.26,-194.02C70.33,-192.88 73.53,-191.69 76.73,-190.5"/>
<polygon fill="#ff0000" stroke="#ff0000" points="78.12,-193.71 86.27,-186.94 75.68,-187.15 78.12,-193.71"/>
<text text-anchor="middle" x="86.38" y="-195.06" font-family="Times,serif" font-size="14.00">DEN</text>
</g>
<!-- w1_t0 -->
<g id="node3" class="node">
<title>w1_t0</title>
<ellipse fill="#0096fa" stroke="#0096fa" cx="411.67" cy="-76.6" rx="37.38" ry="18"/>
<text text-anchor="middle" x="411.67" y="-78.2" font-family="Times,serif" font-size="8.00">w1_t0</text>
<text text-anchor="middle" x="411.67" y="-70.2" font-family="Times,serif" font-size="8.00">PhononTask</text>
</g>
<!-- w0_t0&#45;&gt;w1_t0 -->
<g id="edge2" class="edge">
<title>w0_t0&#45;&gt;w1_t0</title>
<path fill="none" stroke="#ff0000" d="M67.57,-194.64C130.1,-173.19 294.79,-116.7 371.4,-90.42"/>
<polygon fill="#ff0000" stroke="#ff0000" points="372.85,-93.62 381.17,-87.06 370.58,-87 372.85,-93.62"/>
<text text-anchor="middle" x="203.93" y="-131.33" font-family="Times,serif" font-size="14.00">WFK</text>
</g>
<!-- w1_t1 -->
<g id="node4" class="node">
<title>w1_t1</title>
<ellipse fill="#0096fa" stroke="#0096fa" cx="452.2" cy="-129.04" rx="37.38" ry="18"/>
<text text-anchor="middle" x="452.2" y="-130.64" font-family="Times,serif" font-size="8.00">w1_t1</text>
<text text-anchor="middle" x="452.2" y="-122.64" font-family="Times,serif" font-size="8.00">PhononTask</text>
</g>
<!-- w0_t0&#45;&gt;w1_t1 -->
<g id="edge3" class="edge">
<title>w0_t0&#45;&gt;w1_t1</title>
<path fill="none" stroke="#ff0000" d="M69.97,-198.22C139.05,-185.72 321.88,-152.63 407.19,-137.19"/>
<polygon fill="#ff0000" stroke="#ff0000" points="407.87,-140.62 417.09,-135.4 406.63,-133.73 407.87,-140.62"/>
<text text-anchor="middle" x="254.13" y="-170.51" font-family="Times,serif" font-size="14.00">WFK</text>
</g>
<!-- w1_t2 -->
<g id="node5" class="node">
<title>w1_t2</title>
<ellipse fill="#0096fa" stroke="#0096fa" cx="321.36" cy="-107" rx="37.38" ry="18"/>
<text text-anchor="middle" x="321.36" y="-108.6" font-family="Times,serif" font-size="8.00">w1_t2</text>
<text text-anchor="middle" x="321.36" y="-100.6" font-family="Times,serif" font-size="8.00">PhononTask</text>
</g>
<!-- w0_t0&#45;&gt;w1_t2 -->
<g id="edge4" class="edge">
<title>w0_t0&#45;&gt;w1_t2</title>
<path fill="none" stroke="#ff0000" d="M67.52,-194.61C115.72,-177.97 222.68,-141.06 281.2,-120.86"/>
<polygon fill="#ff0000" stroke="#ff0000" points="282.54,-124.1 290.85,-117.53 280.25,-117.49 282.54,-124.1"/>
<text text-anchor="middle" x="158.8" y="-160.54" font-family="Times,serif" font-size="14.00">WFK</text>
</g>
<!-- w1_t3 -->
<g id="node6" class="node">
<title>w1_t3</title>
<ellipse fill="#0096fa" stroke="#0096fa" cx="368.19" cy="-172" rx="37.38" ry="18"/>
<text text-anchor="middle" x="368.19" y="-173.6" font-family="Times,serif" font-size="8.00">w1_t3</text>
<text text-anchor="middle" x="368.19" y="-165.6" font-family="Times,serif" font-size="8.00">PhononTask</text>
</g>
<!-- w0_t0&#45;&gt;w1_t3 -->
<g id="edge5" class="edge">
<title>w0_t0&#45;&gt;w1_t3</title>
<path fill="none" stroke="#ff0000" d="M70.54,-200.49C126.31,-195.15 252.54,-183.07 321.34,-176.49"/>
<polygon fill="#ff0000" stroke="#ff0000" points="321.84,-179.96 331.46,-175.52 321.18,-172.99 321.84,-179.96"/>
<text text-anchor="middle" x="180.38" y="-191.29" font-family="Times,serif" font-size="14.00">WFK</text>
</g>
<!-- w2_t0 -->
<g id="node7" class="node">
<title>w2_t0</title>
<ellipse fill="#ff8000" stroke="#ff8000" cx="136.43" cy="-26.41" rx="29.37" ry="18"/>
<text text-anchor="middle" x="136.43" y="-28.01" font-family="Times,serif" font-size="8.00">w2_t0</text>
<text text-anchor="middle" x="136.43" y="-20.01" font-family="Times,serif" font-size="8.00">EphTask</text>
</g>
<!-- w0_t1&#45;&gt;w2_t0 -->
<g id="edge6" class="edge">
<title>w0_t1&#45;&gt;w2_t0</title>
<path fill="none" stroke="#c85064" d="M115.6,-158.9C119.68,-132.99 127.19,-85.22 131.99,-54.67"/>
<polygon fill="#c85064" stroke="#c85064" points="135.47,-55.07 133.57,-44.65 128.56,-53.98 135.47,-55.07"/>
<text text-anchor="middle" x="108.24" y="-109.58" font-family="Times,serif" font-size="14.00">WFK</text>
</g>
<!-- w2_t1 -->
<g id="node8" class="node">
<title>w2_t1</title>
<ellipse fill="#ff8000" stroke="#ff8000" cx="213.79" cy="-25.22" rx="29.37" ry="18"/>
<text text-anchor="middle" x="213.79" y="-26.82" font-family="Times,serif" font-size="8.00">w2_t1</text>
<text text-anchor="middle" x="213.79" y="-18.82" font-family="Times,serif" font-size="8.00">EphTask</text>
</g>
<!-- w0_t1&#45;&gt;w2_t1 -->
<g id="edge7" class="edge">
<title>w0_t1&#45;&gt;w2_t1</title>
<path fill="none" stroke="#c85064" d="M123.95,-160.24C141.62,-133.67 176.11,-81.85 196.84,-50.7"/>
<polygon fill="#c85064" stroke="#c85064" points="199.92,-52.39 202.54,-42.13 194.09,-48.51 199.92,-52.39"/>
<text text-anchor="middle" x="144.84" y="-94.27" font-family="Times,serif" font-size="14.00">WFK</text>
</g>
<!-- w2_t2 -->
<g id="node9" class="node">
<title>w2_t2</title>
<ellipse fill="#ff8000" stroke="#ff8000" cx="171.17" cy="-71.54" rx="29.37" ry="18"/>
<text text-anchor="middle" x="171.17" y="-73.14" font-family="Times,serif" font-size="8.00">w2_t2</text>
<text text-anchor="middle" x="171.17" y="-65.14" font-family="Times,serif" font-size="8.00">EphTask</text>
</g>
<!-- w0_t1&#45;&gt;w2_t2 -->
<g id="edge8" class="edge">
<title>w0_t1&#45;&gt;w2_t2</title>
<path fill="none" stroke="#c85064" d="M122.39,-159.64C131.75,-142.74 146.07,-116.88 156.77,-97.54"/>
<polygon fill="#c85064" stroke="#c85064" points="159.92,-99.09 161.7,-88.64 153.79,-95.7 159.92,-99.09"/>
<text text-anchor="middle" x="124.03" y="-131.39" font-family="Times,serif" font-size="14.00">WFK</text>
</g>
<!-- DDB (w1) -->
<g id="node10" class="node">
<title>DDB (w1)</title>
<ellipse fill="#b2dfee" stroke="#b2dfee" cx="217.28" cy="-161.07" rx="47.88" ry="18"/>
<text text-anchor="middle" x="217.28" y="-156.87" font-family="Times,serif" font-size="14.00">DDB (w1)</text>
</g>
<!-- DDB (w1)&#45;&gt;w2_t0 -->
<g id="edge9" class="edge">
<title>DDB (w1)&#45;&gt;w2_t0</title>
<path fill="none" stroke="black" d="M206.71,-143.47C192.78,-120.26 168.14,-79.22 152.05,-52.43"/>
<polygon fill="black" stroke="black" points="154.9,-50.36 146.75,-43.59 148.9,-53.97 154.9,-50.36"/>
</g>
<!-- DDB (w1)&#45;&gt;w2_t1 -->
<g id="edge13" class="edge">
<title>DDB (w1)&#45;&gt;w2_t1</title>
<path fill="none" stroke="black" d="M216.82,-143.03C216.23,-120.2 215.22,-80.59 214.52,-53.66"/>
<polygon fill="black" stroke="black" points="218.01,-53.24 214.26,-43.33 211.02,-53.42 218.01,-53.24"/>
</g>
<!-- DDB (w1)&#45;&gt;w2_t2 -->
<g id="edge15" class="edge">
<title>DDB (w1)&#45;&gt;w2_t2</title>
<path fill="none" stroke="black" d="M208.17,-143.39C201.5,-130.43 192.32,-112.62 184.78,-97.97"/>
<polygon fill="black" stroke="black" points="187.79,-96.17 180.1,-88.89 181.57,-99.38 187.79,-96.17"/>
</g>
<!-- DVDB (w1) -->
<g id="node12" class="node">
<title>DVDB (w1)</title>
<ellipse fill="#b2dfee" stroke="#b2dfee" cx="383.09" cy="-21.37" rx="54.15" ry="18"/>
<text text-anchor="middle" x="383.09" y="-17.17" font-family="Times,serif" font-size="14.00">DVDB (w1)</text>
</g>
<!-- DVDB (w1)&#45;&gt;w2_t0 -->
<g id="edge11" class="edge">
<title>DVDB (w1)&#45;&gt;w2_t0</title>
<path fill="none" stroke="black" d="M328.96,-22.47C282.91,-23.41 217.83,-24.74 176.38,-25.59"/>
<polygon fill="black" stroke="black" points="176.05,-22.1 166.12,-25.8 176.19,-29.1 176.05,-22.1"/>
</g>
<!-- DVDB (w1)&#45;&gt;w2_t1 -->
<g id="edge14" class="edge">
<title>DVDB (w1)&#45;&gt;w2_t1</title>
<path fill="none" stroke="black" d="M329.06,-22.6C304.5,-23.15 275.96,-23.8 253.43,-24.32"/>
<polygon fill="black" stroke="black" points="253.13,-20.82 243.21,-24.55 253.29,-27.82 253.13,-20.82"/>
</g>
<!-- DVDB (w1)&#45;&gt;w2_t2 -->
<g id="edge16" class="edge">
<title>DVDB (w1)&#45;&gt;w2_t2</title>
<path fill="none" stroke="black" d="M338.92,-31.82C300.33,-40.96 244.94,-54.07 208.52,-62.7"/>
<polygon fill="black" stroke="black" points="207.71,-59.29 198.78,-65 209.32,-66.1 207.71,-59.29"/>
</g>
<!-- __0:clusterw1 -->
<!-- __0:clusterw1&#45;&gt;DDB (w1) -->
<g id="edge17" class="edge">
<title>__0:clusterw1&#45;&gt;DDB (w1)</title>
<path fill="none" stroke="#696969" d="M275.63,-152.16C274.26,-152.37 272.91,-152.58 271.56,-152.78"/>
<polygon fill="#696969" stroke="#696969" points="270.85,-149.35 261.49,-154.32 271.9,-156.27 270.85,-149.35"/>
</g>
<!-- __1:clusterw1 -->
<!-- __1:clusterw1&#45;&gt;DVDB (w1) -->
<g id="edge18" class="edge">
<title>__1:clusterw1&#45;&gt;DVDB (w1)</title>
<path fill="none" stroke="#696969" d="M384.04,-50.08C384.03,-49.97 384.03,-49.85 384.02,-49.73"/>
<polygon fill="#696969" stroke="#696969" points="387.52,-49.51 383.69,-39.63 380.52,-49.74 387.52,-49.51"/>
</g>
</g>
</svg>
