<?xml version="1.0" encoding="UTF-8" standalone="no"?>
<!DOCTYPE svg PUBLIC "-//W3C//DTD SVG 1.1//EN"
 "http://www.w3.org/Graphics/SVG/1.1/DTD/svg11.dtd">
<!-- Generated by graphviz version 2.42.3 (20191010.1750)
 -->
<!-- Title: flow Pages: 1 -->
<svg width="435pt" height="120pt"
 viewBox="0.00 0.00 434.76 120.00" xmlns="http://www.w3.org/2000/svg" xmlns:xlink="http://www.w3.org/1999/xlink">
<g id="graph0" class="graph" transform="scale(1 1) rotate(0) translate(4 116)">
<title>flow</title>
<polygon fill="white" stroke="transparent" points="-4,4 -4,-116 430.76,-116 430.76,4 -4,4"/>
<text text-anchor="start" x="77.99" y="-6.8" font-family="Times,serif" font-size="14.00">Flow, node_id=443358, workdir=flow_with_file</text>
<g id="clust1" class="cluster">
<title>clusterw0</title>
<path fill="#e0eeee" stroke="black" d="M352.91,-30C352.91,-30 406.76,-30 406.76,-30 412.76,-30 418.76,-36 418.76,-42 418.76,-42 418.76,-92 418.76,-92 418.76,-98 412.76,-104 406.76,-104 406.76,-104 352.91,-104 352.91,-104 346.91,-104 340.91,-98 340.91,-92 340.91,-92 340.91,-42 340.91,-42 340.91,-36 346.91,-30 352.91,-30"/>
<text text-anchor="middle" x="379.84" y="-88.8" font-family="Times,serif" font-size="14.00">Work (w0)</text>
</g>
<!-- w0_t0 -->
<g id="node1" class="node">
<title>w0_t0</title>
<ellipse fill="#c85064" stroke="#c85064" cx="379.84" cy="-56" rx="30.85" ry="18"/>
<text text-anchor="middle" x="379.84" y="-57.6" font-family="Times,serif" font-size="8.00">w0_t0</text>
<text text-anchor="middle" x="379.84" y="-49.6" font-family="Times,serif" font-size="8.00">NscfTask</text>
</g>
<!-- /Users/gmatteo/git_repos/abipy/abipy/data/refs/si_ebands/si_DEN.nc -->
<g id="node2" class="node">
<title>/Users/gmatteo/git_repos/abipy/abipy/data/refs/si_ebands/si_DEN.nc</title>
<ellipse fill="#6633ff" stroke="#6633ff" cx="156.46" cy="-56" rx="156.41" ry="18"/>
<text text-anchor="start" x="24.3" y="-53.6" font-family="Times,serif" font-size="8.00">FileNode, node_id=443361, rpath=../../abipy/abipy/data/refs/si_ebands/si_DEN.nc</text>
</g>
<!-- /Users/gmatteo/git_repos/abipy/abipy/data/refs/si_ebands/si_DEN.nc&#45;&gt;w0_t0 -->
<g id="edge1" class="edge">
<title>/Users/gmatteo/git_repos/abipy/abipy/data/refs/si_ebands/si_DEN.nc&#45;&gt;w0_t0</title>
<path fill="none" stroke="#6633ff" d="M313.01,-56C322.14,-56 330.77,-56 338.6,-56"/>
<polygon fill="#6633ff" stroke="#6633ff" points="338.74,-59.5 348.74,-56 338.74,-52.5 338.74,-59.5"/>
</g>
</g>
</svg>
