<?xml version="1.0" encoding="UTF-8" standalone="no"?>
<!DOCTYPE svg PUBLIC "-//W3C//DTD SVG 1.1//EN"
 "http://www.w3.org/Graphics/SVG/1.1/DTD/svg11.dtd">
<!-- Generated by graphviz version 2.42.3 (20191010.1750)
 -->
<!-- Title: flow Pages: 1 -->
<svg width="273pt" height="120pt"
 viewBox="0.00 0.00 272.99 120.00" xmlns="http://www.w3.org/2000/svg" xmlns:xlink="http://www.w3.org/1999/xlink">
<g id="graph0" class="graph" transform="scale(1 1) rotate(0) translate(4 116)">
<title>flow</title>
<polygon fill="white" stroke="transparent" points="-4,4 -4,-116 268.99,-116 268.99,4 -4,4"/>
<text text-anchor="start" x="8" y="-6.8" font-family="Times,serif" font-size="14.00">Flow, node_id=442182, workdir=hello_flow</text>
<g id="clust1" class="cluster">
<title>clusterw0</title>
<path fill="#e0eeee" stroke="black" d="M45.24,-30C45.24,-30 219.75,-30 219.75,-30 225.75,-30 231.75,-36 231.75,-42 231.75,-42 231.75,-92 231.75,-92 231.75,-98 225.75,-104 219.75,-104 219.75,-104 45.24,-104 45.24,-104 39.24,-104 33.24,-98 33.24,-92 33.24,-92 33.24,-42 33.24,-42 33.24,-36 39.24,-30 45.24,-30"/>
<text text-anchor="middle" x="132.49" y="-88.8" font-family="Times,serif" font-size="14.00">Work (w0)</text>
</g>
<!-- w0_t0 -->
<g id="node1" class="node">
<title>w0_t0</title>
<ellipse fill="#ff0000" stroke="#ff0000" cx="69.18" cy="-56" rx="27.89" ry="18"/>
<text text-anchor="middle" x="69.18" y="-57.6" font-family="Times,serif" font-size="8.00">w0_t0</text>
<text text-anchor="middle" x="69.18" y="-49.6" font-family="Times,serif" font-size="8.00">ScfTask</text>
</g>
<!-- w0_t1 -->
<g id="node2" class="node">
<title>w0_t1</title>
<ellipse fill="#c85064" stroke="#c85064" cx="192.82" cy="-56" rx="30.85" ry="18"/>
<text text-anchor="middle" x="192.82" y="-57.6" font-family="Times,serif" font-size="8.00">w0_t1</text>
<text text-anchor="middle" x="192.82" y="-49.6" font-family="Times,serif" font-size="8.00">NscfTask</text>
</g>
<!-- w0_t0&#45;&gt;w0_t1 -->
<g id="edge1" class="edge">
<title>w0_t0&#45;&gt;w0_t1</title>
<path fill="none" stroke="#ff0000" d="M97.18,-56C113.09,-56 133.54,-56 151.35,-56"/>
<polygon fill="#ff0000" stroke="#ff0000" points="151.48,-59.5 161.48,-56 151.48,-52.5 151.48,-59.5"/>
<text text-anchor="middle" x="129.51" y="-58.8" font-family="Times,serif" font-size="14.00">DEN</text>
</g>
</g>
</svg>
