<?xml version="1.0" encoding="UTF-8" standalone="no"?>
<!DOCTYPE svg PUBLIC "-//W3C//DTD SVG 1.1//EN"
 "http://www.w3.org/Graphics/SVG/1.1/DTD/svg11.dtd">
<!-- Generated by graphviz version 2.42.3 (20191010.1750)
 -->
<!-- Title: flow Pages: 1 -->
<svg width="323pt" height="231pt"
 viewBox="0.00 0.00 323.00 231.00" xmlns="http://www.w3.org/2000/svg" xmlns:xlink="http://www.w3.org/1999/xlink">
<g id="graph0" class="graph" transform="scale(1 1) rotate(0) translate(4 205)">
<title>flow</title>
<polygon fill="white" stroke="transparent" points="-4,26 -4,-205 319,-205 319,26 -4,26"/>
<text text-anchor="start" x="22.11" y="15.2" font-family="Times,serif" font-size="14.00">Flow, node_id=438732, workdir=flow_with_file</text>
<g id="clust1" class="cluster">
<title>clusterw0</title>
<path fill="#e0eeee" stroke="black" d="M11.89,-126.49C11.89,-126.49 64.89,-126.49 64.89,-126.49 70.89,-126.49 76.89,-132.49 76.89,-138.49 76.89,-138.49 76.89,-188.49 76.89,-188.49 76.89,-194.49 70.89,-200.49 64.89,-200.49 64.89,-200.49 11.89,-200.49 11.89,-200.49 5.89,-200.49 -0.11,-194.49 -0.11,-188.49 -0.11,-188.49 -0.11,-138.49 -0.11,-138.49 -0.11,-132.49 5.89,-126.49 11.89,-126.49"/>
<text text-anchor="middle" x="38.39" y="-185.29" font-family="Times,serif" font-size="14.00">Work (w0)</text>
</g>
<g id="clust2" class="cluster">
<title>clusterw1</title>
<path fill="#e0eeee" stroke="black" d="M185.47,-126.56C185.47,-126.56 239.47,-126.56 239.47,-126.56 245.47,-126.56 251.47,-132.56 251.47,-138.56 251.47,-138.56 251.47,-188.56 251.47,-188.56 251.47,-194.56 245.47,-200.56 239.47,-200.56 239.47,-200.56 185.47,-200.56 185.47,-200.56 179.47,-200.56 173.47,-194.56 173.47,-188.56 173.47,-188.56 173.47,-138.56 173.47,-138.56 173.47,-132.56 179.47,-126.56 185.47,-126.56"/>
<text text-anchor="middle" x="212.47" y="-185.36" font-family="Times,serif" font-size="14.00">Work (w1)</text>
</g>
<g id="clust3" class="cluster">
<title>clusterw2</title>
<path fill="#e0eeee" stroke="black" d="M124.6,0.07C124.6,0.07 178.6,0.07 178.6,0.07 184.6,0.07 190.6,-5.93 190.6,-11.93 190.6,-11.93 190.6,-61.93 190.6,-61.93 190.6,-67.93 184.6,-73.93 178.6,-73.93 178.6,-73.93 124.6,-73.93 124.6,-73.93 118.6,-73.93 112.6,-67.93 112.6,-61.93 112.6,-61.93 112.6,-11.93 112.6,-11.93 112.6,-5.93 118.6,0.07 124.6,0.07"/>
<text text-anchor="middle" x="151.6" y="-58.73" font-family="Times,serif" font-size="14.00">Work (w2)</text>
</g>
<!-- w0_t0 -->
<g id="node1" class="node">
<title>w0_t0</title>
<ellipse fill="#c85064" stroke="#c85064" cx="38.44" cy="-152.73" rx="30.85" ry="18"/>
<text text-anchor="middle" x="38.44" y="-154.33" font-family="Times,serif" font-size="8.00">w0_t0</text>
<text text-anchor="middle" x="38.44" y="-146.33" font-family="Times,serif" font-size="8.00">NscfTask</text>
</g>
<!-- w1_t0 -->
<g id="node2" class="node">
<title>w1_t0</title>
<ellipse fill="#c85064" stroke="#c85064" cx="212.25" cy="-152.64" rx="30.85" ry="18"/>
<text text-anchor="middle" x="212.25" y="-154.24" font-family="Times,serif" font-size="8.00">w1_t0</text>
<text text-anchor="middle" x="212.25" y="-146.24" font-family="Times,serif" font-size="8.00">NscfTask</text>
</g>
<!-- w2_t0 -->
<g id="node3" class="node">
<title>w2_t0</title>
<ellipse fill="#c85064" stroke="#c85064" cx="151.18" cy="-26.08" rx="30.85" ry="18"/>
<text text-anchor="middle" x="151.18" y="-27.68" font-family="Times,serif" font-size="8.00">w2_t0</text>
<text text-anchor="middle" x="151.18" y="-19.68" font-family="Times,serif" font-size="8.00">NscfTask</text>
</g>
<!-- /Users/gmatteo/git_repos/abipy/abipy/data/refs/si_ebands/si_DEN.nc -->
<g id="node4" class="node">
<title>/Users/gmatteo/git_repos/abipy/abipy/data/refs/si_ebands/si_DEN.nc</title>
<ellipse fill="#6633ff" stroke="#6633ff" cx="158.37" cy="-100.27" rx="156.41" ry="18"/>
<text text-anchor="start" x="26.21" y="-97.87" font-family="Times,serif" font-size="8.00">FileNode, node_id=438735, rpath=../../abipy/abipy/data/refs/si_ebands/si_DEN.nc</text>
</g>
<!-- /Users/gmatteo/git_repos/abipy/abipy/data/refs/si_ebands/si_DEN.nc&#45;&gt;w0_t0 -->
<g id="edge1" class="edge">
<title>/Users/gmatteo/git_repos/abipy/abipy/data/refs/si_ebands/si_DEN.nc&#45;&gt;w0_t0</title>
<path fill="none" stroke="#6633ff" d="M118.43,-117.74C103.59,-124.23 86.91,-131.53 72.63,-137.78"/>
<polygon fill="#6633ff" stroke="#6633ff" points="70.94,-134.69 63.18,-141.91 73.75,-141.11 70.94,-134.69"/>
</g>
<!-- /Users/gmatteo/git_repos/abipy/abipy/data/refs/si_ebands/si_DEN.nc&#45;&gt;w1_t0 -->
<g id="edge2" class="edge">
<title>/Users/gmatteo/git_repos/abipy/abipy/data/refs/si_ebands/si_DEN.nc&#45;&gt;w1_t0</title>
<path fill="none" stroke="#6633ff" d="M176.91,-118.29C180.69,-121.97 184.72,-125.89 188.66,-129.71"/>
<polygon fill="#6633ff" stroke="#6633ff" points="186.4,-132.4 196.01,-136.86 191.28,-127.38 186.4,-132.4"/>
</g>
<!-- /Users/gmatteo/git_repos/abipy/abipy/data/refs/si_ebands/si_DEN.nc&#45;&gt;w2_t0 -->
<g id="edge3" class="edge">
<title>/Users/gmatteo/git_repos/abipy/abipy/data/refs/si_ebands/si_DEN.nc&#45;&gt;w2_t0</title>
<path fill="none" stroke="#6633ff" d="M156.59,-81.93C155.78,-73.58 154.8,-63.5 153.91,-54.22"/>
<polygon fill="#6633ff" stroke="#6633ff" points="157.38,-53.83 152.94,-44.21 150.42,-54.5 157.38,-53.83"/>
</g>
</g>
</svg>
