<?xml version="1.0" encoding="UTF-8" standalone="no"?>
<!DOCTYPE svg PUBLIC "-//W3C//DTD SVG 1.1//EN"
 "http://www.w3.org/Graphics/SVG/1.1/DTD/svg11.dtd">
<!-- Generated by graphviz version 2.42.3 (20191010.1750)
 -->
<!-- Title: flow Pages: 1 -->
<svg width="397pt" height="207pt"
 viewBox="0.00 0.00 397.00 207.00" xmlns="http://www.w3.org/2000/svg" xmlns:xlink="http://www.w3.org/1999/xlink">
<g id="graph0" class="graph" transform="scale(1 1) rotate(0) translate(4 181)">
<title>flow</title>
<polygon fill="white" stroke="transparent" points="-4,26 -4,-181 393,-181 393,26 -4,26"/>
<text text-anchor="start" x="80.5" y="15.2" font-family="Times,serif" font-size="14.00">Flow, node_id=443368, workdir=phflow</text>
<g id="clust1" class="cluster">
<title>clusterw0</title>
<path fill="#e0eeee" stroke="black" d="M12.43,-55.27C12.43,-55.27 145.43,-55.27 145.43,-55.27 151.43,-55.27 157.43,-61.27 157.43,-67.27 157.43,-67.27 157.43,-165.27 157.43,-165.27 157.43,-171.27 151.43,-177.27 145.43,-177.27 145.43,-177.27 12.43,-177.27 12.43,-177.27 6.43,-177.27 0.43,-171.27 0.43,-165.27 0.43,-165.27 0.43,-67.27 0.43,-67.27 0.43,-61.27 6.43,-55.27 12.43,-55.27"/>
<text text-anchor="middle" x="78.93" y="-162.07" font-family="Times,serif" font-size="14.00">BandStructureWork (w0)</text>
</g>
<g id="clust2" class="cluster">
<title>clusterw1</title>
<path fill="#e0eeee" stroke="black" d="M177.84,0.38C177.84,0.38 376.84,0.38 376.84,0.38 382.84,0.38 388.84,-5.62 388.84,-11.62 388.84,-11.62 388.84,-161.62 388.84,-161.62 388.84,-167.62 382.84,-173.62 376.84,-173.62 376.84,-173.62 177.84,-173.62 177.84,-173.62 171.84,-173.62 165.84,-167.62 165.84,-161.62 165.84,-161.62 165.84,-11.62 165.84,-11.62 165.84,-5.62 171.84,0.38 177.84,0.38"/>
<text text-anchor="middle" x="277.34" y="-158.42" font-family="Times,serif" font-size="14.00">PhononWork (w1)</text>
</g>
<!-- w0_t0 -->
<g id="node1" class="node">
<title>w0_t0</title>
<ellipse fill="#ff0000" stroke="#ff0000" cx="108.92" cy="-129.63" rx="27.89" ry="18"/>
<text text-anchor="middle" x="108.92" y="-131.23" font-family="Times,serif" font-size="8.00">w0_t0</text>
<text text-anchor="middle" x="108.92" y="-123.23" font-family="Times,serif" font-size="8.00">ScfTask</text>
</g>
<!-- w0_t1 -->
<g id="node2" class="node">
<title>w0_t1</title>
<ellipse fill="#c85064" stroke="#c85064" cx="52.67" cy="-80.91" rx="30.85" ry="18"/>
<text text-anchor="middle" x="52.67" y="-82.51" font-family="Times,serif" font-size="8.00">w0_t1</text>
<text text-anchor="middle" x="52.67" y="-74.51" font-family="Times,serif" font-size="8.00">NscfTask</text>
</g>
<!-- w0_t0&#45;&gt;w0_t1 -->
<g id="edge1" class="edge">
<title>w0_t0&#45;&gt;w0_t1</title>
<path fill="none" stroke="#ff0000" d="M92.04,-115.01C87.56,-111.13 82.63,-106.86 77.82,-102.69"/>
<polygon fill="#ff0000" stroke="#ff0000" points="79.77,-99.75 69.92,-95.85 75.19,-105.04 79.77,-99.75"/>
<text text-anchor="middle" x="99.32" y="-97.65" font-family="Times,serif" font-size="14.00">DEN</text>
</g>
<!-- w1_t0 -->
<g id="node3" class="node">
<title>w1_t0</title>
<ellipse fill="#0096fa" stroke="#0096fa" cx="283.88" cy="-25.31" rx="37.38" ry="18"/>
<text text-anchor="middle" x="283.88" y="-26.91" font-family="Times,serif" font-size="8.00">w1_t0</text>
<text text-anchor="middle" x="283.88" y="-18.91" font-family="Times,serif" font-size="8.00">PhononTask</text>
</g>
<!-- w0_t0&#45;&gt;w1_t0 -->
<g id="edge2" class="edge">
<title>w0_t0&#45;&gt;w1_t0</title>
<path fill="none" stroke="#ff0000" d="M129.68,-117.25C159.76,-99.31 215.75,-65.93 251.35,-44.71"/>
<polygon fill="#ff0000" stroke="#ff0000" points="253.57,-47.45 260.37,-39.33 249.99,-41.44 253.57,-47.45"/>
<text text-anchor="middle" x="174.96" y="-69.78" font-family="Times,serif" font-size="14.00">WFK</text>
</g>
<!-- w1_t1 -->
<g id="node4" class="node">
<title>w1_t1</title>
<ellipse fill="#0096fa" stroke="#0096fa" cx="343.97" cy="-75.79" rx="37.38" ry="18"/>
<text text-anchor="middle" x="343.97" y="-77.39" font-family="Times,serif" font-size="8.00">w1_t1</text>
<text text-anchor="middle" x="343.97" y="-69.39" font-family="Times,serif" font-size="8.00">PhononTask</text>
</g>
<!-- w0_t0&#45;&gt;w1_t1 -->
<g id="edge3" class="edge">
<title>w0_t0&#45;&gt;w1_t1</title>
<path fill="none" stroke="#ff0000" d="M135.43,-123.55C175.44,-114.39 251.73,-96.92 300.11,-85.83"/>
<polygon fill="#ff0000" stroke="#ff0000" points="301.02,-89.22 309.98,-83.57 299.46,-82.39 301.02,-89.22"/>
<text text-anchor="middle" x="202.21" y="-107.49" font-family="Times,serif" font-size="14.00">WFK</text>
</g>
<!-- w1_t2 -->
<g id="node5" class="node">
<title>w1_t2</title>
<ellipse fill="#0096fa" stroke="#0096fa" cx="211.31" cy="-85.27" rx="37.38" ry="18"/>
<text text-anchor="middle" x="211.31" y="-86.87" font-family="Times,serif" font-size="8.00">w1_t2</text>
<text text-anchor="middle" x="211.31" y="-78.87" font-family="Times,serif" font-size="8.00">PhononTask</text>
</g>
<!-- w0_t0&#45;&gt;w1_t2 -->
<g id="edge4" class="edge">
<title>w0_t0&#45;&gt;w1_t2</title>
<path fill="none" stroke="#ff0000" d="M132.15,-119.56C144.52,-114.2 160.03,-107.48 174.03,-101.42"/>
<polygon fill="#ff0000" stroke="#ff0000" points="175.65,-104.53 183.43,-97.35 172.86,-98.11 175.65,-104.53"/>
<text text-anchor="middle" x="137.54" y="-99.29" font-family="Times,serif" font-size="14.00">WFK</text>
</g>
<!-- w1_t3 -->
<g id="node6" class="node">
<title>w1_t3</title>
<ellipse fill="#0096fa" stroke="#0096fa" cx="301.22" cy="-125.96" rx="37.38" ry="18"/>
<text text-anchor="middle" x="301.22" y="-127.56" font-family="Times,serif" font-size="8.00">w1_t3</text>
<text text-anchor="middle" x="301.22" y="-119.56" font-family="Times,serif" font-size="8.00">PhononTask</text>
</g>
<!-- w0_t0&#45;&gt;w1_t3 -->
<g id="edge5" class="edge">
<title>w0_t0&#45;&gt;w1_t3</title>
<path fill="none" stroke="#ff0000" d="M136.88,-129.09C167.41,-128.51 216.84,-127.57 253.52,-126.87"/>
<polygon fill="#ff0000" stroke="#ff0000" points="254.05,-130.36 263.98,-126.67 253.92,-123.36 254.05,-130.36"/>
<text text-anchor="middle" x="179.65" y="-130.78" font-family="Times,serif" font-size="14.00">WFK</text>
</g>
</g>
</svg>
