<?xml version="1.0" encoding="UTF-8" standalone="no"?>
<!DOCTYPE svg PUBLIC "-//W3C//DTD SVG 1.1//EN"
 "http://www.w3.org/Graphics/SVG/1.1/DTD/svg11.dtd">
<!-- Generated by graphviz version 2.42.3 (20191010.1750)
 -->
<!-- Title: flow Pages: 1 -->
<svg width="312pt" height="152pt"
 viewBox="0.00 0.00 311.85 152.00" xmlns="http://www.w3.org/2000/svg" xmlns:xlink="http://www.w3.org/1999/xlink">
<g id="graph0" class="graph" transform="scale(1 1) rotate(0) translate(12.42 126)">
<title>flow</title>
<polygon fill="white" stroke="transparent" points="-12.42,26 -12.42,-126 299.42,-126 299.42,26 -12.42,26"/>
<text text-anchor="start" x="-0.42" y="15.2" font-family="Times,serif" font-size="14.00">Flow, node_id=443135, workdir=flow_base3_relax</text>
<g id="clust1" class="cluster">
<title>clusterw0</title>
<path fill="#e0eeee" stroke="black" d="M83.74,0.36C83.74,0.36 202.74,0.36 202.74,0.36 208.74,0.36 214.74,-5.64 214.74,-11.64 214.74,-11.64 214.74,-109.64 214.74,-109.64 214.74,-115.64 208.74,-121.64 202.74,-121.64 202.74,-121.64 83.74,-121.64 83.74,-121.64 77.74,-121.64 71.74,-115.64 71.74,-109.64 71.74,-109.64 71.74,-11.64 71.74,-11.64 71.74,-5.64 77.74,0.36 83.74,0.36"/>
<text text-anchor="middle" x="143.24" y="-106.44" font-family="Times,serif" font-size="14.00">Work (w0)</text>
</g>
<!-- w0_t0 -->
<g id="node1" class="node">
<title>w0_t0</title>
<ellipse fill="#ff3dff" stroke="#ff3dff" cx="112.98" cy="-25.28" rx="33.12" ry="18"/>
<text text-anchor="middle" x="112.98" y="-26.88" font-family="Times,serif" font-size="8.00">w0_t0</text>
<text text-anchor="middle" x="112.98" y="-18.88" font-family="Times,serif" font-size="8.00">RelaxTask</text>
</g>
<!-- w0_t1 -->
<g id="node2" class="node">
<title>w0_t1</title>
<ellipse fill="#ff3dff" stroke="#ff3dff" cx="172.98" cy="-73.28" rx="33.12" ry="18"/>
<text text-anchor="middle" x="172.98" y="-74.88" font-family="Times,serif" font-size="8.00">w0_t1</text>
<text text-anchor="middle" x="172.98" y="-66.88" font-family="Times,serif" font-size="8.00">RelaxTask</text>
</g>
</g>
</svg>
