<?xml version="1.0" encoding="UTF-8" standalone="no"?>
<!DOCTYPE svg PUBLIC "-//W3C//DTD SVG 1.1//EN"
 "http://www.w3.org/Graphics/SVG/1.1/DTD/svg11.dtd">
<!-- Generated by graphviz version 2.42.3 (20191010.1750)
 -->
<!-- Title: flow Pages: 1 -->
<svg width="685pt" height="531pt"
 viewBox="0.00 0.00 685.00 531.00" xmlns="http://www.w3.org/2000/svg" xmlns:xlink="http://www.w3.org/1999/xlink">
<g id="graph0" class="graph" transform="scale(1 1) rotate(0) translate(4 505)">
<title>flow</title>
<polygon fill="white" stroke="transparent" points="-4,26 -4,-505 681,-505 681,26 -4,26"/>
<text text-anchor="start" x="209.35" y="15.2" font-family="Times,serif" font-size="14.00">Flow, node_id=443308, workdir=flow_eph_al</text>
<g id="clust1" class="cluster">
<title>clusterw0</title>
<path fill="#e0eeee" stroke="black" d="M12.35,-318.56C12.35,-318.56 186.35,-318.56 186.35,-318.56 192.35,-318.56 198.35,-324.56 198.35,-330.56 198.35,-330.56 198.35,-488.56 198.35,-488.56 198.35,-494.56 192.35,-500.56 186.35,-500.56 186.35,-500.56 12.35,-500.56 12.35,-500.56 6.35,-500.56 0.35,-494.56 0.35,-488.56 0.35,-488.56 0.35,-330.56 0.35,-330.56 0.35,-324.56 6.35,-318.56 12.35,-318.56"/>
<text text-anchor="middle" x="99.35" y="-485.36" font-family="Times,serif" font-size="14.00">BandStructureWork (w0)</text>
</g>
<g id="clust2" class="cluster">
<title>clusterw1</title>
<path fill="#e0eeee" stroke="black" d="M305.4,-51.13C305.4,-51.13 665.4,-51.13 665.4,-51.13 671.4,-51.13 677.4,-57.13 677.4,-63.13 677.4,-63.13 677.4,-318.13 677.4,-318.13 677.4,-324.13 671.4,-330.13 665.4,-330.13 665.4,-330.13 305.4,-330.13 305.4,-330.13 299.4,-330.13 293.4,-324.13 293.4,-318.13 293.4,-318.13 293.4,-63.13 293.4,-63.13 293.4,-57.13 299.4,-51.13 305.4,-51.13"/>
<text text-anchor="middle" x="485.4" y="-314.93" font-family="Times,serif" font-size="14.00">PhononWork (w1)</text>
</g>
<g id="clust3" class="cluster">
<title>clusterw2</title>
<path fill="#e0eeee" stroke="black" d="M144.57,-74.62C144.57,-74.62 272.57,-74.62 272.57,-74.62 278.57,-74.62 284.57,-80.62 284.57,-86.62 284.57,-86.62 284.57,-182.62 284.57,-182.62 284.57,-188.62 278.57,-194.62 272.57,-194.62 272.57,-194.62 144.57,-194.62 144.57,-194.62 138.57,-194.62 132.57,-188.62 132.57,-182.62 132.57,-182.62 132.57,-86.62 132.57,-86.62 132.57,-80.62 138.57,-74.62 144.57,-74.62"/>
<text text-anchor="middle" x="208.57" y="-179.42" font-family="Times,serif" font-size="14.00">Work (w2)</text>
</g>
<!-- w0_t0 -->
<g id="node1" class="node">
<title>w0_t0</title>
<ellipse fill="#ff0000" stroke="#ff0000" cx="36.03" cy="-396.42" rx="27.89" ry="18"/>
<text text-anchor="middle" x="36.03" y="-398.02" font-family="Times,serif" font-size="8.00">w0_t0</text>
<text text-anchor="middle" x="36.03" y="-390.02" font-family="Times,serif" font-size="8.00">ScfTask</text>
</g>
<!-- w0_t1 -->
<g id="node2" class="node">
<title>w0_t1</title>
<ellipse fill="#c85064" stroke="#c85064" cx="159.59" cy="-452.2" rx="30.85" ry="18"/>
<text text-anchor="middle" x="159.59" y="-453.8" font-family="Times,serif" font-size="8.00">w0_t1</text>
<text text-anchor="middle" x="159.59" y="-445.8" font-family="Times,serif" font-size="8.00">NscfTask</text>
</g>
<!-- w0_t0&#45;&gt;w0_t1 -->
<g id="edge1" class="edge">
<title>w0_t0&#45;&gt;w0_t1</title>
<path fill="none" stroke="#ff0000" d="M58.98,-406.78C77.75,-415.25 104.54,-427.35 125.76,-436.93"/>
<polygon fill="#ff0000" stroke="#ff0000" points="124.51,-440.21 135.07,-441.13 127.39,-433.83 124.51,-440.21"/>
<text text-anchor="middle" x="77.99" y="-410.66" font-family="Times,serif" font-size="14.00">DEN</text>
</g>
<!-- w0_t2 -->
<g id="node3" class="node">
<title>w0_t2</title>
<ellipse fill="#c85064" stroke="#c85064" cx="91.87" cy="-344.09" rx="30.85" ry="18"/>
<text text-anchor="middle" x="91.87" y="-345.69" font-family="Times,serif" font-size="8.00">w0_t2</text>
<text text-anchor="middle" x="91.87" y="-337.69" font-family="Times,serif" font-size="8.00">NscfTask</text>
</g>
<!-- w0_t0&#45;&gt;w0_t2 -->
<g id="edge2" class="edge">
<title>w0_t0&#45;&gt;w0_t2</title>
<path fill="none" stroke="#ff0000" d="M51.89,-381.57C56.83,-376.94 62.39,-371.73 67.76,-366.69"/>
<polygon fill="#ff0000" stroke="#ff0000" points="70.5,-368.93 75.4,-359.53 65.71,-363.82 70.5,-368.93"/>
<text text-anchor="middle" x="45.44" y="-362.93" font-family="Times,serif" font-size="14.00">DEN</text>
</g>
<!-- w0_t3 -->
<g id="node4" class="node">
<title>w0_t3</title>
<ellipse fill="#c85064" stroke="#c85064" cx="130.94" cy="-391.37" rx="30.85" ry="18"/>
<text text-anchor="middle" x="130.94" y="-392.97" font-family="Times,serif" font-size="8.00">w0_t3</text>
<text text-anchor="middle" x="130.94" y="-384.97" font-family="Times,serif" font-size="8.00">NscfTask</text>
</g>
<!-- w0_t0&#45;&gt;w0_t3 -->
<g id="edge3" class="edge">
<title>w0_t0&#45;&gt;w0_t3</title>
<path fill="none" stroke="#ff0000" d="M64,-394.94C72.09,-394.5 81.1,-394.02 89.83,-393.56"/>
<polygon fill="#ff0000" stroke="#ff0000" points="90.06,-397.05 99.86,-393.03 89.69,-390.06 90.06,-397.05"/>
<text text-anchor="middle" x="84.1" y="-383.05" font-family="Times,serif" font-size="14.00">DEN</text>
</g>
<!-- w0_t4 -->
<g id="node5" class="node">
<title>w0_t4</title>
<ellipse fill="#c85064" stroke="#c85064" cx="63.91" cy="-442.46" rx="30.85" ry="18"/>
<text text-anchor="middle" x="63.91" y="-444.06" font-family="Times,serif" font-size="8.00">w0_t4</text>
<text text-anchor="middle" x="63.91" y="-436.06" font-family="Times,serif" font-size="8.00">NscfTask</text>
</g>
<!-- w0_t0&#45;&gt;w0_t4 -->
<g id="edge4" class="edge">
<title>w0_t0&#45;&gt;w0_t4</title>
<path fill="none" stroke="#ff0000" d="M46.26,-413.3C46.92,-414.4 47.6,-415.52 48.28,-416.64"/>
<polygon fill="#ff0000" stroke="#ff0000" points="45.33,-418.53 53.5,-425.27 51.32,-414.9 45.33,-418.53"/>
<text text-anchor="middle" x="32.88" y="-417.77" font-family="Times,serif" font-size="14.00">DEN</text>
</g>
<!-- w1_t0 -->
<g id="node6" class="node">
<title>w1_t0</title>
<ellipse fill="#0096fa" stroke="#0096fa" cx="632.4" cy="-169.15" rx="37.38" ry="18"/>
<text text-anchor="middle" x="632.4" y="-170.75" font-family="Times,serif" font-size="8.00">w1_t0</text>
<text text-anchor="middle" x="632.4" y="-162.75" font-family="Times,serif" font-size="8.00">PhononTask</text>
</g>
<!-- w0_t0&#45;&gt;w1_t0 -->
<g id="edge5" class="edge">
<title>w0_t0&#45;&gt;w1_t0</title>
<path fill="none" stroke="#ff0000" d="M60.15,-387.23C151.94,-352.25 480.02,-227.22 593.47,-183.98"/>
<polygon fill="#ff0000" stroke="#ff0000" points="594.73,-187.25 602.83,-180.42 592.24,-180.71 594.73,-187.25"/>
<text text-anchor="middle" x="311.26" y="-288.41" font-family="Times,serif" font-size="14.00">WFK</text>
</g>
<!-- w1_t1 -->
<g id="node7" class="node">
<title>w1_t1</title>
<ellipse fill="#0096fa" stroke="#0096fa" cx="602.89" cy="-113.17" rx="37.38" ry="18"/>
<text text-anchor="middle" x="602.89" y="-114.77" font-family="Times,serif" font-size="8.00">w1_t1</text>
<text text-anchor="middle" x="602.89" y="-106.77" font-family="Times,serif" font-size="8.00">PhononTask</text>
</g>
<!-- w0_t0&#45;&gt;w1_t1 -->
<g id="edge6" class="edge">
<title>w0_t0&#45;&gt;w1_t1</title>
<path fill="none" stroke="#ff0000" d="M58.26,-385.32C145.09,-341.93 461.89,-183.62 567.99,-130.6"/>
<polygon fill="#ff0000" stroke="#ff0000" points="569.63,-133.7 577.01,-126.1 566.5,-127.44 569.63,-133.7"/>
<text text-anchor="middle" x="297.57" y="-260.76" font-family="Times,serif" font-size="14.00">WFK</text>
</g>
<!-- w1_t2 -->
<g id="node8" class="node">
<title>w1_t2</title>
<ellipse fill="#0096fa" stroke="#0096fa" cx="338.6" cy="-178.54" rx="37.38" ry="18"/>
<text text-anchor="middle" x="338.6" y="-180.14" font-family="Times,serif" font-size="8.00">w1_t2</text>
<text text-anchor="middle" x="338.6" y="-172.14" font-family="Times,serif" font-size="8.00">PhononTask</text>
</g>
<!-- w0_t0&#45;&gt;w1_t2 -->
<g id="edge7" class="edge">
<title>w0_t0&#45;&gt;w1_t2</title>
<path fill="none" stroke="#ff0000" d="M54.96,-382.79C106.24,-345.87 248.1,-243.71 309.57,-199.44"/>
<polygon fill="#ff0000" stroke="#ff0000" points="311.63,-202.27 317.7,-193.59 307.54,-196.59 311.63,-202.27"/>
<text text-anchor="middle" x="166.71" y="-293.92" font-family="Times,serif" font-size="14.00">WFK</text>
</g>
<!-- w1_t3 -->
<g id="node9" class="node">
<title>w1_t3</title>
<ellipse fill="#0096fa" stroke="#0096fa" cx="375.67" cy="-127.35" rx="37.38" ry="18"/>
<text text-anchor="middle" x="375.67" y="-128.95" font-family="Times,serif" font-size="8.00">w1_t3</text>
<text text-anchor="middle" x="375.67" y="-120.95" font-family="Times,serif" font-size="8.00">PhononTask</text>
</g>
<!-- w0_t0&#45;&gt;w1_t3 -->
<g id="edge8" class="edge">
<title>w0_t0&#45;&gt;w1_t3</title>
<path fill="none" stroke="#ff0000" d="M53.82,-382.34C109.45,-338.26 280.46,-202.78 347.91,-149.35"/>
<polygon fill="#ff0000" stroke="#ff0000" points="350.31,-151.91 355.98,-142.96 345.97,-146.42 350.31,-151.91"/>
<text text-anchor="middle" x="185.31" y="-268.64" font-family="Times,serif" font-size="14.00">WFK</text>
</g>
<!-- w1_t4 -->
<g id="node10" class="node">
<title>w1_t4</title>
<ellipse fill="#0096fa" stroke="#0096fa" cx="548.32" cy="-174.29" rx="37.38" ry="18"/>
<text text-anchor="middle" x="548.32" y="-175.89" font-family="Times,serif" font-size="8.00">w1_t4</text>
<text text-anchor="middle" x="548.32" y="-167.89" font-family="Times,serif" font-size="8.00">PhononTask</text>
</g>
<!-- w0_t0&#45;&gt;w1_t4 -->
<g id="edge9" class="edge">
<title>w0_t0&#45;&gt;w1_t4</title>
<path fill="none" stroke="#ff0000" d="M59.38,-386.3C140.64,-351.06 411.61,-233.57 511.19,-190.39"/>
<polygon fill="#ff0000" stroke="#ff0000" points="512.77,-193.52 520.56,-186.33 509.99,-187.1 512.77,-193.52"/>
<text text-anchor="middle" x="269.73" y="-291.15" font-family="Times,serif" font-size="14.00">WFK</text>
</g>
<!-- w1_t5 -->
<g id="node11" class="node">
<title>w1_t5</title>
<ellipse fill="#0096fa" stroke="#0096fa" cx="539.08" cy="-282.52" rx="37.38" ry="18"/>
<text text-anchor="middle" x="539.08" y="-284.12" font-family="Times,serif" font-size="8.00">w1_t5</text>
<text text-anchor="middle" x="539.08" y="-276.12" font-family="Times,serif" font-size="8.00">PhononTask</text>
</g>
<!-- w0_t0&#45;&gt;w1_t5 -->
<g id="edge10" class="edge">
<title>w0_t0&#45;&gt;w1_t5</title>
<path fill="none" stroke="#ff0000" d="M62.73,-390.38C144.81,-371.79 394.08,-315.35 495.48,-292.39"/>
<polygon fill="#ff0000" stroke="#ff0000" points="496.41,-295.77 505.39,-290.14 494.86,-288.94 496.41,-295.77"/>
<text text-anchor="middle" x="263.55" y="-344.18" font-family="Times,serif" font-size="14.00">WFK</text>
</g>
<!-- w1_t6 -->
<g id="node12" class="node">
<title>w1_t6</title>
<ellipse fill="#0096fa" stroke="#0096fa" cx="610.61" cy="-231.36" rx="37.38" ry="18"/>
<text text-anchor="middle" x="610.61" y="-232.96" font-family="Times,serif" font-size="8.00">w1_t6</text>
<text text-anchor="middle" x="610.61" y="-224.96" font-family="Times,serif" font-size="8.00">PhononTask</text>
</g>
<!-- w0_t0&#45;&gt;w1_t6 -->
<g id="edge11" class="edge">
<title>w0_t0&#45;&gt;w1_t6</title>
<path fill="none" stroke="#ff0000" d="M61.84,-389.01C152.36,-363 456.06,-275.76 568.38,-243.49"/>
<polygon fill="#ff0000" stroke="#ff0000" points="569.69,-246.76 578.33,-240.63 567.75,-240.03 569.69,-246.76"/>
<text text-anchor="middle" x="299.56" y="-319.05" font-family="Times,serif" font-size="14.00">WFK</text>
</g>
<!-- w1_t7 -->
<g id="node13" class="node">
<title>w1_t7</title>
<ellipse fill="#0096fa" stroke="#0096fa" cx="343.06" cy="-247.54" rx="37.38" ry="18"/>
<text text-anchor="middle" x="343.06" y="-249.14" font-family="Times,serif" font-size="8.00">w1_t7</text>
<text text-anchor="middle" x="343.06" y="-241.14" font-family="Times,serif" font-size="8.00">PhononTask</text>
</g>
<!-- w0_t0&#45;&gt;w1_t7 -->
<g id="edge12" class="edge">
<title>w0_t0&#45;&gt;w1_t7</title>
<path fill="none" stroke="#ff0000" d="M58.36,-385.6C111,-360.07 243.21,-295.96 307.23,-264.92"/>
<polygon fill="#ff0000" stroke="#ff0000" points="309.05,-267.92 316.53,-260.41 306,-261.63 309.05,-267.92"/>
<text text-anchor="middle" x="167.24" y="-328.06" font-family="Times,serif" font-size="14.00">WFK</text>
</g>
<!-- w1_t8 -->
<g id="node14" class="node">
<title>w1_t8</title>
<ellipse fill="#0096fa" stroke="#0096fa" cx="447.71" cy="-278.19" rx="37.38" ry="18"/>
<text text-anchor="middle" x="447.71" y="-279.79" font-family="Times,serif" font-size="8.00">w1_t8</text>
<text text-anchor="middle" x="447.71" y="-271.79" font-family="Times,serif" font-size="8.00">PhononTask</text>
</g>
<!-- w0_t0&#45;&gt;w1_t8 -->
<g id="edge13" class="edge">
<title>w0_t0&#45;&gt;w1_t8</title>
<path fill="none" stroke="#ff0000" d="M61.79,-389.03C130.88,-369.18 320.88,-314.61 405.77,-290.23"/>
<polygon fill="#ff0000" stroke="#ff0000" points="406.94,-293.54 415.59,-287.41 405.01,-286.81 406.94,-293.54"/>
<text text-anchor="middle" x="218.22" y="-342.43" font-family="Times,serif" font-size="14.00">WFK</text>
</g>
<!-- w1_t9 -->
<g id="node15" class="node">
<title>w1_t9</title>
<ellipse fill="#0096fa" stroke="#0096fa" cx="459.1" cy="-143.37" rx="37.38" ry="18"/>
<text text-anchor="middle" x="459.1" y="-144.97" font-family="Times,serif" font-size="8.00">w1_t9</text>
<text text-anchor="middle" x="459.1" y="-136.97" font-family="Times,serif" font-size="8.00">PhononTask</text>
</g>
<!-- w0_t0&#45;&gt;w1_t9 -->
<g id="edge14" class="edge">
<title>w0_t0&#45;&gt;w1_t9</title>
<path fill="none" stroke="#ff0000" d="M56.73,-384.05C125.08,-343.16 344.03,-212.2 426.9,-162.63"/>
<polygon fill="#ff0000" stroke="#ff0000" points="428.85,-165.54 435.63,-157.41 425.25,-159.54 428.85,-165.54"/>
<text text-anchor="middle" x="226.26" y="-276.14" font-family="Times,serif" font-size="14.00">WFK</text>
</g>
<!-- w1_t10 -->
<g id="node16" class="node">
<title>w1_t10</title>
<ellipse fill="#0096fa" stroke="#0096fa" cx="506.65" cy="-94.26" rx="37.38" ry="18"/>
<text text-anchor="middle" x="506.65" y="-95.86" font-family="Times,serif" font-size="8.00">w1_t10</text>
<text text-anchor="middle" x="506.65" y="-87.86" font-family="Times,serif" font-size="8.00">PhononTask</text>
</g>
<!-- w0_t0&#45;&gt;w1_t10 -->
<g id="edge15" class="edge">
<title>w0_t0&#45;&gt;w1_t10</title>
<path fill="none" stroke="#ff0000" d="M55.96,-383.63C129.45,-336.45 385.73,-171.89 475.38,-114.33"/>
<polygon fill="#ff0000" stroke="#ff0000" points="477.49,-117.13 484.02,-108.78 473.71,-111.24 477.49,-117.13"/>
<text text-anchor="middle" x="250.11" y="-251.78" font-family="Times,serif" font-size="14.00">WFK</text>
</g>
<!-- w1_t11 -->
<g id="node17" class="node">
<title>w1_t11</title>
<ellipse fill="#0096fa" stroke="#0096fa" cx="409.86" cy="-76.93" rx="37.38" ry="18"/>
<text text-anchor="middle" x="409.86" y="-78.53" font-family="Times,serif" font-size="8.00">w1_t11</text>
<text text-anchor="middle" x="409.86" y="-70.53" font-family="Times,serif" font-size="8.00">PhononTask</text>
</g>
<!-- w0_t0&#45;&gt;w1_t11 -->
<g id="edge16" class="edge">
<title>w0_t0&#45;&gt;w1_t11</title>
<path fill="none" stroke="#ff0000" d="M53.07,-381.86C112.62,-330.97 311.78,-160.75 383.69,-99.3"/>
<polygon fill="#ff0000" stroke="#ff0000" points="386.09,-101.85 391.42,-92.69 381.54,-96.53 386.09,-101.85"/>
<text text-anchor="middle" x="202.82" y="-243.38" font-family="Times,serif" font-size="14.00">WFK</text>
</g>
<!-- w1_t12 -->
<g id="node18" class="node">
<title>w1_t12</title>
<ellipse fill="#0096fa" stroke="#0096fa" cx="431.63" cy="-201.37" rx="37.38" ry="18"/>
<text text-anchor="middle" x="431.63" y="-202.97" font-family="Times,serif" font-size="8.00">w1_t12</text>
<text text-anchor="middle" x="431.63" y="-194.97" font-family="Times,serif" font-size="8.00">PhononTask</text>
</g>
<!-- w0_t0&#45;&gt;w1_t12 -->
<g id="edge17" class="edge">
<title>w0_t0&#45;&gt;w1_t12</title>
<path fill="none" stroke="#ff0000" d="M58.44,-385.38C124.09,-353.01 316.42,-258.18 396.26,-218.81"/>
<polygon fill="#ff0000" stroke="#ff0000" points="398,-221.85 405.42,-214.29 394.91,-215.58 398,-221.85"/>
<text text-anchor="middle" x="211.79" y="-304.89" font-family="Times,serif" font-size="14.00">WFK</text>
</g>
<!-- w1_t13 -->
<g id="node19" class="node">
<title>w1_t13</title>
<ellipse fill="#0096fa" stroke="#0096fa" cx="517.07" cy="-226.33" rx="37.38" ry="18"/>
<text text-anchor="middle" x="517.07" y="-227.93" font-family="Times,serif" font-size="8.00">w1_t13</text>
<text text-anchor="middle" x="517.07" y="-219.93" font-family="Times,serif" font-size="8.00">PhononTask</text>
</g>
<!-- w0_t0&#45;&gt;w1_t13 -->
<g id="edge18" class="edge">
<title>w0_t0&#45;&gt;w1_t13</title>
<path fill="none" stroke="#ff0000" d="M60.55,-387.75C138.49,-360.19 381.09,-274.41 477.24,-240.41"/>
<polygon fill="#ff0000" stroke="#ff0000" points="478.62,-243.64 486.88,-237 476.29,-237.04 478.62,-243.64"/>
<text text-anchor="middle" x="253.34" y="-316.88" font-family="Times,serif" font-size="14.00">WFK</text>
</g>
<!-- w2_t0 -->
<g id="node20" class="node">
<title>w2_t0</title>
<ellipse fill="#ff8000" stroke="#ff8000" cx="170.18" cy="-101.36" rx="29.37" ry="18"/>
<text text-anchor="middle" x="170.18" y="-102.96" font-family="Times,serif" font-size="8.00">w2_t0</text>
<text text-anchor="middle" x="170.18" y="-94.96" font-family="Times,serif" font-size="8.00">EphTask</text>
</g>
<!-- w0_t2&#45;&gt;w2_t0 -->
<g id="edge19" class="edge">
<title>w0_t2&#45;&gt;w2_t0</title>
<path fill="none" stroke="#c85064" d="M97.63,-326.24C111.18,-284.25 145.15,-178.96 161.33,-128.78"/>
<polygon fill="#c85064" stroke="#c85064" points="164.67,-129.82 164.41,-119.23 158.01,-127.68 164.67,-129.82"/>
<text text-anchor="middle" x="113.93" y="-230.31" font-family="Times,serif" font-size="14.00">WFK</text>
</g>
<!-- w2_t1 -->
<g id="node21" class="node">
<title>w2_t1</title>
<ellipse fill="#ff8000" stroke="#ff8000" cx="247.54" cy="-100.17" rx="29.37" ry="18"/>
<text text-anchor="middle" x="247.54" y="-101.77" font-family="Times,serif" font-size="8.00">w2_t1</text>
<text text-anchor="middle" x="247.54" y="-93.77" font-family="Times,serif" font-size="8.00">EphTask</text>
</g>
<!-- w0_t3&#45;&gt;w2_t1 -->
<g id="edge20" class="edge">
<title>w0_t3&#45;&gt;w2_t1</title>
<path fill="none" stroke="#c85064" d="M138.06,-373.6C157.78,-324.33 213.23,-185.85 236.76,-127.08"/>
<polygon fill="#c85064" stroke="#c85064" points="240.05,-128.3 240.51,-117.71 233.55,-125.7 240.05,-128.3"/>
<text text-anchor="middle" x="171.86" y="-253.14" font-family="Times,serif" font-size="14.00">WFK</text>
</g>
<!-- w2_t2 -->
<g id="node22" class="node">
<title>w2_t2</title>
<ellipse fill="#ff8000" stroke="#ff8000" cx="204.91" cy="-146.49" rx="29.37" ry="18"/>
<text text-anchor="middle" x="204.91" y="-148.09" font-family="Times,serif" font-size="8.00">w2_t2</text>
<text text-anchor="middle" x="204.91" y="-140.09" font-family="Times,serif" font-size="8.00">EphTask</text>
</g>
<!-- w0_t4&#45;&gt;w2_t2 -->
<g id="edge21" class="edge">
<title>w0_t4&#45;&gt;w2_t2</title>
<path fill="none" stroke="#c85064" d="M72.31,-424.83C96.07,-374.96 163.85,-232.67 192.2,-173.16"/>
<polygon fill="#c85064" stroke="#c85064" points="195.42,-174.56 196.56,-164.02 189.1,-171.55 195.42,-174.56"/>
<text text-anchor="middle" x="116.7" y="-301.8" font-family="Times,serif" font-size="14.00">WFK</text>
</g>
<!-- DDB (w1) -->
<g id="node23" class="node">
<title>DDB (w1)</title>
<ellipse fill="#b2dfee" stroke="#b2dfee" cx="222.45" cy="-223.7" rx="47.88" ry="18"/>
<text text-anchor="middle" x="222.45" y="-219.5" font-family="Times,serif" font-size="14.00">DDB (w1)</text>
</g>
<!-- DDB (w1)&#45;&gt;w2_t0 -->
<g id="edge22" class="edge">
<title>DDB (w1)&#45;&gt;w2_t0</title>
<path fill="none" stroke="black" d="M214.85,-205.91C206.18,-185.62 191.9,-152.19 181.82,-128.61"/>
<polygon fill="black" stroke="black" points="184.94,-126.99 177.79,-119.17 178.5,-129.74 184.94,-126.99"/>
</g>
<!-- DDB (w1)&#45;&gt;w2_t1 -->
<g id="edge26" class="edge">
<title>DDB (w1)&#45;&gt;w2_t1</title>
<path fill="none" stroke="black" d="M226.1,-205.74C230.24,-185.34 237.05,-151.8 241.89,-128"/>
<polygon fill="black" stroke="black" points="245.33,-128.65 243.89,-118.15 238.47,-127.26 245.33,-128.65"/>
</g>
<!-- DDB (w1)&#45;&gt;w2_t2 -->
<g id="edge28" class="edge">
<title>DDB (w1)&#45;&gt;w2_t2</title>
<path fill="none" stroke="black" d="M218.29,-205.4C216.18,-196.1 213.57,-184.61 211.22,-174.25"/>
<polygon fill="black" stroke="black" points="214.61,-173.37 208.98,-164.39 207.78,-174.92 214.61,-173.37"/>
</g>
<!-- DVDB (w1) -->
<g id="node25" class="node">
<title>DVDB (w1)</title>
<ellipse fill="#b2dfee" stroke="#b2dfee" cx="391.59" cy="-17.87" rx="54.15" ry="18"/>
<text text-anchor="middle" x="391.59" y="-13.67" font-family="Times,serif" font-size="14.00">DVDB (w1)</text>
</g>
<!-- DVDB (w1)&#45;&gt;w2_t0 -->
<g id="edge24" class="edge">
<title>DVDB (w1)&#45;&gt;w2_t0</title>
<path fill="none" stroke="black" d="M355.52,-31.47C313.98,-47.14 246.18,-72.7 205.12,-88.18"/>
<polygon fill="black" stroke="black" points="203.66,-84.99 195.53,-91.8 206.13,-91.54 203.66,-84.99"/>
</g>
<!-- DVDB (w1)&#45;&gt;w2_t1 -->
<g id="edge27" class="edge">
<title>DVDB (w1)&#45;&gt;w2_t1</title>
<path fill="none" stroke="black" d="M364.16,-33.55C339.58,-47.59 303.59,-68.15 278.1,-82.71"/>
<polygon fill="black" stroke="black" points="276.18,-79.78 269.23,-87.78 279.65,-85.86 276.18,-79.78"/>
</g>
<!-- DVDB (w1)&#45;&gt;w2_t2 -->
<g id="edge29" class="edge">
<title>DVDB (w1)&#45;&gt;w2_t2</title>
<path fill="none" stroke="black" d="M367.95,-34.16C333.52,-57.88 269.71,-101.84 232.96,-127.16"/>
<polygon fill="black" stroke="black" points="230.92,-124.32 224.67,-132.87 234.89,-130.08 230.92,-124.32"/>
</g>
<!-- __0:clusterw1 -->
<!-- __0:clusterw1&#45;&gt;DDB (w1) -->
<g id="edge30" class="edge">
<title>__0:clusterw1&#45;&gt;DDB (w1)</title>
<path fill="none" stroke="#696969" d="M293.26,-214.79C288.08,-215.45 283.05,-216.08 278.24,-216.68"/>
<polygon fill="#696969" stroke="#696969" points="277.52,-213.25 268.04,-217.97 278.4,-220.19 277.52,-213.25"/>
</g>
<!-- __1:clusterw1 -->
<!-- __1:clusterw1&#45;&gt;DVDB (w1) -->
<g id="edge31" class="edge">
<title>__1:clusterw1&#45;&gt;DVDB (w1)</title>
<path fill="none" stroke="#696969" d="M409.46,-50.78C408.31,-48.67 407.21,-46.63 406.14,-44.68"/>
<polygon fill="#696969" stroke="#696969" points="409.06,-42.72 401.22,-35.6 402.91,-46.06 409.06,-42.72"/>
</g>
</g>
</svg>
