<?xml version="1.0" encoding="UTF-8" standalone="no"?>
<!DOCTYPE svg PUBLIC "-//W3C//DTD SVG 1.1//EN"
 "http://www.w3.org/Graphics/SVG/1.1/DTD/svg11.dtd">
<!-- Generated by graphviz version 2.42.3 (20191010.1750)
 -->
<!-- Title: task Pages: 1 -->
<svg width="339pt" height="218pt"
 viewBox="0.00 0.00 339.00 217.82" xmlns="http://www.w3.org/2000/svg" xmlns:xlink="http://www.w3.org/1999/xlink">
<g id="graph0" class="graph" transform="scale(1 1) rotate(0) translate(4 213.82)">
<title>task</title>
<polygon fill="white" stroke="transparent" points="-4,4 -4,-213.82 335,-213.82 335,4 -4,4"/>
<text text-anchor="start" x="8" y="-6.8" font-family="Times,serif" font-size="14.00">EphTask, node_id=442101, workdir=flow_eph_al/w2/t2</text>
<g id="clust1" class="cluster">
<title>clusterw2</title>
<path fill="#e0eeee" stroke="black" d="M114.12,-30C114.12,-30 202.12,-30 202.12,-30 208.12,-30 214.12,-36 214.12,-42 214.12,-42 214.12,-106.91 214.12,-106.91 214.12,-112.91 208.12,-118.91 202.12,-118.91 202.12,-118.91 114.12,-118.91 114.12,-118.91 108.12,-118.91 102.12,-112.91 102.12,-106.91 102.12,-106.91 102.12,-42 102.12,-42 102.12,-36 108.12,-30 114.12,-30"/>
<text text-anchor="middle" x="158.12" y="-103.71" font-family="Times,serif" font-size="14.00">EphTask (w2_t2)</text>
</g>
<!-- w0_t4 -->
<g id="node1" class="node">
<title>w0_t4</title>
<ellipse fill="#c85064" stroke="#c85064" cx="93.12" cy="-184.37" rx="48.62" ry="25.41"/>
<text text-anchor="middle" x="93.12" y="-187.17" font-family="Times,serif" font-size="14.00">w0_t4</text>
<text text-anchor="middle" x="93.12" y="-173.17" font-family="Times,serif" font-size="14.00">NscfTask</text>
</g>
<!-- w2_t2 -->
<g id="node2" class="node">
<title>w2_t2</title>
<ellipse fill="#ff8000" stroke="#ff8000" cx="158.12" cy="-63.46" rx="45.62" ry="25.41"/>
<text text-anchor="middle" x="158.12" y="-66.26" font-family="Times,serif" font-size="14.00">w2_t2</text>
<text text-anchor="middle" x="158.12" y="-52.26" font-family="Times,serif" font-size="14.00">EphTask</text>
</g>
<!-- w0_t4&#45;&gt;w2_t2 -->
<g id="edge1" class="edge">
<title>w0_t4&#45;&gt;w2_t2</title>
<path fill="none" stroke="#c85064" d="M106.12,-159.59C115.9,-141.69 129.43,-116.93 140.24,-97.16"/>
<polygon fill="#c85064" stroke="#c85064" points="143.42,-98.65 145.14,-88.19 137.28,-95.29 143.42,-98.65"/>
<text text-anchor="middle" x="139.67" y="-129.71" font-family="Times,serif" font-size="14.00">WFK</text>
</g>
<!-- w1 -->
<g id="node3" class="node">
<title>w1</title>
<ellipse fill="#696969" stroke="#696969" cx="223.12" cy="-184.37" rx="63.14" ry="25.41"/>
<text text-anchor="middle" x="223.12" y="-187.17" font-family="Times,serif" font-size="14.00">w1</text>
<text text-anchor="middle" x="223.12" y="-173.17" font-family="Times,serif" font-size="14.00">PhononWork</text>
</g>
<!-- w1&#45;&gt;w2_t2 -->
<g id="edge2" class="edge">
<title>w1&#45;&gt;w2_t2</title>
<path fill="none" stroke="#696969" d="M209.97,-159.3C200.17,-141.38 186.68,-116.7 175.91,-97.01"/>
<polygon fill="#696969" stroke="#696969" points="178.9,-95.17 171.03,-88.08 172.76,-98.53 178.9,-95.17"/>
<text text-anchor="middle" x="237.68" y="-129.71" font-family="Times,serif" font-size="14.00">DDB+DVDB</text>
</g>
</g>
</svg>
