<?xml version="1.0" encoding="UTF-8" standalone="no"?>
<!DOCTYPE svg PUBLIC "-//W3C//DTD SVG 1.1//EN"
 "http://www.w3.org/Graphics/SVG/1.1/DTD/svg11.dtd">
<!-- Generated by graphviz version 2.42.3 (20191010.1750)
 -->
<!-- Title: flow Pages: 1 -->
<svg width="323pt" height="152pt"
 viewBox="0.00 0.00 322.74 152.00" xmlns="http://www.w3.org/2000/svg" xmlns:xlink="http://www.w3.org/1999/xlink">
<g id="graph0" class="graph" transform="scale(1 1) rotate(0) translate(12.37 126)">
<title>flow</title>
<polygon fill="white" stroke="transparent" points="-12.37,26 -12.37,-126 310.37,-126 310.37,26 -12.37,26"/>
<text text-anchor="start" x="-0.37" y="15.2" font-family="Times,serif" font-size="14.00">Flow, node_id=441930, workdir=flow_base3_ebands</text>
<g id="clust1" class="cluster">
<title>clusterw0</title>
<path fill="#e0eeee" stroke="black" d="M82.24,0.36C82.24,0.36 216.24,0.36 216.24,0.36 222.24,0.36 228.24,-5.64 228.24,-11.64 228.24,-11.64 228.24,-109.64 228.24,-109.64 228.24,-115.64 222.24,-121.64 216.24,-121.64 216.24,-121.64 82.24,-121.64 82.24,-121.64 76.24,-121.64 70.24,-115.64 70.24,-109.64 70.24,-109.64 70.24,-11.64 70.24,-11.64 70.24,-5.64 76.24,0.36 82.24,0.36"/>
<text text-anchor="middle" x="149.24" y="-106.44" font-family="Times,serif" font-size="14.00">BandStructureWork (w0)</text>
</g>
<!-- w0_t0 -->
<g id="node1" class="node">
<title>w0_t0</title>
<ellipse fill="#ff0000" stroke="#ff0000" cx="179.48" cy="-73.28" rx="27.89" ry="18"/>
<text text-anchor="middle" x="179.48" y="-74.88" font-family="Times,serif" font-size="8.00">w0_t0</text>
<text text-anchor="middle" x="179.48" y="-66.88" font-family="Times,serif" font-size="8.00">ScfTask</text>
</g>
<!-- w0_t1 -->
<g id="node2" class="node">
<title>w0_t1</title>
<ellipse fill="#c85064" stroke="#c85064" cx="122.48" cy="-25.28" rx="30.85" ry="18"/>
<text text-anchor="middle" x="122.48" y="-26.88" font-family="Times,serif" font-size="8.00">w0_t1</text>
<text text-anchor="middle" x="122.48" y="-18.88" font-family="Times,serif" font-size="8.00">NscfTask</text>
</g>
<!-- w0_t0&#45;&gt;w0_t1 -->
<g id="edge1" class="edge">
<title>w0_t0&#45;&gt;w0_t1</title>
<path fill="none" stroke="#ff0000" d="M162.37,-58.88C157.92,-55.13 153.02,-51 148.23,-46.97"/>
<polygon fill="#ff0000" stroke="#ff0000" points="150.26,-44.1 140.36,-40.34 145.75,-49.46 150.26,-44.1"/>
<text text-anchor="middle" x="169.69" y="-41.72" font-family="Times,serif" font-size="14.00">DEN</text>
</g>
</g>
</svg>
