<?xml version="1.0" encoding="UTF-8" standalone="no"?>
<!DOCTYPE svg PUBLIC "-//W3C//DTD SVG 1.1//EN"
 "http://www.w3.org/Graphics/SVG/1.1/DTD/svg11.dtd">
<!-- Generated by graphviz version 2.42.3 (20191010.1750)
 -->
<!-- Title: flow Pages: 1 -->
<svg width="483pt" height="356pt"
 viewBox="0.00 0.00 483.00 356.00" xmlns="http://www.w3.org/2000/svg" xmlns:xlink="http://www.w3.org/1999/xlink">
<g id="graph0" class="graph" transform="scale(1 1) rotate(0) translate(4 330)">
<title>flow</title>
<polygon fill="white" stroke="transparent" points="-4,26 -4,-330 479,-330 479,26 -4,26"/>
<text text-anchor="start" x="67.5" y="15.2" font-family="Times,serif" font-size="14.00">PhononFlow, node_id=441959, workdir=flow_alas_phonons</text>
<g id="clust1" class="cluster">
<title>clusterw0</title>
<path fill="#e0eeee" stroke="black" d="M205.32,-148.81C205.32,-148.81 257.32,-148.81 257.32,-148.81 263.32,-148.81 269.32,-154.81 269.32,-160.81 269.32,-160.81 269.32,-210.81 269.32,-210.81 269.32,-216.81 263.32,-222.81 257.32,-222.81 257.32,-222.81 205.32,-222.81 205.32,-222.81 199.32,-222.81 193.32,-216.81 193.32,-210.81 193.32,-210.81 193.32,-160.81 193.32,-160.81 193.32,-154.81 199.32,-148.81 205.32,-148.81"/>
<text text-anchor="middle" x="231.32" y="-207.61" font-family="Times,serif" font-size="14.00">Work (w0)</text>
</g>
<g id="clust2" class="cluster">
<title>clusterw1</title>
<path fill="#e0eeee" stroke="black" d="M292.35,-33.42C292.35,-33.42 463.35,-33.42 463.35,-33.42 469.35,-33.42 475.35,-39.42 475.35,-45.42 475.35,-45.42 475.35,-196.42 475.35,-196.42 475.35,-202.42 469.35,-208.42 463.35,-208.42 463.35,-208.42 292.35,-208.42 292.35,-208.42 286.35,-208.42 280.35,-202.42 280.35,-196.42 280.35,-196.42 280.35,-45.42 280.35,-45.42 280.35,-39.42 286.35,-33.42 292.35,-33.42"/>
<text text-anchor="middle" x="377.85" y="-193.22" font-family="Times,serif" font-size="14.00">BecWork (w1)</text>
</g>
<g id="clust3" class="cluster">
<title>clusterw2</title>
<path fill="#e0eeee" stroke="black" d="M82.7,-0.06C82.7,-0.06 253.7,-0.06 253.7,-0.06 259.7,-0.06 265.7,-6.06 265.7,-12.06 265.7,-12.06 265.7,-125.06 265.7,-125.06 265.7,-131.06 259.7,-137.06 253.7,-137.06 253.7,-137.06 82.7,-137.06 82.7,-137.06 76.7,-137.06 70.7,-131.06 70.7,-125.06 70.7,-125.06 70.7,-12.06 70.7,-12.06 70.7,-6.06 76.7,-0.06 82.7,-0.06"/>
<text text-anchor="middle" x="168.2" y="-121.86" font-family="Times,serif" font-size="14.00">PhononWork (w2)</text>
</g>
<g id="clust4" class="cluster">
<title>clusterw3</title>
<path fill="#e0eeee" stroke="black" d="M11.86,-213.23C11.86,-213.23 167.86,-213.23 167.86,-213.23 173.86,-213.23 179.86,-219.23 179.86,-225.23 179.86,-225.23 179.86,-314.23 179.86,-314.23 179.86,-320.23 173.86,-326.23 167.86,-326.23 167.86,-326.23 11.86,-326.23 11.86,-326.23 5.86,-326.23 -0.14,-320.23 -0.14,-314.23 -0.14,-314.23 -0.14,-225.23 -0.14,-225.23 -0.14,-219.23 5.86,-213.23 11.86,-213.23"/>
<text text-anchor="middle" x="89.86" y="-311.03" font-family="Times,serif" font-size="14.00">PhononWork (w3)</text>
</g>
<!-- w0_t0 -->
<g id="node1" class="node">
<title>w0_t0</title>
<ellipse fill="#ff0000" stroke="#ff0000" cx="231.18" cy="-174.61" rx="27.89" ry="18"/>
<text text-anchor="middle" x="231.18" y="-176.21" font-family="Times,serif" font-size="8.00">w0_t0</text>
<text text-anchor="middle" x="231.18" y="-168.21" font-family="Times,serif" font-size="8.00">ScfTask</text>
</g>
<!-- w1_t0 -->
<g id="node2" class="node">
<title>w1_t0</title>
<ellipse fill="#00cccc" stroke="#00cccc" cx="388.97" cy="-58.97" rx="30.06" ry="18"/>
<text text-anchor="middle" x="388.97" y="-60.57" font-family="Times,serif" font-size="8.00">w1_t0</text>
<text text-anchor="middle" x="388.97" y="-52.57" font-family="Times,serif" font-size="8.00">DdkTask</text>
</g>
<!-- w0_t0&#45;&gt;w1_t0 -->
<g id="edge1" class="edge">
<title>w0_t0&#45;&gt;w1_t0</title>
<path fill="none" stroke="#ff0000" d="M249.9,-160.89C277.51,-140.65 329.33,-102.68 361.32,-79.23"/>
<polygon fill="#ff0000" stroke="#ff0000" points="363.79,-81.76 369.78,-73.03 359.65,-76.12 363.79,-81.76"/>
<text text-anchor="middle" x="290.06" y="-108.86" font-family="Times,serif" font-size="14.00">WFK</text>
</g>
<!-- w1_t1 -->
<g id="node3" class="node">
<title>w1_t1</title>
<ellipse fill="#00cccc" stroke="#00cccc" cx="317.95" cy="-86.74" rx="30.06" ry="18"/>
<text text-anchor="middle" x="317.95" y="-88.34" font-family="Times,serif" font-size="8.00">w1_t1</text>
<text text-anchor="middle" x="317.95" y="-80.34" font-family="Times,serif" font-size="8.00">DdkTask</text>
</g>
<!-- w0_t0&#45;&gt;w1_t1 -->
<g id="edge2" class="edge">
<title>w0_t0&#45;&gt;w1_t1</title>
<path fill="none" stroke="#ff0000" d="M246.3,-159.3C259.82,-145.61 279.82,-125.35 295.26,-109.72"/>
<polygon fill="#ff0000" stroke="#ff0000" points="297.89,-112.04 302.42,-102.46 292.91,-107.12 297.89,-112.04"/>
<text text-anchor="middle" x="255.22" y="-137.31" font-family="Times,serif" font-size="14.00">WFK</text>
</g>
<!-- w1_t2 -->
<g id="node4" class="node">
<title>w1_t2</title>
<ellipse fill="#00cccc" stroke="#00cccc" cx="437.72" cy="-104.95" rx="30.06" ry="18"/>
<text text-anchor="middle" x="437.72" y="-106.55" font-family="Times,serif" font-size="8.00">w1_t2</text>
<text text-anchor="middle" x="437.72" y="-98.55" font-family="Times,serif" font-size="8.00">DdkTask</text>
</g>
<!-- w0_t0&#45;&gt;w1_t2 -->
<g id="edge3" class="edge">
<title>w0_t0&#45;&gt;w1_t2</title>
<path fill="none" stroke="#ff0000" d="M256.1,-166.21C292.45,-153.94 360.23,-131.08 401.92,-117.02"/>
<polygon fill="#ff0000" stroke="#ff0000" points="403.06,-120.33 411.41,-113.82 400.82,-113.7 403.06,-120.33"/>
<text text-anchor="middle" x="344.56" y="-144.41" font-family="Times,serif" font-size="14.00">WFK</text>
</g>
<!-- w1_t3 -->
<g id="node5" class="node">
<title>w1_t3</title>
<ellipse fill="#7a7aff" stroke="#7a7aff" cx="323.94" cy="-131.66" rx="29.27" ry="18"/>
<text text-anchor="middle" x="323.94" y="-133.26" font-family="Times,serif" font-size="8.00">w1_t3</text>
<text text-anchor="middle" x="323.94" y="-125.26" font-family="Times,serif" font-size="8.00">BecTask</text>
</g>
<!-- w0_t0&#45;&gt;w1_t3 -->
<g id="edge4" class="edge">
<title>w0_t0&#45;&gt;w1_t3</title>
<path fill="none" stroke="#ff0000" d="M254.11,-163.99C265.2,-158.86 278.72,-152.6 290.9,-146.96"/>
<polygon fill="#ff0000" stroke="#ff0000" points="292.7,-149.98 300.3,-142.6 289.76,-143.63 292.7,-149.98"/>
<text text-anchor="middle" x="288.06" y="-158.27" font-family="Times,serif" font-size="14.00">WFK</text>
</g>
<!-- w1_t4 -->
<g id="node6" class="node">
<title>w1_t4</title>
<ellipse fill="#7a7aff" stroke="#7a7aff" cx="401.52" cy="-160" rx="29.27" ry="18"/>
<text text-anchor="middle" x="401.52" y="-161.6" font-family="Times,serif" font-size="8.00">w1_t4</text>
<text text-anchor="middle" x="401.52" y="-153.6" font-family="Times,serif" font-size="8.00">BecTask</text>
</g>
<!-- w0_t0&#45;&gt;w1_t4 -->
<g id="edge5" class="edge">
<title>w0_t0&#45;&gt;w1_t4</title>
<path fill="none" stroke="#ff0000" d="M258.93,-172.23C287.05,-169.82 330.8,-166.07 362.43,-163.36"/>
<polygon fill="#ff0000" stroke="#ff0000" points="362.98,-166.82 372.65,-162.48 362.39,-159.85 362.98,-166.82"/>
<text text-anchor="middle" x="326.23" y="-170.59" font-family="Times,serif" font-size="14.00">WFK</text>
</g>
<!-- w2_t0 -->
<g id="node7" class="node">
<title>w2_t0</title>
<ellipse fill="#0096fa" stroke="#0096fa" cx="116.39" cy="-88.56" rx="37.38" ry="18"/>
<text text-anchor="middle" x="116.39" y="-90.16" font-family="Times,serif" font-size="8.00">w2_t0</text>
<text text-anchor="middle" x="116.39" y="-82.16" font-family="Times,serif" font-size="8.00">PhononTask</text>
</g>
<!-- w0_t0&#45;&gt;w2_t0 -->
<g id="edge6" class="edge">
<title>w0_t0&#45;&gt;w2_t0</title>
<path fill="none" stroke="#ff0000" d="M212.74,-160.78C194.39,-147.03 165.98,-125.73 144.75,-109.82"/>
<polygon fill="#ff0000" stroke="#ff0000" points="146.82,-107 136.72,-103.8 142.62,-112.6 146.82,-107"/>
<text text-anchor="middle" x="163.19" y="-138.1" font-family="Times,serif" font-size="14.00">WFK</text>
</g>
<!-- w2_t1 -->
<g id="node8" class="node">
<title>w2_t1</title>
<ellipse fill="#0096fa" stroke="#0096fa" cx="115.8" cy="-37.55" rx="37.38" ry="18"/>
<text text-anchor="middle" x="115.8" y="-39.15" font-family="Times,serif" font-size="8.00">w2_t1</text>
<text text-anchor="middle" x="115.8" y="-31.15" font-family="Times,serif" font-size="8.00">PhononTask</text>
</g>
<!-- w0_t0&#45;&gt;w2_t1 -->
<g id="edge7" class="edge">
<title>w0_t0&#45;&gt;w2_t1</title>
<path fill="none" stroke="#ff0000" d="M217.72,-158.62C197.7,-134.84 159.92,-89.96 136.41,-62.03"/>
<polygon fill="#ff0000" stroke="#ff0000" points="139.01,-59.69 129.89,-54.29 133.65,-64.2 139.01,-59.69"/>
<text text-anchor="middle" x="192.62" y="-99.13" font-family="Times,serif" font-size="14.00">WFK</text>
</g>
<!-- w2_t2 -->
<g id="node9" class="node">
<title>w2_t2</title>
<ellipse fill="#0096fa" stroke="#0096fa" cx="207.25" cy="-25.79" rx="37.38" ry="18"/>
<text text-anchor="middle" x="207.25" y="-27.39" font-family="Times,serif" font-size="8.00">w2_t2</text>
<text text-anchor="middle" x="207.25" y="-19.39" font-family="Times,serif" font-size="8.00">PhononTask</text>
</g>
<!-- w0_t0&#45;&gt;w2_t2 -->
<g id="edge8" class="edge">
<title>w0_t0&#45;&gt;w2_t2</title>
<path fill="none" stroke="#ff0000" d="M228.3,-156.66C224.18,-131.07 216.59,-83.88 211.74,-53.71"/>
<polygon fill="#ff0000" stroke="#ff0000" points="215.19,-53.12 210.14,-43.81 208.28,-54.24 215.19,-53.12"/>
<text text-anchor="middle" x="235.57" y="-107.98" font-family="Times,serif" font-size="14.00">WFK</text>
</g>
<!-- w2_t3 -->
<g id="node10" class="node">
<title>w2_t3</title>
<ellipse fill="#0096fa" stroke="#0096fa" cx="220.36" cy="-75.83" rx="37.38" ry="18"/>
<text text-anchor="middle" x="220.36" y="-77.43" font-family="Times,serif" font-size="8.00">w2_t3</text>
<text text-anchor="middle" x="220.36" y="-69.43" font-family="Times,serif" font-size="8.00">PhononTask</text>
</g>
<!-- w0_t0&#45;&gt;w2_t3 -->
<g id="edge9" class="edge">
<title>w0_t0&#45;&gt;w2_t3</title>
<path fill="none" stroke="#ff0000" d="M229.2,-156.49C227.59,-141.87 225.31,-121.04 223.47,-104.21"/>
<polygon fill="#ff0000" stroke="#ff0000" points="226.9,-103.39 222.33,-93.83 219.94,-104.16 226.9,-103.39"/>
<text text-anchor="middle" x="210.78" y="-133.15" font-family="Times,serif" font-size="14.00">WFK</text>
</g>
<!-- w3_t0 -->
<g id="node11" class="node">
<title>w3_t0</title>
<ellipse fill="#0096fa" stroke="#0096fa" cx="134.41" cy="-277.76" rx="37.38" ry="18"/>
<text text-anchor="middle" x="134.41" y="-279.36" font-family="Times,serif" font-size="8.00">w3_t0</text>
<text text-anchor="middle" x="134.41" y="-271.36" font-family="Times,serif" font-size="8.00">PhononTask</text>
</g>
<!-- w0_t0&#45;&gt;w3_t0 -->
<g id="edge10" class="edge">
<title>w0_t0&#45;&gt;w3_t0</title>
<path fill="none" stroke="#ff0000" d="M216.48,-190.28C200.61,-207.19 175.14,-234.34 156.78,-253.91"/>
<polygon fill="#ff0000" stroke="#ff0000" points="154.17,-251.58 149.88,-261.26 159.28,-256.37 154.17,-251.58"/>
<text text-anchor="middle" x="171.08" y="-224.89" font-family="Times,serif" font-size="14.00">WFK</text>
</g>
<!-- w3_t1 -->
<g id="node12" class="node">
<title>w3_t1</title>
<ellipse fill="#0096fa" stroke="#0096fa" cx="44.98" cy="-238.94" rx="37.38" ry="18"/>
<text text-anchor="middle" x="44.98" y="-240.54" font-family="Times,serif" font-size="8.00">w3_t1</text>
<text text-anchor="middle" x="44.98" y="-232.54" font-family="Times,serif" font-size="8.00">PhononTask</text>
</g>
<!-- w0_t0&#45;&gt;w3_t1 -->
<g id="edge11" class="edge">
<title>w0_t0&#45;&gt;w3_t1</title>
<path fill="none" stroke="#ff0000" d="M206.46,-183.15C175.4,-193.88 121.72,-212.43 84.84,-225.17"/>
<polygon fill="#ff0000" stroke="#ff0000" points="83.69,-221.86 75.38,-228.44 85.97,-228.48 83.69,-221.86"/>
<text text-anchor="middle" x="130.09" y="-206.96" font-family="Times,serif" font-size="14.00">WFK</text>
</g>
<!-- w1_t0&#45;&gt;w1_t3 -->
<g id="edge12" class="edge">
<title>w1_t0&#45;&gt;w1_t3</title>
<path fill="none" stroke="#00cccc" d="M374.54,-75.1C365.87,-84.79 354.68,-97.3 345.03,-108.08"/>
<polygon fill="#00cccc" stroke="#00cccc" points="342.39,-105.78 338.33,-115.57 347.61,-110.45 342.39,-105.78"/>
<text text-anchor="middle" x="374.95" y="-94.39" font-family="Times,serif" font-size="14.00">DDK</text>
</g>
<!-- w1_t0&#45;&gt;w1_t4 -->
<g id="edge13" class="edge">
<title>w1_t0&#45;&gt;w1_t4</title>
<path fill="none" stroke="#00cccc" d="M391.22,-77.03C393.1,-92.17 395.81,-114.04 397.99,-131.53"/>
<polygon fill="#00cccc" stroke="#00cccc" points="394.55,-132.26 399.26,-141.76 401.5,-131.4 394.55,-132.26"/>
<text text-anchor="middle" x="379.43" y="-107.08" font-family="Times,serif" font-size="14.00">DDK</text>
</g>
<!-- w1_t1&#45;&gt;w1_t3 -->
<g id="edge14" class="edge">
<title>w1_t1&#45;&gt;w1_t3</title>
<path fill="none" stroke="#00cccc" d="M320.35,-104.75C320.36,-104.84 320.37,-104.93 320.39,-105.02"/>
<polygon fill="#00cccc" stroke="#00cccc" points="316.74,-104.19 321.54,-113.64 323.68,-103.27 316.74,-104.19"/>
<text text-anchor="middle" x="335.53" y="-107.69" font-family="Times,serif" font-size="14.00">DDK</text>
</g>
<!-- w1_t1&#45;&gt;w1_t4 -->
<g id="edge15" class="edge">
<title>w1_t1&#45;&gt;w1_t4</title>
<path fill="none" stroke="#00cccc" d="M335.27,-101.92C347.22,-112.4 363.31,-126.5 376.63,-138.18"/>
<polygon fill="#00cccc" stroke="#00cccc" points="374.69,-141.13 384.51,-145.09 379.3,-135.87 374.69,-141.13"/>
<text text-anchor="middle" x="371.12" y="-122.85" font-family="Times,serif" font-size="14.00">DDK</text>
</g>
<!-- w1_t2&#45;&gt;w1_t3 -->
<g id="edge16" class="edge">
<title>w1_t2&#45;&gt;w1_t3</title>
<path fill="none" stroke="#00cccc" d="M409.59,-111.55C395.02,-114.97 377.02,-119.19 361.3,-122.89"/>
<polygon fill="#00cccc" stroke="#00cccc" points="360.28,-119.53 351.35,-125.22 361.88,-126.34 360.28,-119.53"/>
<text text-anchor="middle" x="400.61" y="-120.02" font-family="Times,serif" font-size="14.00">DDK</text>
</g>
<!-- w1_t2&#45;&gt;w1_t4 -->
<g id="edge17" class="edge">
<title>w1_t2&#45;&gt;w1_t4</title>
<path fill="none" stroke="#00cccc" d="M426.66,-121.76C424,-125.82 421.09,-130.24 418.23,-134.6"/>
<polygon fill="#00cccc" stroke="#00cccc" points="415.08,-133.01 412.51,-143.29 420.93,-136.85 415.08,-133.01"/>
<text text-anchor="middle" x="437.61" y="-130.98" font-family="Times,serif" font-size="14.00">DDK</text>
</g>
</g>
</svg>
