<?xml version="1.0" encoding="UTF-8" standalone="no"?>
<!DOCTYPE svg PUBLIC "-//W3C//DTD SVG 1.1//EN"
 "http://www.w3.org/Graphics/SVG/1.1/DTD/svg11.dtd">
<!-- Generated by graphviz version 2.42.3 (20191010.1750)
 -->
<!-- Title: flow Pages: 1 -->
<svg width="330pt" height="374pt"
 viewBox="0.00 0.00 330.00 374.00" xmlns="http://www.w3.org/2000/svg" xmlns:xlink="http://www.w3.org/1999/xlink">
<g id="graph0" class="graph" transform="scale(1 1) rotate(0) translate(4 348)">
<title>flow</title>
<polygon fill="white" stroke="transparent" points="-4,26 -4,-348 326,-348 326,26 -4,26"/>
<text text-anchor="start" x="43.5" y="15.2" font-family="Times,serif" font-size="14.00">Flow, node_id=442220, workdir=flow_h2</text>
<g id="clust1" class="cluster">
<title>clusterw0</title>
<path fill="#e0eeee" stroke="black" d="M12.24,0.36C12.24,0.36 310.24,0.36 310.24,0.36 316.24,0.36 322.24,-5.64 322.24,-11.64 322.24,-11.64 322.24,-331.64 322.24,-331.64 322.24,-337.64 316.24,-343.64 310.24,-343.64 310.24,-343.64 12.24,-343.64 12.24,-343.64 6.24,-343.64 0.24,-337.64 0.24,-331.64 0.24,-331.64 0.24,-11.64 0.24,-11.64 0.24,-5.64 6.24,0.36 12.24,0.36"/>
<text text-anchor="middle" x="161.24" y="-328.44" font-family="Times,serif" font-size="14.00">Work (w0)</text>
</g>
<!-- w0_t0 -->
<g id="node1" class="node">
<title>w0_t0</title>
<ellipse fill="#ff0000" stroke="#ff0000" cx="221.48" cy="-295.28" rx="27.89" ry="18"/>
<text text-anchor="middle" x="221.48" y="-296.88" font-family="Times,serif" font-size="8.00">w0_t0</text>
<text text-anchor="middle" x="221.48" y="-288.88" font-family="Times,serif" font-size="8.00">ScfTask</text>
</g>
<!-- w0_t1 -->
<g id="node2" class="node">
<title>w0_t1</title>
<ellipse fill="#ff0000" stroke="#ff0000" cx="186.48" cy="-190.28" rx="27.89" ry="18"/>
<text text-anchor="middle" x="186.48" y="-191.88" font-family="Times,serif" font-size="8.00">w0_t1</text>
<text text-anchor="middle" x="186.48" y="-183.88" font-family="Times,serif" font-size="8.00">ScfTask</text>
</g>
<!-- w0_t2 -->
<g id="node3" class="node">
<title>w0_t2</title>
<ellipse fill="#ff0000" stroke="#ff0000" cx="191.48" cy="-125.28" rx="27.89" ry="18"/>
<text text-anchor="middle" x="191.48" y="-126.88" font-family="Times,serif" font-size="8.00">w0_t2</text>
<text text-anchor="middle" x="191.48" y="-118.88" font-family="Times,serif" font-size="8.00">ScfTask</text>
</g>
<!-- w0_t3 -->
<g id="node4" class="node">
<title>w0_t3</title>
<ellipse fill="#ff0000" stroke="#ff0000" cx="121.48" cy="-195.28" rx="27.89" ry="18"/>
<text text-anchor="middle" x="121.48" y="-196.88" font-family="Times,serif" font-size="8.00">w0_t3</text>
<text text-anchor="middle" x="121.48" y="-188.88" font-family="Times,serif" font-size="8.00">ScfTask</text>
</g>
<!-- w0_t4 -->
<g id="node5" class="node">
<title>w0_t4</title>
<ellipse fill="#ff0000" stroke="#ff0000" cx="86.48" cy="-90.28" rx="27.89" ry="18"/>
<text text-anchor="middle" x="86.48" y="-91.88" font-family="Times,serif" font-size="8.00">w0_t4</text>
<text text-anchor="middle" x="86.48" y="-83.88" font-family="Times,serif" font-size="8.00">ScfTask</text>
</g>
<!-- w0_t5 -->
<g id="node6" class="node">
<title>w0_t5</title>
<ellipse fill="#ff0000" stroke="#ff0000" cx="236.48" cy="-240.28" rx="27.89" ry="18"/>
<text text-anchor="middle" x="236.48" y="-241.88" font-family="Times,serif" font-size="8.00">w0_t5</text>
<text text-anchor="middle" x="236.48" y="-233.88" font-family="Times,serif" font-size="8.00">ScfTask</text>
</g>
<!-- w0_t6 -->
<g id="node7" class="node">
<title>w0_t6</title>
<ellipse fill="#ff0000" stroke="#ff0000" cx="156.48" cy="-75.28" rx="27.89" ry="18"/>
<text text-anchor="middle" x="156.48" y="-76.88" font-family="Times,serif" font-size="8.00">w0_t6</text>
<text text-anchor="middle" x="156.48" y="-68.88" font-family="Times,serif" font-size="8.00">ScfTask</text>
</g>
<!-- w0_t7 -->
<g id="node8" class="node">
<title>w0_t7</title>
<ellipse fill="#ff0000" stroke="#ff0000" cx="221.48" cy="-75.28" rx="27.89" ry="18"/>
<text text-anchor="middle" x="221.48" y="-76.88" font-family="Times,serif" font-size="8.00">w0_t7</text>
<text text-anchor="middle" x="221.48" y="-68.88" font-family="Times,serif" font-size="8.00">ScfTask</text>
</g>
<!-- w0_t8 -->
<g id="node9" class="node">
<title>w0_t8</title>
<ellipse fill="#ff0000" stroke="#ff0000" cx="171.48" cy="-245.28" rx="27.89" ry="18"/>
<text text-anchor="middle" x="171.48" y="-246.88" font-family="Times,serif" font-size="8.00">w0_t8</text>
<text text-anchor="middle" x="171.48" y="-238.88" font-family="Times,serif" font-size="8.00">ScfTask</text>
</g>
<!-- w0_t9 -->
<g id="node10" class="node">
<title>w0_t9</title>
<ellipse fill="#ff0000" stroke="#ff0000" cx="106.48" cy="-245.28" rx="27.89" ry="18"/>
<text text-anchor="middle" x="106.48" y="-246.88" font-family="Times,serif" font-size="8.00">w0_t9</text>
<text text-anchor="middle" x="106.48" y="-238.88" font-family="Times,serif" font-size="8.00">ScfTask</text>
</g>
<!-- w0_t10 -->
<g id="node11" class="node">
<title>w0_t10</title>
<ellipse fill="#ff0000" stroke="#ff0000" cx="251.48" cy="-175.28" rx="27.89" ry="18"/>
<text text-anchor="middle" x="251.48" y="-176.88" font-family="Times,serif" font-size="8.00">w0_t10</text>
<text text-anchor="middle" x="251.48" y="-168.88" font-family="Times,serif" font-size="8.00">ScfTask</text>
</g>
<!-- w0_t11 -->
<g id="node12" class="node">
<title>w0_t11</title>
<ellipse fill="#ff0000" stroke="#ff0000" cx="61.48" cy="-145.28" rx="27.89" ry="18"/>
<text text-anchor="middle" x="61.48" y="-146.88" font-family="Times,serif" font-size="8.00">w0_t11</text>
<text text-anchor="middle" x="61.48" y="-138.88" font-family="Times,serif" font-size="8.00">ScfTask</text>
</g>
<!-- w0_t12 -->
<g id="node13" class="node">
<title>w0_t12</title>
<ellipse fill="#ff0000" stroke="#ff0000" cx="256.48" cy="-125.28" rx="27.89" ry="18"/>
<text text-anchor="middle" x="256.48" y="-126.88" font-family="Times,serif" font-size="8.00">w0_t12</text>
<text text-anchor="middle" x="256.48" y="-118.88" font-family="Times,serif" font-size="8.00">ScfTask</text>
</g>
<!-- w0_t13 -->
<g id="node14" class="node">
<title>w0_t13</title>
<ellipse fill="#ff0000" stroke="#ff0000" cx="56.48" cy="-195.28" rx="27.89" ry="18"/>
<text text-anchor="middle" x="56.48" y="-196.88" font-family="Times,serif" font-size="8.00">w0_t13</text>
<text text-anchor="middle" x="56.48" y="-188.88" font-family="Times,serif" font-size="8.00">ScfTask</text>
</g>
<!-- w0_t14 -->
<g id="node15" class="node">
<title>w0_t14</title>
<ellipse fill="#ff0000" stroke="#ff0000" cx="41.48" cy="-275.28" rx="27.89" ry="18"/>
<text text-anchor="middle" x="41.48" y="-276.88" font-family="Times,serif" font-size="8.00">w0_t14</text>
<text text-anchor="middle" x="41.48" y="-268.88" font-family="Times,serif" font-size="8.00">ScfTask</text>
</g>
<!-- w0_t15 -->
<g id="node16" class="node">
<title>w0_t15</title>
<ellipse fill="#ff0000" stroke="#ff0000" cx="36.48" cy="-40.28" rx="27.89" ry="18"/>
<text text-anchor="middle" x="36.48" y="-41.88" font-family="Times,serif" font-size="8.00">w0_t15</text>
<text text-anchor="middle" x="36.48" y="-33.88" font-family="Times,serif" font-size="8.00">ScfTask</text>
</g>
<!-- w0_t16 -->
<g id="node17" class="node">
<title>w0_t16</title>
<ellipse fill="#ff0000" stroke="#ff0000" cx="286.48" cy="-30.28" rx="27.89" ry="18"/>
<text text-anchor="middle" x="286.48" y="-31.88" font-family="Times,serif" font-size="8.00">w0_t16</text>
<text text-anchor="middle" x="286.48" y="-23.88" font-family="Times,serif" font-size="8.00">ScfTask</text>
</g>
<!-- w0_t17 -->
<g id="node18" class="node">
<title>w0_t17</title>
<ellipse fill="#ff0000" stroke="#ff0000" cx="286.48" cy="-290.28" rx="27.89" ry="18"/>
<text text-anchor="middle" x="286.48" y="-291.88" font-family="Times,serif" font-size="8.00">w0_t17</text>
<text text-anchor="middle" x="286.48" y="-283.88" font-family="Times,serif" font-size="8.00">ScfTask</text>
</g>
<!-- w0_t18 -->
<g id="node19" class="node">
<title>w0_t18</title>
<ellipse fill="#ff0000" stroke="#ff0000" cx="156.48" cy="-25.28" rx="27.89" ry="18"/>
<text text-anchor="middle" x="156.48" y="-26.88" font-family="Times,serif" font-size="8.00">w0_t18</text>
<text text-anchor="middle" x="156.48" y="-18.88" font-family="Times,serif" font-size="8.00">ScfTask</text>
</g>
<!-- w0_t19 -->
<g id="node20" class="node">
<title>w0_t19</title>
<ellipse fill="#ff0000" stroke="#ff0000" cx="221.48" cy="-25.28" rx="27.89" ry="18"/>
<text text-anchor="middle" x="221.48" y="-26.88" font-family="Times,serif" font-size="8.00">w0_t19</text>
<text text-anchor="middle" x="221.48" y="-18.88" font-family="Times,serif" font-size="8.00">ScfTask</text>
</g>
<!-- w0_t20 -->
<g id="node21" class="node">
<title>w0_t20</title>
<ellipse fill="#ff0000" stroke="#ff0000" cx="126.48" cy="-140.28" rx="27.89" ry="18"/>
<text text-anchor="middle" x="126.48" y="-141.88" font-family="Times,serif" font-size="8.00">w0_t20</text>
<text text-anchor="middle" x="126.48" y="-133.88" font-family="Times,serif" font-size="8.00">ScfTask</text>
</g>
</g>
</svg>
