<?xml version="1.0" encoding="UTF-8" standalone="no"?>
<!DOCTYPE svg PUBLIC "-//W3C//DTD SVG 1.1//EN"
 "http://www.w3.org/Graphics/SVG/1.1/DTD/svg11.dtd">
<!-- Generated by graphviz version 2.42.3 (20191010.1750)
 -->
<!-- Title: flow Pages: 1 -->
<svg width="318pt" height="190pt"
 viewBox="0.00 0.00 318.00 190.00" xmlns="http://www.w3.org/2000/svg" xmlns:xlink="http://www.w3.org/1999/xlink">
<g id="graph0" class="graph" transform="scale(1 1) rotate(0) translate(4 164)">
<title>flow</title>
<polygon fill="white" stroke="transparent" points="-4,26 -4,-164 314,-164 314,26 -4,26"/>
<text text-anchor="start" x="28.95" y="15.2" font-family="Times,serif" font-size="14.00">Flow, node_id=443385, workdir=flow_g0w0</text>
<g id="clust1" class="cluster">
<title>clusterw0</title>
<path fill="#e0eeee" stroke="black" d="M11.6,-26.33C11.6,-26.33 145.6,-26.33 145.6,-26.33 151.6,-26.33 157.6,-32.33 157.6,-38.33 157.6,-38.33 157.6,-148.33 157.6,-148.33 157.6,-154.33 151.6,-160.33 145.6,-160.33 145.6,-160.33 11.6,-160.33 11.6,-160.33 5.6,-160.33 -0.4,-154.33 -0.4,-148.33 -0.4,-148.33 -0.4,-38.33 -0.4,-38.33 -0.4,-32.33 5.6,-26.33 11.6,-26.33"/>
<text text-anchor="middle" x="78.6" y="-145.13" font-family="Times,serif" font-size="14.00">BandStructureWork (w0)</text>
</g>
<g id="clust2" class="cluster">
<title>clusterw1</title>
<path fill="#e0eeee" stroke="black" d="M177.67,0.44C177.67,0.44 297.67,0.44 297.67,0.44 303.67,0.44 309.67,-5.56 309.67,-11.56 309.67,-11.56 309.67,-127.56 309.67,-127.56 309.67,-133.56 303.67,-139.56 297.67,-139.56 297.67,-139.56 177.67,-139.56 177.67,-139.56 171.67,-139.56 165.67,-133.56 165.67,-127.56 165.67,-127.56 165.67,-11.56 165.67,-11.56 165.67,-5.56 171.67,0.44 177.67,0.44"/>
<text text-anchor="middle" x="237.67" y="-124.36" font-family="Times,serif" font-size="14.00">Work (w1)</text>
</g>
<!-- w0_t0 -->
<g id="node1" class="node">
<title>w0_t0</title>
<ellipse fill="#ff0000" stroke="#ff0000" cx="114.4" cy="-52.48" rx="27.89" ry="18"/>
<text text-anchor="middle" x="114.4" y="-54.08" font-family="Times,serif" font-size="8.00">w0_t0</text>
<text text-anchor="middle" x="114.4" y="-46.08" font-family="Times,serif" font-size="8.00">ScfTask</text>
</g>
<!-- w0_t1 -->
<g id="node2" class="node">
<title>w0_t1</title>
<ellipse fill="#c85064" stroke="#c85064" cx="45.84" cy="-63.97" rx="30.85" ry="18"/>
<text text-anchor="middle" x="45.84" y="-65.57" font-family="Times,serif" font-size="8.00">w0_t1</text>
<text text-anchor="middle" x="45.84" y="-57.57" font-family="Times,serif" font-size="8.00">NscfTask</text>
</g>
<!-- w0_t0&#45;&gt;w0_t1 -->
<g id="edge1" class="edge">
<title>w0_t0&#45;&gt;w0_t1</title>
<path fill="none" stroke="#ff0000" d="M87.3,-57.02C86.83,-57.1 86.37,-57.18 85.89,-57.26"/>
<polygon fill="#ff0000" stroke="#ff0000" points="85.19,-53.83 75.9,-58.93 86.34,-60.73 85.19,-53.83"/>
<text text-anchor="middle" x="72.21" y="-45.94" font-family="Times,serif" font-size="14.00">DEN</text>
</g>
<!-- w0_t2 -->
<g id="node3" class="node">
<title>w0_t2</title>
<ellipse fill="#c85064" stroke="#c85064" cx="105.84" cy="-111.97" rx="30.85" ry="18"/>
<text text-anchor="middle" x="105.84" y="-113.57" font-family="Times,serif" font-size="8.00">w0_t2</text>
<text text-anchor="middle" x="105.84" y="-105.57" font-family="Times,serif" font-size="8.00">NscfTask</text>
</g>
<!-- w0_t0&#45;&gt;w0_t2 -->
<g id="edge2" class="edge">
<title>w0_t0&#45;&gt;w0_t2</title>
<path fill="none" stroke="#ff0000" d="M111.79,-70.65C111.19,-74.8 110.54,-79.31 109.9,-83.77"/>
<polygon fill="#ff0000" stroke="#ff0000" points="106.4,-83.51 108.44,-93.91 113.33,-84.51 106.4,-83.51"/>
<text text-anchor="middle" x="96.45" y="-80.01" font-family="Times,serif" font-size="14.00">DEN</text>
</g>
<!-- w1_t0 -->
<g id="node4" class="node">
<title>w1_t0</title>
<ellipse fill="#c85064" stroke="#c85064" cx="270.87" cy="-73.41" rx="30.85" ry="18"/>
<text text-anchor="middle" x="270.87" y="-75.01" font-family="Times,serif" font-size="8.00">w1_t0</text>
<text text-anchor="middle" x="270.87" y="-67.01" font-family="Times,serif" font-size="8.00">NscfTask</text>
</g>
<!-- w0_t0&#45;&gt;w1_t0 -->
<g id="edge3" class="edge">
<title>w0_t0&#45;&gt;w1_t0</title>
<path fill="none" stroke="#ff0000" d="M142.01,-56.17C166.52,-59.45 202.64,-64.28 230.4,-68"/>
<polygon fill="#ff0000" stroke="#ff0000" points="230.22,-71.5 240.59,-69.36 231.14,-64.56 230.22,-71.5"/>
<text text-anchor="middle" x="171.82" y="-50.88" font-family="Times,serif" font-size="14.00">DEN</text>
</g>
<!-- w1_t1 -->
<g id="node5" class="node">
<title>w1_t1</title>
<ellipse fill="#ff8000" stroke="#ff8000" cx="201.91" cy="-91.2" rx="27.89" ry="18"/>
<text text-anchor="middle" x="201.91" y="-92.8" font-family="Times,serif" font-size="8.00">w1_t1</text>
<text text-anchor="middle" x="201.91" y="-84.8" font-family="Times,serif" font-size="8.00">ScrTask</text>
</g>
<!-- w1_t0&#45;&gt;w1_t1 -->
<g id="edge4" class="edge">
<title>w1_t0&#45;&gt;w1_t1</title>
<path fill="none" stroke="#c85064" d="M242.42,-80.75C240.94,-81.13 239.44,-81.52 237.93,-81.91"/>
<polygon fill="#c85064" stroke="#c85064" points="236.89,-78.56 228.08,-84.45 238.63,-85.34 236.89,-78.56"/>
<text text-anchor="middle" x="224.62" y="-70.13" font-family="Times,serif" font-size="14.00">WFK</text>
</g>
<!-- w1_t2 -->
<g id="node6" class="node">
<title>w1_t2</title>
<ellipse fill="#00ff00" stroke="#00ff00" cx="213.91" cy="-25.2" rx="34.51" ry="18"/>
<text text-anchor="middle" x="213.91" y="-26.8" font-family="Times,serif" font-size="8.00">w1_t2</text>
<text text-anchor="middle" x="213.91" y="-18.8" font-family="Times,serif" font-size="8.00">SigmaTask</text>
</g>
<!-- w1_t0&#45;&gt;w1_t2 -->
<g id="edge5" class="edge">
<title>w1_t0&#45;&gt;w1_t2</title>
<path fill="none" stroke="#c85064" d="M253.16,-58.42C248.99,-54.9 244.47,-51.07 240.02,-47.3"/>
<polygon fill="#c85064" stroke="#c85064" points="242.09,-44.47 232.2,-40.68 237.57,-49.81 242.09,-44.47"/>
<text text-anchor="middle" x="262.15" y="-41.66" font-family="Times,serif" font-size="14.00">WFK</text>
</g>
<!-- w1_t1&#45;&gt;w1_t2 -->
<g id="edge6" class="edge">
<title>w1_t1&#45;&gt;w1_t2</title>
<path fill="none" stroke="#ff8000" d="M205.19,-73.17C206.3,-67.06 207.57,-60.08 208.79,-53.37"/>
<polygon fill="#ff8000" stroke="#ff8000" points="212.29,-53.68 210.63,-43.22 205.4,-52.43 212.29,-53.68"/>
<text text-anchor="middle" x="220.22" y="-52.07" font-family="Times,serif" font-size="14.00">SCR</text>
</g>
</g>
</svg>
