<?xml version="1.0" encoding="UTF-8" standalone="no"?>
<!DOCTYPE svg PUBLIC "-//W3C//DTD SVG 1.1//EN"
 "http://www.w3.org/Graphics/SVG/1.1/DTD/svg11.dtd">
<!-- Generated by graphviz version 2.42.3 (20191010.1750)
 -->
<!-- Title: flow Pages: 1 -->
<svg width="316pt" height="174pt"
 viewBox="0.00 0.00 315.76 174.00" xmlns="http://www.w3.org/2000/svg" xmlns:xlink="http://www.w3.org/1999/xlink">
<g id="graph0" class="graph" transform="scale(1 1) rotate(0) translate(11.88 148)">
<title>flow</title>
<polygon fill="white" stroke="transparent" points="-11.88,26 -11.88,-148 303.88,-148 303.88,26 -11.88,26"/>
<text text-anchor="start" x="0.12" y="15.2" font-family="Times,serif" font-size="14.00">Flow, node_id=441920, workdir=flow_base3_ngkpt</text>
<g id="clust1" class="cluster">
<title>clusterw0</title>
<path fill="#e0eeee" stroke="black" d="M87.24,0.36C87.24,0.36 205.24,0.36 205.24,0.36 211.24,0.36 217.24,-5.64 217.24,-11.64 217.24,-11.64 217.24,-131.64 217.24,-131.64 217.24,-137.64 211.24,-143.64 205.24,-143.64 205.24,-143.64 87.24,-143.64 87.24,-143.64 81.24,-143.64 75.24,-137.64 75.24,-131.64 75.24,-131.64 75.24,-11.64 75.24,-11.64 75.24,-5.64 81.24,0.36 87.24,0.36"/>
<text text-anchor="middle" x="146.24" y="-128.44" font-family="Times,serif" font-size="14.00">Work (w0)</text>
</g>
<!-- w0_t0 -->
<g id="node1" class="node">
<title>w0_t0</title>
<ellipse fill="#ff0000" stroke="#ff0000" cx="116.48" cy="-40.28" rx="27.89" ry="18"/>
<text text-anchor="middle" x="116.48" y="-41.88" font-family="Times,serif" font-size="8.00">w0_t0</text>
<text text-anchor="middle" x="116.48" y="-33.88" font-family="Times,serif" font-size="8.00">ScfTask</text>
</g>
<!-- w0_t1 -->
<g id="node2" class="node">
<title>w0_t1</title>
<ellipse fill="#ff0000" stroke="#ff0000" cx="176.48" cy="-90.28" rx="27.89" ry="18"/>
<text text-anchor="middle" x="176.48" y="-91.88" font-family="Times,serif" font-size="8.00">w0_t1</text>
<text text-anchor="middle" x="176.48" y="-83.88" font-family="Times,serif" font-size="8.00">ScfTask</text>
</g>
<!-- w0_t2 -->
<g id="node3" class="node">
<title>w0_t2</title>
<ellipse fill="#ff0000" stroke="#ff0000" cx="181.48" cy="-25.28" rx="27.89" ry="18"/>
<text text-anchor="middle" x="181.48" y="-26.88" font-family="Times,serif" font-size="8.00">w0_t2</text>
<text text-anchor="middle" x="181.48" y="-18.88" font-family="Times,serif" font-size="8.00">ScfTask</text>
</g>
<!-- w0_t3 -->
<g id="node4" class="node">
<title>w0_t3</title>
<ellipse fill="#ff0000" stroke="#ff0000" cx="111.48" cy="-95.28" rx="27.89" ry="18"/>
<text text-anchor="middle" x="111.48" y="-96.88" font-family="Times,serif" font-size="8.00">w0_t3</text>
<text text-anchor="middle" x="111.48" y="-88.88" font-family="Times,serif" font-size="8.00">ScfTask</text>
</g>
</g>
</svg>
