<?xml version="1.0" encoding="UTF-8" standalone="no"?>
<!DOCTYPE svg PUBLIC "-//W3C//DTD SVG 1.1//EN"
 "http://www.w3.org/Graphics/SVG/1.1/DTD/svg11.dtd">
<!-- Generated by graphviz version 2.42.3 (20191010.1750)
 -->
<!-- Title: flow Pages: 1 -->
<svg width="264pt" height="159pt"
 viewBox="0.00 0.00 263.65 159.00" xmlns="http://www.w3.org/2000/svg" xmlns:xlink="http://www.w3.org/1999/xlink">
<g id="graph0" class="graph" transform="scale(1 1) rotate(0) translate(12.33 133)">
<title>flow</title>
<polygon fill="white" stroke="transparent" points="-12.33,26 -12.33,-133 251.33,-133 251.33,26 -12.33,26"/>
<text text-anchor="start" x="-0.33" y="15.2" font-family="Times,serif" font-size="14.00">Flow, node_id=443157, workdir=flow_bse</text>
<g id="clust1" class="cluster">
<title>clusterw0</title>
<path fill="#e0eeee" stroke="black" d="M61.74,-0.14C61.74,-0.14 176.74,-0.14 176.74,-0.14 182.74,-0.14 188.74,-6.14 188.74,-12.14 188.74,-12.14 188.74,-117.14 188.74,-117.14 188.74,-123.14 182.74,-129.14 176.74,-129.14 176.74,-129.14 61.74,-129.14 61.74,-129.14 55.74,-129.14 49.74,-123.14 49.74,-117.14 49.74,-117.14 49.74,-12.14 49.74,-12.14 49.74,-6.14 55.74,-0.14 61.74,-0.14"/>
<text text-anchor="middle" x="119.24" y="-113.94" font-family="Times,serif" font-size="14.00">BseMdfWork (w0)</text>
</g>
<!-- w0_t0 -->
<g id="node1" class="node">
<title>w0_t0</title>
<ellipse fill="#ff0000" stroke="#ff0000" cx="85.98" cy="-80.78" rx="27.89" ry="18"/>
<text text-anchor="middle" x="85.98" y="-82.38" font-family="Times,serif" font-size="8.00">w0_t0</text>
<text text-anchor="middle" x="85.98" y="-74.38" font-family="Times,serif" font-size="8.00">ScfTask</text>
</g>
<!-- w0_t1 -->
<g id="node2" class="node">
<title>w0_t1</title>
<ellipse fill="#c85064" stroke="#c85064" cx="88.98" cy="-25.78" rx="30.85" ry="18"/>
<text text-anchor="middle" x="88.98" y="-27.38" font-family="Times,serif" font-size="8.00">w0_t1</text>
<text text-anchor="middle" x="88.98" y="-19.38" font-family="Times,serif" font-size="8.00">NscfTask</text>
</g>
<!-- w0_t0&#45;&gt;w0_t1 -->
<g id="edge1" class="edge">
<title>w0_t0&#45;&gt;w0_t1</title>
<path fill="none" stroke="#ff0000" d="M86.96,-62.77C87.11,-60.05 87.26,-57.18 87.42,-54.3"/>
<polygon fill="#ff0000" stroke="#ff0000" points="90.93,-54.2 87.98,-44.02 83.94,-53.81 90.93,-54.2"/>
<text text-anchor="middle" x="72.8" y="-47.34" font-family="Times,serif" font-size="14.00">DEN</text>
</g>
<!-- w0_t2 -->
<g id="node3" class="node">
<title>w0_t2</title>
<ellipse fill="#8000ff" stroke="#8000ff" cx="151.98" cy="-75.78" rx="28.68" ry="18"/>
<text text-anchor="middle" x="151.98" y="-77.38" font-family="Times,serif" font-size="8.00">w0_t2</text>
<text text-anchor="middle" x="151.98" y="-69.38" font-family="Times,serif" font-size="8.00">BseTask</text>
</g>
<!-- w0_t1&#45;&gt;w0_t2 -->
<g id="edge2" class="edge">
<title>w0_t1&#45;&gt;w0_t2</title>
<path fill="none" stroke="#c85064" d="M107.54,-40.51C113.23,-45.03 119.6,-50.08 125.7,-54.93"/>
<polygon fill="#c85064" stroke="#c85064" points="123.76,-57.85 133.76,-61.33 128.11,-52.37 123.76,-57.85"/>
<text text-anchor="middle" x="101.06" y="-50.52" font-family="Times,serif" font-size="14.00">WFK</text>
</g>
</g>
</svg>
