<?xml version="1.0" encoding="UTF-8" standalone="no"?>
<!DOCTYPE svg PUBLIC "-//W3C//DTD SVG 1.1//EN"
 "http://www.w3.org/Graphics/SVG/1.1/DTD/svg11.dtd">
<!-- Generated by graphviz version 2.42.3 (20191010.1750)
 -->
<!-- Title: flow Pages: 1 -->
<svg width="312pt" height="324pt"
 viewBox="0.00 0.00 312.00 324.00" xmlns="http://www.w3.org/2000/svg" xmlns:xlink="http://www.w3.org/1999/xlink">
<g id="graph0" class="graph" transform="scale(1 1) rotate(0) translate(4 298)">
<title>flow</title>
<polygon fill="white" stroke="transparent" points="-4,26 -4,-298 308,-298 308,26 -4,26"/>
<text text-anchor="start" x="11.57" y="15.2" font-family="Times,serif" font-size="14.00">Flow, node_id=443167, workdir=flow_bse_kconv</text>
<g id="clust1" class="cluster">
<title>clusterw0</title>
<path fill="#e0eeee" stroke="black" d="M11.74,-15.14C11.74,-15.14 126.74,-15.14 126.74,-15.14 132.74,-15.14 138.74,-21.14 138.74,-27.14 138.74,-27.14 138.74,-132.14 138.74,-132.14 138.74,-138.14 132.74,-144.14 126.74,-144.14 126.74,-144.14 11.74,-144.14 11.74,-144.14 5.74,-144.14 -0.26,-138.14 -0.26,-132.14 -0.26,-132.14 -0.26,-27.14 -0.26,-27.14 -0.26,-21.14 5.74,-15.14 11.74,-15.14"/>
<text text-anchor="middle" x="69.24" y="-128.94" font-family="Times,serif" font-size="14.00">BseMdfWork (w0)</text>
</g>
<g id="clust2" class="cluster">
<title>clusterw1</title>
<path fill="#e0eeee" stroke="black" d="M161.74,-165.14C161.74,-165.14 276.74,-165.14 276.74,-165.14 282.74,-165.14 288.74,-171.14 288.74,-177.14 288.74,-177.14 288.74,-282.14 288.74,-282.14 288.74,-288.14 282.74,-294.14 276.74,-294.14 276.74,-294.14 161.74,-294.14 161.74,-294.14 155.74,-294.14 149.74,-288.14 149.74,-282.14 149.74,-282.14 149.74,-177.14 149.74,-177.14 149.74,-171.14 155.74,-165.14 161.74,-165.14"/>
<text text-anchor="middle" x="219.24" y="-278.94" font-family="Times,serif" font-size="14.00">BseMdfWork (w1)</text>
</g>
<g id="clust3" class="cluster">
<title>clusterw2</title>
<path fill="#e0eeee" stroke="black" d="M176.74,-0.14C176.74,-0.14 291.74,-0.14 291.74,-0.14 297.74,-0.14 303.74,-6.14 303.74,-12.14 303.74,-12.14 303.74,-117.14 303.74,-117.14 303.74,-123.14 297.74,-129.14 291.74,-129.14 291.74,-129.14 176.74,-129.14 176.74,-129.14 170.74,-129.14 164.74,-123.14 164.74,-117.14 164.74,-117.14 164.74,-12.14 164.74,-12.14 164.74,-6.14 170.74,-0.14 176.74,-0.14"/>
<text text-anchor="middle" x="234.24" y="-113.94" font-family="Times,serif" font-size="14.00">BseMdfWork (w2)</text>
</g>
<!-- w0_t0 -->
<g id="node1" class="node">
<title>w0_t0</title>
<ellipse fill="#ff0000" stroke="#ff0000" cx="35.98" cy="-95.78" rx="27.89" ry="18"/>
<text text-anchor="middle" x="35.98" y="-97.38" font-family="Times,serif" font-size="8.00">w0_t0</text>
<text text-anchor="middle" x="35.98" y="-89.38" font-family="Times,serif" font-size="8.00">ScfTask</text>
</g>
<!-- w0_t1 -->
<g id="node2" class="node">
<title>w0_t1</title>
<ellipse fill="#c85064" stroke="#c85064" cx="38.98" cy="-40.78" rx="30.85" ry="18"/>
<text text-anchor="middle" x="38.98" y="-42.38" font-family="Times,serif" font-size="8.00">w0_t1</text>
<text text-anchor="middle" x="38.98" y="-34.38" font-family="Times,serif" font-size="8.00">NscfTask</text>
</g>
<!-- w0_t0&#45;&gt;w0_t1 -->
<g id="edge1" class="edge">
<title>w0_t0&#45;&gt;w0_t1</title>
<path fill="none" stroke="#ff0000" d="M36.96,-77.77C37.11,-75.05 37.26,-72.18 37.42,-69.3"/>
<polygon fill="#ff0000" stroke="#ff0000" points="40.93,-69.2 37.98,-59.02 33.94,-68.81 40.93,-69.2"/>
<text text-anchor="middle" x="22.8" y="-62.34" font-family="Times,serif" font-size="14.00">DEN</text>
</g>
<!-- w0_t2 -->
<g id="node3" class="node">
<title>w0_t2</title>
<ellipse fill="#8000ff" stroke="#8000ff" cx="101.98" cy="-90.78" rx="28.68" ry="18"/>
<text text-anchor="middle" x="101.98" y="-92.38" font-family="Times,serif" font-size="8.00">w0_t2</text>
<text text-anchor="middle" x="101.98" y="-84.38" font-family="Times,serif" font-size="8.00">BseTask</text>
</g>
<!-- w0_t1&#45;&gt;w0_t2 -->
<g id="edge2" class="edge">
<title>w0_t1&#45;&gt;w0_t2</title>
<path fill="none" stroke="#c85064" d="M57.54,-55.51C63.23,-60.03 69.6,-65.08 75.7,-69.93"/>
<polygon fill="#c85064" stroke="#c85064" points="73.76,-72.85 83.76,-76.33 78.11,-67.37 73.76,-72.85"/>
<text text-anchor="middle" x="51.06" y="-65.52" font-family="Times,serif" font-size="14.00">WFK</text>
</g>
<!-- w1_t0 -->
<g id="node4" class="node">
<title>w1_t0</title>
<ellipse fill="#ff0000" stroke="#ff0000" cx="185.98" cy="-245.78" rx="27.89" ry="18"/>
<text text-anchor="middle" x="185.98" y="-247.38" font-family="Times,serif" font-size="8.00">w1_t0</text>
<text text-anchor="middle" x="185.98" y="-239.38" font-family="Times,serif" font-size="8.00">ScfTask</text>
</g>
<!-- w1_t1 -->
<g id="node5" class="node">
<title>w1_t1</title>
<ellipse fill="#c85064" stroke="#c85064" cx="188.98" cy="-190.78" rx="30.85" ry="18"/>
<text text-anchor="middle" x="188.98" y="-192.38" font-family="Times,serif" font-size="8.00">w1_t1</text>
<text text-anchor="middle" x="188.98" y="-184.38" font-family="Times,serif" font-size="8.00">NscfTask</text>
</g>
<!-- w1_t0&#45;&gt;w1_t1 -->
<g id="edge3" class="edge">
<title>w1_t0&#45;&gt;w1_t1</title>
<path fill="none" stroke="#ff0000" d="M186.96,-227.77C187.11,-225.05 187.26,-222.18 187.42,-219.3"/>
<polygon fill="#ff0000" stroke="#ff0000" points="190.93,-219.2 187.98,-209.02 183.94,-218.81 190.93,-219.2"/>
<text text-anchor="middle" x="172.8" y="-212.34" font-family="Times,serif" font-size="14.00">DEN</text>
</g>
<!-- w1_t2 -->
<g id="node6" class="node">
<title>w1_t2</title>
<ellipse fill="#8000ff" stroke="#8000ff" cx="251.98" cy="-240.78" rx="28.68" ry="18"/>
<text text-anchor="middle" x="251.98" y="-242.38" font-family="Times,serif" font-size="8.00">w1_t2</text>
<text text-anchor="middle" x="251.98" y="-234.38" font-family="Times,serif" font-size="8.00">BseTask</text>
</g>
<!-- w1_t1&#45;&gt;w1_t2 -->
<g id="edge4" class="edge">
<title>w1_t1&#45;&gt;w1_t2</title>
<path fill="none" stroke="#c85064" d="M207.54,-205.51C213.23,-210.03 219.6,-215.08 225.7,-219.93"/>
<polygon fill="#c85064" stroke="#c85064" points="223.76,-222.85 233.76,-226.33 228.11,-217.37 223.76,-222.85"/>
<text text-anchor="middle" x="201.06" y="-215.52" font-family="Times,serif" font-size="14.00">WFK</text>
</g>
<!-- w2_t0 -->
<g id="node7" class="node">
<title>w2_t0</title>
<ellipse fill="#ff0000" stroke="#ff0000" cx="200.98" cy="-80.78" rx="27.89" ry="18"/>
<text text-anchor="middle" x="200.98" y="-82.38" font-family="Times,serif" font-size="8.00">w2_t0</text>
<text text-anchor="middle" x="200.98" y="-74.38" font-family="Times,serif" font-size="8.00">ScfTask</text>
</g>
<!-- w2_t1 -->
<g id="node8" class="node">
<title>w2_t1</title>
<ellipse fill="#c85064" stroke="#c85064" cx="203.98" cy="-25.78" rx="30.85" ry="18"/>
<text text-anchor="middle" x="203.98" y="-27.38" font-family="Times,serif" font-size="8.00">w2_t1</text>
<text text-anchor="middle" x="203.98" y="-19.38" font-family="Times,serif" font-size="8.00">NscfTask</text>
</g>
<!-- w2_t0&#45;&gt;w2_t1 -->
<g id="edge5" class="edge">
<title>w2_t0&#45;&gt;w2_t1</title>
<path fill="none" stroke="#ff0000" d="M201.96,-62.77C202.11,-60.05 202.26,-57.18 202.42,-54.3"/>
<polygon fill="#ff0000" stroke="#ff0000" points="205.93,-54.2 202.98,-44.02 198.94,-53.81 205.93,-54.2"/>
<text text-anchor="middle" x="187.8" y="-47.34" font-family="Times,serif" font-size="14.00">DEN</text>
</g>
<!-- w2_t2 -->
<g id="node9" class="node">
<title>w2_t2</title>
<ellipse fill="#8000ff" stroke="#8000ff" cx="266.98" cy="-75.78" rx="28.68" ry="18"/>
<text text-anchor="middle" x="266.98" y="-77.38" font-family="Times,serif" font-size="8.00">w2_t2</text>
<text text-anchor="middle" x="266.98" y="-69.38" font-family="Times,serif" font-size="8.00">BseTask</text>
</g>
<!-- w2_t1&#45;&gt;w2_t2 -->
<g id="edge6" class="edge">
<title>w2_t1&#45;&gt;w2_t2</title>
<path fill="none" stroke="#c85064" d="M222.54,-40.51C228.23,-45.03 234.6,-50.08 240.7,-54.93"/>
<polygon fill="#c85064" stroke="#c85064" points="238.76,-57.85 248.76,-61.33 243.11,-52.37 238.76,-57.85"/>
<text text-anchor="middle" x="216.06" y="-50.52" font-family="Times,serif" font-size="14.00">WFK</text>
</g>
</g>
</svg>
