<?xml version="1.0" encoding="UTF-8" standalone="no"?>
<!DOCTYPE svg PUBLIC "-//W3C//DTD SVG 1.1//EN"
 "http://www.w3.org/Graphics/SVG/1.1/DTD/svg11.dtd">
<!-- Generated by graphviz version 2.42.3 (20191010.1750)
 -->
<!-- Title: flow Pages: 1 -->
<svg width="446pt" height="311pt"
 viewBox="0.00 0.00 446.00 311.00" xmlns="http://www.w3.org/2000/svg" xmlns:xlink="http://www.w3.org/1999/xlink">
<g id="graph0" class="graph" transform="scale(1 1) rotate(0) translate(4 285)">
<title>flow</title>
<polygon fill="white" stroke="transparent" points="-4,26 -4,-285 442,-285 442,26 -4,26"/>
<text text-anchor="start" x="65.36" y="15.2" font-family="Times,serif" font-size="14.00">Flow, node_id=441934, workdir=flow_alas_ecut_conv</text>
<g id="clust1" class="cluster">
<title>clusterw0</title>
<path fill="#e0eeee" stroke="black" d="M11.61,-92.44C11.61,-92.44 63.61,-92.44 63.61,-92.44 69.61,-92.44 75.61,-98.44 75.61,-104.44 75.61,-104.44 75.61,-154.44 75.61,-154.44 75.61,-160.44 69.61,-166.44 63.61,-166.44 63.61,-166.44 11.61,-166.44 11.61,-166.44 5.61,-166.44 -0.39,-160.44 -0.39,-154.44 -0.39,-154.44 -0.39,-104.44 -0.39,-104.44 -0.39,-98.44 5.61,-92.44 11.61,-92.44"/>
<text text-anchor="middle" x="37.61" y="-151.24" font-family="Times,serif" font-size="14.00">Work (w0)</text>
</g>
<g id="clust2" class="cluster">
<title>clusterw1</title>
<path fill="#e0eeee" stroke="black" d="M97.16,-53.95C97.16,-53.95 192.16,-53.95 192.16,-53.95 198.16,-53.95 204.16,-59.95 204.16,-65.95 204.16,-65.95 204.16,-160.95 204.16,-160.95 204.16,-166.95 198.16,-172.95 192.16,-172.95 192.16,-172.95 97.16,-172.95 97.16,-172.95 91.16,-172.95 85.16,-166.95 85.16,-160.95 85.16,-160.95 85.16,-65.95 85.16,-65.95 85.16,-59.95 91.16,-53.95 97.16,-53.95"/>
<text text-anchor="middle" x="144.66" y="-157.75" font-family="Times,serif" font-size="14.00">PhononWork (w1)</text>
</g>
<g id="clust3" class="cluster">
<title>clusterw2</title>
<path fill="#e0eeee" stroke="black" d="M155.61,-200.44C155.61,-200.44 207.61,-200.44 207.61,-200.44 213.61,-200.44 219.61,-206.44 219.61,-212.44 219.61,-212.44 219.61,-262.44 219.61,-262.44 219.61,-268.44 213.61,-274.44 207.61,-274.44 207.61,-274.44 155.61,-274.44 155.61,-274.44 149.61,-274.44 143.61,-268.44 143.61,-262.44 143.61,-262.44 143.61,-212.44 143.61,-212.44 143.61,-206.44 149.61,-200.44 155.61,-200.44"/>
<text text-anchor="middle" x="181.61" y="-259.24" font-family="Times,serif" font-size="14.00">Work (w2)</text>
</g>
<g id="clust4" class="cluster">
<title>clusterw3</title>
<path fill="#e0eeee" stroke="black" d="M241.16,-161.95C241.16,-161.95 336.16,-161.95 336.16,-161.95 342.16,-161.95 348.16,-167.95 348.16,-173.95 348.16,-173.95 348.16,-268.95 348.16,-268.95 348.16,-274.95 342.16,-280.95 336.16,-280.95 336.16,-280.95 241.16,-280.95 241.16,-280.95 235.16,-280.95 229.16,-274.95 229.16,-268.95 229.16,-268.95 229.16,-173.95 229.16,-173.95 229.16,-167.95 235.16,-161.95 241.16,-161.95"/>
<text text-anchor="middle" x="288.66" y="-265.75" font-family="Times,serif" font-size="14.00">PhononWork (w3)</text>
</g>
<g id="clust5" class="cluster">
<title>clusterw4</title>
<path fill="#e0eeee" stroke="black" d="M245.61,-38.44C245.61,-38.44 297.61,-38.44 297.61,-38.44 303.61,-38.44 309.61,-44.44 309.61,-50.44 309.61,-50.44 309.61,-100.44 309.61,-100.44 309.61,-106.44 303.61,-112.44 297.61,-112.44 297.61,-112.44 245.61,-112.44 245.61,-112.44 239.61,-112.44 233.61,-106.44 233.61,-100.44 233.61,-100.44 233.61,-50.44 233.61,-50.44 233.61,-44.44 239.61,-38.44 245.61,-38.44"/>
<text text-anchor="middle" x="271.61" y="-97.24" font-family="Times,serif" font-size="14.00">Work (w4)</text>
</g>
<g id="clust6" class="cluster">
<title>clusterw5</title>
<path fill="#e0eeee" stroke="black" d="M331.16,0.05C331.16,0.05 426.16,0.05 426.16,0.05 432.16,0.05 438.16,-5.95 438.16,-11.95 438.16,-11.95 438.16,-106.95 438.16,-106.95 438.16,-112.95 432.16,-118.95 426.16,-118.95 426.16,-118.95 331.16,-118.95 331.16,-118.95 325.16,-118.95 319.16,-112.95 319.16,-106.95 319.16,-106.95 319.16,-11.95 319.16,-11.95 319.16,-5.95 325.16,0.05 331.16,0.05"/>
<text text-anchor="middle" x="378.66" y="-103.75" font-family="Times,serif" font-size="14.00">PhononWork (w5)</text>
</g>
<!-- w0_t0 -->
<g id="node1" class="node">
<title>w0_t0</title>
<ellipse fill="#ff0000" stroke="#ff0000" cx="38.02" cy="-118.23" rx="27.89" ry="18"/>
<text text-anchor="middle" x="38.02" y="-119.83" font-family="Times,serif" font-size="8.00">w0_t0</text>
<text text-anchor="middle" x="38.02" y="-111.83" font-family="Times,serif" font-size="8.00">ScfTask</text>
</g>
<!-- w1_t0 -->
<g id="node2" class="node">
<title>w1_t0</title>
<ellipse fill="#0096fa" stroke="#0096fa" cx="149.53" cy="-124.71" rx="37.38" ry="18"/>
<text text-anchor="middle" x="149.53" y="-126.31" font-family="Times,serif" font-size="8.00">w1_t0</text>
<text text-anchor="middle" x="149.53" y="-118.31" font-family="Times,serif" font-size="8.00">PhononTask</text>
</g>
<!-- w0_t0&#45;&gt;w1_t0 -->
<g id="edge1" class="edge">
<title>w0_t0&#45;&gt;w1_t0</title>
<path fill="none" stroke="#ff0000" d="M65.87,-119.85C76.86,-120.49 89.79,-121.24 102.16,-121.96"/>
<polygon fill="#ff0000" stroke="#ff0000" points="102.18,-125.46 112.37,-122.55 102.59,-118.48 102.18,-125.46"/>
<text text-anchor="middle" x="91.8" y="-109.7" font-family="Times,serif" font-size="14.00">WFK</text>
</g>
<!-- w1_t1 -->
<g id="node3" class="node">
<title>w1_t1</title>
<ellipse fill="#0096fa" stroke="#0096fa" cx="139.79" cy="-79.49" rx="37.38" ry="18"/>
<text text-anchor="middle" x="139.79" y="-81.09" font-family="Times,serif" font-size="8.00">w1_t1</text>
<text text-anchor="middle" x="139.79" y="-73.09" font-family="Times,serif" font-size="8.00">PhononTask</text>
</g>
<!-- w0_t0&#45;&gt;w1_t1 -->
<g id="edge2" class="edge">
<title>w0_t0&#45;&gt;w1_t1</title>
<path fill="none" stroke="#ff0000" d="M62.14,-109.05C73.66,-104.66 87.75,-99.3 100.74,-94.36"/>
<polygon fill="#ff0000" stroke="#ff0000" points="102.3,-97.51 110.4,-90.68 99.81,-90.97 102.3,-97.51"/>
<text text-anchor="middle" x="81.44" y="-90.5" font-family="Times,serif" font-size="14.00">WFK</text>
</g>
<!-- w2_t0 -->
<g id="node4" class="node">
<title>w2_t0</title>
<ellipse fill="#ff0000" stroke="#ff0000" cx="182.02" cy="-226.23" rx="27.89" ry="18"/>
<text text-anchor="middle" x="182.02" y="-227.83" font-family="Times,serif" font-size="8.00">w2_t0</text>
<text text-anchor="middle" x="182.02" y="-219.83" font-family="Times,serif" font-size="8.00">ScfTask</text>
</g>
<!-- w3_t0 -->
<g id="node5" class="node">
<title>w3_t0</title>
<ellipse fill="#0096fa" stroke="#0096fa" cx="283.79" cy="-187.49" rx="37.38" ry="18"/>
<text text-anchor="middle" x="283.79" y="-189.09" font-family="Times,serif" font-size="8.00">w3_t0</text>
<text text-anchor="middle" x="283.79" y="-181.09" font-family="Times,serif" font-size="8.00">PhononTask</text>
</g>
<!-- w2_t0&#45;&gt;w3_t0 -->
<g id="edge3" class="edge">
<title>w2_t0&#45;&gt;w3_t0</title>
<path fill="none" stroke="#ff0000" d="M206.14,-217.05C217.66,-212.66 231.75,-207.3 244.74,-202.36"/>
<polygon fill="#ff0000" stroke="#ff0000" points="246.3,-205.51 254.4,-198.68 243.81,-198.97 246.3,-205.51"/>
<text text-anchor="middle" x="241" y="-212.5" font-family="Times,serif" font-size="14.00">WFK</text>
</g>
<!-- w3_t1 -->
<g id="node6" class="node">
<title>w3_t1</title>
<ellipse fill="#0096fa" stroke="#0096fa" cx="293.53" cy="-232.71" rx="37.38" ry="18"/>
<text text-anchor="middle" x="293.53" y="-234.31" font-family="Times,serif" font-size="8.00">w3_t1</text>
<text text-anchor="middle" x="293.53" y="-226.31" font-family="Times,serif" font-size="8.00">PhononTask</text>
</g>
<!-- w2_t0&#45;&gt;w3_t1 -->
<g id="edge4" class="edge">
<title>w2_t0&#45;&gt;w3_t1</title>
<path fill="none" stroke="#ff0000" d="M209.87,-227.85C220.86,-228.49 233.79,-229.24 246.16,-229.96"/>
<polygon fill="#ff0000" stroke="#ff0000" points="246.18,-233.46 256.37,-230.55 246.59,-226.48 246.18,-233.46"/>
<text text-anchor="middle" x="243.57" y="-231.7" font-family="Times,serif" font-size="14.00">WFK</text>
</g>
<!-- w4_t0 -->
<g id="node7" class="node">
<title>w4_t0</title>
<ellipse fill="#ff0000" stroke="#ff0000" cx="272.02" cy="-64.23" rx="27.89" ry="18"/>
<text text-anchor="middle" x="272.02" y="-65.83" font-family="Times,serif" font-size="8.00">w4_t0</text>
<text text-anchor="middle" x="272.02" y="-57.83" font-family="Times,serif" font-size="8.00">ScfTask</text>
</g>
<!-- w5_t0 -->
<g id="node8" class="node">
<title>w5_t0</title>
<ellipse fill="#0096fa" stroke="#0096fa" cx="373.79" cy="-25.49" rx="37.38" ry="18"/>
<text text-anchor="middle" x="373.79" y="-27.09" font-family="Times,serif" font-size="8.00">w5_t0</text>
<text text-anchor="middle" x="373.79" y="-19.09" font-family="Times,serif" font-size="8.00">PhononTask</text>
</g>
<!-- w4_t0&#45;&gt;w5_t0 -->
<g id="edge5" class="edge">
<title>w4_t0&#45;&gt;w5_t0</title>
<path fill="none" stroke="#ff0000" d="M296.14,-55.05C307.66,-50.66 321.75,-45.3 334.74,-40.36"/>
<polygon fill="#ff0000" stroke="#ff0000" points="336.3,-43.51 344.4,-36.68 333.81,-36.97 336.3,-43.51"/>
<text text-anchor="middle" x="331" y="-50.5" font-family="Times,serif" font-size="14.00">WFK</text>
</g>
<!-- w5_t1 -->
<g id="node9" class="node">
<title>w5_t1</title>
<ellipse fill="#0096fa" stroke="#0096fa" cx="383.53" cy="-70.71" rx="37.38" ry="18"/>
<text text-anchor="middle" x="383.53" y="-72.31" font-family="Times,serif" font-size="8.00">w5_t1</text>
<text text-anchor="middle" x="383.53" y="-64.31" font-family="Times,serif" font-size="8.00">PhononTask</text>
</g>
<!-- w4_t0&#45;&gt;w5_t1 -->
<g id="edge6" class="edge">
<title>w4_t0&#45;&gt;w5_t1</title>
<path fill="none" stroke="#ff0000" d="M299.87,-65.85C310.86,-66.49 323.79,-67.24 336.16,-67.96"/>
<polygon fill="#ff0000" stroke="#ff0000" points="336.18,-71.46 346.37,-68.55 336.59,-64.48 336.18,-71.46"/>
<text text-anchor="middle" x="333.57" y="-69.7" font-family="Times,serif" font-size="14.00">WFK</text>
</g>
</g>
</svg>
