<?xml version="1.0" encoding="UTF-8" standalone="no"?>
<!DOCTYPE svg PUBLIC "-//W3C//DTD SVG 1.1//EN"
 "http://www.w3.org/Graphics/SVG/1.1/DTD/svg11.dtd">
<!-- Generated by graphviz version 2.42.3 (20191010.1750)
 -->
<!-- Title: work Pages: 1 -->
<svg width="338pt" height="188pt"
 viewBox="0.00 0.00 338.00 188.00" xmlns="http://www.w3.org/2000/svg" xmlns:xlink="http://www.w3.org/1999/xlink">
<g id="graph0" class="graph" transform="scale(1 1) rotate(0) translate(4 162)">
<title>work</title>
<polygon fill="white" stroke="transparent" points="-4,26 -4,-162 334,-162 334,26 -4,26"/>
<text text-anchor="start" x="27.01" y="15.2" font-family="Times,serif" font-size="14.00">Work, node_id=442049, workdir=flow_g0w0/w1</text>
<g id="clust1" class="cluster">
<title>clusterw1</title>
<path fill="#e0eeee" stroke="black" d="M12.43,-0.17C12.43,-0.17 221.43,-0.17 221.43,-0.17 227.43,-0.17 233.43,-6.17 233.43,-12.17 233.43,-12.17 233.43,-146.17 233.43,-146.17 233.43,-152.17 227.43,-158.17 221.43,-158.17 221.43,-158.17 12.43,-158.17 12.43,-158.17 6.43,-158.17 0.43,-152.17 0.43,-146.17 0.43,-146.17 0.43,-12.17 0.43,-12.17 0.43,-6.17 6.43,-0.17 12.43,-0.17"/>
<text text-anchor="middle" x="116.93" y="-142.97" font-family="Times,serif" font-size="14.00">Work (w1)</text>
</g>
<!-- w0_t0 -->
<g id="node1" class="node">
<title>w0_t0</title>
<ellipse fill="#ff0000" stroke="#ff0000" cx="287.34" cy="-53.71" rx="43.12" ry="25.41"/>
<text text-anchor="middle" x="287.34" y="-56.51" font-family="Times,serif" font-size="14.00">w0_t0</text>
<text text-anchor="middle" x="287.34" y="-42.51" font-family="Times,serif" font-size="14.00">ScfTask</text>
</g>
<!-- w1_t0 -->
<g id="node2" class="node">
<title>w1_t0</title>
<ellipse fill="#c85064" stroke="#c85064" cx="73.64" cy="-33.52" rx="48.62" ry="25.41"/>
<text text-anchor="middle" x="73.64" y="-36.32" font-family="Times,serif" font-size="14.00">w1_t0</text>
<text text-anchor="middle" x="73.64" y="-22.32" font-family="Times,serif" font-size="14.00">NscfTask</text>
</g>
<!-- w0_t0&#45;&gt;w1_t0 -->
<g id="edge1" class="edge">
<title>w0_t0&#45;&gt;w1_t0</title>
<path fill="none" stroke="#ff0000" d="M244.61,-49.68C212.24,-46.62 167.41,-42.38 131.77,-39.01"/>
<polygon fill="#ff0000" stroke="#ff0000" points="131.8,-35.5 121.51,-38.04 131.14,-42.47 131.8,-35.5"/>
<text text-anchor="middle" x="173.8" y="-47.14" font-family="Times,serif" font-size="14.00">DEN</text>
</g>
<!-- w1_t1 -->
<g id="node3" class="node">
<title>w1_t1</title>
<ellipse fill="#ff8000" stroke="#ff8000" cx="51.9" cy="-94.28" rx="43.12" ry="25.41"/>
<text text-anchor="middle" x="51.9" y="-97.08" font-family="Times,serif" font-size="14.00">w1_t1</text>
<text text-anchor="middle" x="51.9" y="-83.08" font-family="Times,serif" font-size="14.00">ScrTask</text>
</g>
<!-- w1_t0&#45;&gt;w1_t1 -->
<g id="edge2" class="edge">
<title>w1_t0&#45;&gt;w1_t1</title>
<path fill="none" stroke="#c85064" d="M57.86,-57.74C57.69,-58.18 57.52,-58.63 57.35,-59.07"/>
<polygon fill="#c85064" stroke="#c85064" points="54.04,-57.94 54.1,-68.54 60.66,-60.21 54.04,-57.94"/>
<text text-anchor="middle" x="42.05" y="-61.21" font-family="Times,serif" font-size="14.00">WFK</text>
</g>
<!-- w1_t0&#45;&gt;w1_t1 -->
<g id="edge5" class="edge">
<title>w1_t0&#45;&gt;w1_t1</title>
<path fill="none" stroke="#c85064" d="M71.5,-59.06C71.31,-59.65 71.12,-60.25 70.93,-60.85"/>
<polygon fill="#c85064" stroke="#c85064" points="67.54,-59.95 67.49,-70.55 74.13,-62.29 67.54,-59.95"/>
<text text-anchor="middle" x="86.77" y="-62.75" font-family="Times,serif" font-size="14.00">WFK</text>
</g>
<!-- w1_t2 -->
<g id="node4" class="node">
<title>w1_t2</title>
<ellipse fill="#00ff00" stroke="#00ff00" cx="169.86" cy="-103.06" rx="55.33" ry="25.41"/>
<text text-anchor="middle" x="169.86" y="-105.86" font-family="Times,serif" font-size="14.00">w1_t2</text>
<text text-anchor="middle" x="169.86" y="-91.86" font-family="Times,serif" font-size="14.00">SigmaTask</text>
</g>
<!-- w1_t0&#45;&gt;w1_t2 -->
<g id="edge3" class="edge">
<title>w1_t0&#45;&gt;w1_t2</title>
<path fill="none" stroke="#c85064" d="M95.39,-56.67C103.99,-63.65 114.2,-71.3 124.26,-78.36"/>
<polygon fill="#c85064" stroke="#c85064" points="122.41,-81.34 132.63,-84.13 126.38,-75.58 122.41,-81.34"/>
<text text-anchor="middle" x="125.38" y="-56.32" font-family="Times,serif" font-size="14.00">WFK</text>
</g>
<!-- w1_t0&#45;&gt;w1_t2 -->
<g id="edge6" class="edge">
<title>w1_t0&#45;&gt;w1_t2</title>
<path fill="none" stroke="#c85064" d="M108.88,-51.12C119,-57.86 129.92,-65.72 139.7,-73.27"/>
<polygon fill="#c85064" stroke="#c85064" points="137.59,-76.06 147.61,-79.5 141.93,-70.56 137.59,-76.06"/>
<text text-anchor="middle" x="139.85" y="-64.99" font-family="Times,serif" font-size="14.00">WFK</text>
</g>
<!-- w1_t1&#45;&gt;w1_t2 -->
<g id="edge4" class="edge">
<title>w1_t1&#45;&gt;w1_t2</title>
<path fill="none" stroke="#ff8000" d="M92.01,-103.74C96.13,-104.18 100.38,-104.59 104.67,-104.95"/>
<polygon fill="#ff8000" stroke="#ff8000" points="104.49,-108.45 114.73,-105.71 105.02,-101.47 104.49,-108.45"/>
<text text-anchor="middle" x="104.96" y="-93.14" font-family="Times,serif" font-size="14.00">SCR</text>
</g>
<!-- w1_t1&#45;&gt;w1_t2 -->
<g id="edge7" class="edge">
<title>w1_t1&#45;&gt;w1_t2</title>
<path fill="none" stroke="#ff8000" d="M94.63,-90.94C99.43,-91.15 104.39,-91.44 109.36,-91.79"/>
<polygon fill="#ff8000" stroke="#ff8000" points="109.28,-95.3 119.53,-92.6 109.84,-88.32 109.28,-95.3"/>
<text text-anchor="middle" x="101.99" y="-80.17" font-family="Times,serif" font-size="14.00">SCR</text>
</g>
</g>
</svg>
