<?xml version="1.0" encoding="UTF-8" standalone="no"?>
<!DOCTYPE svg PUBLIC "-//W3C//DTD SVG 1.1//EN"
 "http://www.w3.org/Graphics/SVG/1.1/DTD/svg11.dtd">
<!-- Generated by graphviz version 2.42.3 (20191010.1750)
 -->
<!-- Title: flow Pages: 1 -->
<svg width="366pt" height="296pt"
 viewBox="0.00 0.00 366.28 296.00" xmlns="http://www.w3.org/2000/svg" xmlns:xlink="http://www.w3.org/1999/xlink">
<g id="graph0" class="graph" transform="scale(1 1) rotate(0) translate(12.64 270)">
<title>flow</title>
<polygon fill="white" stroke="transparent" points="-12.64,26 -12.64,-270 353.64,-270 353.64,26 -12.64,26"/>
<text text-anchor="start" x="-0.64" y="15.2" font-family="Times,serif" font-size="14.00">Flow, node_id=443143, workdir=flow_al_relax_tsmear_nkpt</text>
<g id="clust1" class="cluster">
<title>clusterw0</title>
<path fill="#e0eeee" stroke="black" d="M32.74,0.36C32.74,0.36 307.74,0.36 307.74,0.36 313.74,0.36 319.74,-5.64 319.74,-11.64 319.74,-11.64 319.74,-253.64 319.74,-253.64 319.74,-259.64 313.74,-265.64 307.74,-265.64 307.74,-265.64 32.74,-265.64 32.74,-265.64 26.74,-265.64 20.74,-259.64 20.74,-253.64 20.74,-253.64 20.74,-11.64 20.74,-11.64 20.74,-5.64 26.74,0.36 32.74,0.36"/>
<text text-anchor="middle" x="170.24" y="-250.44" font-family="Times,serif" font-size="14.00">Work (w0)</text>
</g>
<!-- w0_t0 -->
<g id="node1" class="node">
<title>w0_t0</title>
<ellipse fill="#ff3dff" stroke="#ff3dff" cx="61.98" cy="-121.28" rx="33.12" ry="18"/>
<text text-anchor="middle" x="61.98" y="-122.88" font-family="Times,serif" font-size="8.00">w0_t0</text>
<text text-anchor="middle" x="61.98" y="-114.88" font-family="Times,serif" font-size="8.00">RelaxTask</text>
</g>
<!-- w0_t1 -->
<g id="node2" class="node">
<title>w0_t1</title>
<ellipse fill="#ff3dff" stroke="#ff3dff" cx="199.98" cy="-139.28" rx="33.12" ry="18"/>
<text text-anchor="middle" x="199.98" y="-140.88" font-family="Times,serif" font-size="8.00">w0_t1</text>
<text text-anchor="middle" x="199.98" y="-132.88" font-family="Times,serif" font-size="8.00">RelaxTask</text>
</g>
<!-- w0_t2 -->
<g id="node3" class="node">
<title>w0_t2</title>
<ellipse fill="#ff3dff" stroke="#ff3dff" cx="217.98" cy="-73.28" rx="33.12" ry="18"/>
<text text-anchor="middle" x="217.98" y="-74.88" font-family="Times,serif" font-size="8.00">w0_t2</text>
<text text-anchor="middle" x="217.98" y="-66.88" font-family="Times,serif" font-size="8.00">RelaxTask</text>
</g>
<!-- w0_t3 -->
<g id="node4" class="node">
<title>w0_t3</title>
<ellipse fill="#ff3dff" stroke="#ff3dff" cx="121.98" cy="-169.28" rx="33.12" ry="18"/>
<text text-anchor="middle" x="121.98" y="-170.88" font-family="Times,serif" font-size="8.00">w0_t3</text>
<text text-anchor="middle" x="121.98" y="-162.88" font-family="Times,serif" font-size="8.00">RelaxTask</text>
</g>
<!-- w0_t4 -->
<g id="node5" class="node">
<title>w0_t4</title>
<ellipse fill="#ff3dff" stroke="#ff3dff" cx="247.98" cy="-187.28" rx="33.12" ry="18"/>
<text text-anchor="middle" x="247.98" y="-188.88" font-family="Times,serif" font-size="8.00">w0_t4</text>
<text text-anchor="middle" x="247.98" y="-180.88" font-family="Times,serif" font-size="8.00">RelaxTask</text>
</g>
<!-- w0_t5 -->
<g id="node6" class="node">
<title>w0_t5</title>
<ellipse fill="#ff3dff" stroke="#ff3dff" cx="103.98" cy="-43.28" rx="33.12" ry="18"/>
<text text-anchor="middle" x="103.98" y="-44.88" font-family="Times,serif" font-size="8.00">w0_t5</text>
<text text-anchor="middle" x="103.98" y="-36.88" font-family="Times,serif" font-size="8.00">RelaxTask</text>
</g>
<!-- w0_t6 -->
<g id="node7" class="node">
<title>w0_t6</title>
<ellipse fill="#ff3dff" stroke="#ff3dff" cx="181.98" cy="-25.28" rx="33.12" ry="18"/>
<text text-anchor="middle" x="181.98" y="-26.88" font-family="Times,serif" font-size="8.00">w0_t6</text>
<text text-anchor="middle" x="181.98" y="-18.88" font-family="Times,serif" font-size="8.00">RelaxTask</text>
</g>
<!-- w0_t7 -->
<g id="node8" class="node">
<title>w0_t7</title>
<ellipse fill="#ff3dff" stroke="#ff3dff" cx="259.98" cy="-25.28" rx="33.12" ry="18"/>
<text text-anchor="middle" x="259.98" y="-26.88" font-family="Times,serif" font-size="8.00">w0_t7</text>
<text text-anchor="middle" x="259.98" y="-18.88" font-family="Times,serif" font-size="8.00">RelaxTask</text>
</g>
<!-- w0_t8 -->
<g id="node9" class="node">
<title>w0_t8</title>
<ellipse fill="#ff3dff" stroke="#ff3dff" cx="277.98" cy="-121.28" rx="33.12" ry="18"/>
<text text-anchor="middle" x="277.98" y="-122.88" font-family="Times,serif" font-size="8.00">w0_t8</text>
<text text-anchor="middle" x="277.98" y="-114.88" font-family="Times,serif" font-size="8.00">RelaxTask</text>
</g>
<!-- w0_t9 -->
<g id="node10" class="node">
<title>w0_t9</title>
<ellipse fill="#ff3dff" stroke="#ff3dff" cx="169.98" cy="-217.28" rx="33.12" ry="18"/>
<text text-anchor="middle" x="169.98" y="-218.88" font-family="Times,serif" font-size="8.00">w0_t9</text>
<text text-anchor="middle" x="169.98" y="-210.88" font-family="Times,serif" font-size="8.00">RelaxTask</text>
</g>
<!-- w0_t10 -->
<g id="node11" class="node">
<title>w0_t10</title>
<ellipse fill="#ff3dff" stroke="#ff3dff" cx="91.98" cy="-217.28" rx="33.12" ry="18"/>
<text text-anchor="middle" x="91.98" y="-218.88" font-family="Times,serif" font-size="8.00">w0_t10</text>
<text text-anchor="middle" x="91.98" y="-210.88" font-family="Times,serif" font-size="8.00">RelaxTask</text>
</g>
<!-- w0_t11 -->
<g id="node12" class="node">
<title>w0_t11</title>
<ellipse fill="#ff3dff" stroke="#ff3dff" cx="139.98" cy="-91.28" rx="33.12" ry="18"/>
<text text-anchor="middle" x="139.98" y="-92.88" font-family="Times,serif" font-size="8.00">w0_t11</text>
<text text-anchor="middle" x="139.98" y="-84.88" font-family="Times,serif" font-size="8.00">RelaxTask</text>
</g>
</g>
</svg>
